<svg fill="none" height="190" viewBox="0 0 10 190" width="10" xmlns="http://www.w3.org/2000/svg"><path d="m5.5 17.2204c0-4.1122 4.41099-8.00027 4.49884-12.11151.00077-.0362.00116-.0725.00116-.10889 0-2.76142-2.23858-5-5-5s-5 2.23858-5 5c0 .03639.00038875.07269.00116231.10889.08784349 4.11124 4.49883769 7.99931 4.49883769 12.11151v36.5592c0 4.1122-4.4109948 8.0003-4.4988377 12.1115-.00077356.0362-.0011623.0725-.0011623.1089s.00038875.0727.00116231.1089c.08784349 4.1112 4.49883769 7.9993 4.49883769 12.1115v94.5596c0 4.112-4.4110107 8-4.49883811 12.111-.00077329.036-.00116189.073-.00116189.109 0 2.761 2.23858 5 5 5s5-2.239 5-5c0-.036-.00039-.073-.00116-.109-.08783-4.111-4.49884-7.999-4.49884-12.111v-94.5596c0-4.1122 4.41099-8.0003 4.49884-12.1115.00077-.0362.00116-.0725.00116-.1089s-.00039-.0727-.00116-.1089c-.08785-4.1112-4.49884-7.9993-4.49884-12.1115z" fill="#47a0f4"/></svg>