<svg width="10" height="180" viewBox="0 0 10 180" fill="none" xmlns="http://www.w3.org/2000/svg">
<path d="M5.5 17.2204C5.5 13.1082 9.91099 9.22013 9.99884 5.10889C9.99961 5.07269 10 5.03639 10 5C10 2.23858 7.76142 0 5 0C2.23858 0 0 2.23858 0 5C0 5.03639 0.000388746 5.07269 0.00116231 5.10889C0.0890058 9.22013 4.5 13.1082 4.5 17.2204V48.7796C4.5 52.8918 0.0890052 56.7799 0.0011623 60.8911C0.000388741 60.9273 0 60.9636 0 61C0 61.0364 0.000388746 61.0727 0.00116231 61.1089C0.0890058 65.2201 4.5 69.1082 4.5 73.2204V162.78C4.5 166.892 0.0889893 170.78 0.00116189 174.891C0.000388604 174.927 0 174.964 0 175C0 177.761 2.23858 180 5 180C7.76142 180 10 177.761 10 175C10 174.964 9.99961 174.927 9.99884 174.891C9.91101 170.78 5.5 166.892 5.5 162.78V73.2204C5.5 69.1082 9.91099 65.2201 9.99884 61.1089C9.99961 61.0727 10 61.0364 10 61C10 60.9636 9.99961 60.9273 9.99884 60.8911C9.91099 56.7799 5.5 52.8918 5.5 48.7796V17.2204Z" fill="#47A0F4"/>
</svg>
