<svg width="320" height="202" viewBox="0 0 320 202" fill="none" xmlns="http://www.w3.org/2000/svg">
<rect opacity="0.1" y="48" width="320" height="48" fill="#F7F7F7"/>
<rect x="16" y="59" width="92" height="12" rx="3" fill="#E3E3E3"/>
<rect x="173" y="57" width="65" height="30" rx="6" fill="#E3E3E3"/>
<rect x="246" y="57" width="58" height="30" rx="6" fill="#E3E3E3"/>
<rect x="16" y="75" width="45" height="10" rx="3" fill="#E3E3E3"/>
<rect opacity="0.1" y="96" width="320" height="48" fill="#F7F7F7"/>
<rect x="16" y="107" width="92" height="12" rx="3" fill="#E3E3E3"/>
<rect x="173" y="105" width="65" height="30" rx="6" fill="#E3E3E3"/>
<rect x="246" y="105" width="58" height="30" rx="6" fill="#E3E3E3"/>
<rect x="16" y="123" width="45" height="10" rx="3" fill="#E3E3E3"/>
<rect opacity="0.1" y="144" width="320" height="48" fill="#F7F7F7"/>
<rect x="16" y="155" width="92" height="12" rx="3" fill="#E3E3E3"/>
<rect x="173" y="153" width="65" height="30" rx="6" fill="#E3E3E3"/>
<rect x="246" y="153" width="58" height="30" rx="6" fill="#E3E3E3"/>
<rect x="16" y="171" width="45" height="10" rx="3" fill="#E3E3E3"/>
<rect opacity="0.1" width="320" height="48" fill="#F7F7F7"/>
<rect x="16" y="11" width="92" height="12" rx="3" fill="#E3E3E3"/>
<rect x="173" y="9" width="65" height="30" rx="6" fill="#E3E3E3"/>
<rect x="246" y="9" width="58" height="30" rx="6" fill="#E3E3E3"/>
<rect x="16" y="27" width="45" height="10" rx="3" fill="#E3E3E3"/>
<rect y="27" width="320" height="175" fill="url(#paint0_linear)"/>
<defs>
<linearGradient id="paint0_linear" x1="199" y1="202" x2="199" y2="27" gradientUnits="userSpaceOnUse">
<stop stop-color="#F7F7F7"/>
<stop offset="1" stop-color="#F7F7F7" stop-opacity="0"/>
</linearGradient>
</defs>
</svg>
