<svg width="320" height="110" viewBox="0 0 320 110" fill="none" xmlns="http://www.w3.org/2000/svg">
<g clip-path="url(#clip0)">
<rect width="320" height="110" fill="#4992FF"/>
<circle cx="101" cy="62" r="11" fill="#F4D150" stroke="black" stroke-width="2"/>
<rect x="121.5" y="50.5" width="109" height="23" rx="1.5" stroke="white"/>
<path d="M132.363 65.2324C132.75 65.2324 133.088 65.1152 133.377 64.8809C133.666 64.6465 133.826 64.3535 133.857 64.002H134.883C134.863 64.3652 134.738 64.7109 134.508 65.0391C134.277 65.3672 133.969 65.6289 133.582 65.8242C133.199 66.0195 132.793 66.1172 132.363 66.1172C131.5 66.1172 130.812 65.8301 130.301 65.2559C129.793 64.6777 129.539 63.8887 129.539 62.8887V62.707C129.539 62.0898 129.652 61.541 129.879 61.0605C130.105 60.5801 130.43 60.207 130.852 59.9414C131.277 59.6758 131.779 59.543 132.357 59.543C133.068 59.543 133.658 59.7559 134.127 60.1816C134.6 60.6074 134.852 61.1602 134.883 61.8398H133.857C133.826 61.4297 133.67 61.0938 133.389 60.832C133.111 60.5664 132.768 60.4336 132.357 60.4336C131.807 60.4336 131.379 60.6328 131.074 61.0312C130.773 61.4258 130.623 61.998 130.623 62.748V62.9531C130.623 63.6836 130.773 64.2461 131.074 64.6406C131.375 65.0352 131.805 65.2324 132.363 65.2324ZM135.814 62.7715C135.814 62.1504 135.936 61.5918 136.178 61.0957C136.424 60.5996 136.764 60.2168 137.197 59.9473C137.635 59.6777 138.133 59.543 138.691 59.543C139.555 59.543 140.252 59.8418 140.783 60.4395C141.318 61.0371 141.586 61.832 141.586 62.8242V62.9004C141.586 63.5176 141.467 64.0723 141.229 64.5645C140.994 65.0527 140.656 65.4336 140.215 65.707C139.777 65.9805 139.273 66.1172 138.703 66.1172C137.844 66.1172 137.146 65.8184 136.611 65.2207C136.08 64.623 135.814 63.832 135.814 62.8477V62.7715ZM136.904 62.9004C136.904 63.6035 137.066 64.168 137.391 64.5938C137.719 65.0195 138.156 65.2324 138.703 65.2324C139.254 65.2324 139.691 65.0176 140.016 64.5879C140.34 64.1543 140.502 63.5488 140.502 62.7715C140.502 62.0762 140.336 61.5137 140.004 61.084C139.676 60.6504 139.238 60.4336 138.691 60.4336C138.156 60.4336 137.725 60.6465 137.396 61.0723C137.068 61.498 136.904 62.1074 136.904 62.9004ZM144.123 66H143.039V57H144.123V66ZM145.576 62.7715C145.576 62.1504 145.697 61.5918 145.939 61.0957C146.186 60.5996 146.525 60.2168 146.959 59.9473C147.396 59.6777 147.895 59.543 148.453 59.543C149.316 59.543 150.014 59.8418 150.545 60.4395C151.08 61.0371 151.348 61.832 151.348 62.8242V62.9004C151.348 63.5176 151.229 64.0723 150.99 64.5645C150.756 65.0527 150.418 65.4336 149.977 65.707C149.539 65.9805 149.035 66.1172 148.465 66.1172C147.605 66.1172 146.908 65.8184 146.373 65.2207C145.842 64.623 145.576 63.832 145.576 62.8477V62.7715ZM146.666 62.9004C146.666 63.6035 146.828 64.168 147.152 64.5938C147.48 65.0195 147.918 65.2324 148.465 65.2324C149.016 65.2324 149.453 65.0176 149.777 64.5879C150.102 64.1543 150.264 63.5488 150.264 62.7715C150.264 62.0762 150.098 61.5137 149.766 61.084C149.438 60.6504 149 60.4336 148.453 60.4336C147.918 60.4336 147.486 60.6465 147.158 61.0723C146.83 61.498 146.666 62.1074 146.666 62.9004ZM155.771 60.6328C155.607 60.6055 155.43 60.5918 155.238 60.5918C154.527 60.5918 154.045 60.8945 153.791 61.5V66H152.707V59.6602H153.762L153.779 60.3926C154.135 59.8262 154.639 59.543 155.291 59.543C155.502 59.543 155.662 59.5703 155.771 59.625V60.6328ZM159.029 62.8184H156.17V61.9336H159.029V62.8184ZM164.004 66C163.941 65.875 163.891 65.6523 163.852 65.332C163.348 65.8555 162.746 66.1172 162.047 66.1172C161.422 66.1172 160.908 65.9414 160.506 65.5898C160.107 65.2344 159.908 64.7852 159.908 64.2422C159.908 63.582 160.158 63.0703 160.658 62.707C161.162 62.3398 161.869 62.1562 162.779 62.1562H163.834V61.6582C163.834 61.2793 163.721 60.9785 163.494 60.7559C163.268 60.5293 162.934 60.416 162.492 60.416C162.105 60.416 161.781 60.5137 161.52 60.709C161.258 60.9043 161.127 61.1406 161.127 61.418H160.037C160.037 61.1016 160.148 60.7969 160.371 60.5039C160.598 60.207 160.902 59.9727 161.285 59.8008C161.672 59.6289 162.096 59.543 162.557 59.543C163.287 59.543 163.859 59.7266 164.273 60.0938C164.688 60.457 164.902 60.959 164.918 61.5996V64.5176C164.918 65.0996 164.992 65.5625 165.141 65.9062V66H164.004ZM162.205 65.1738C162.545 65.1738 162.867 65.0859 163.172 64.9102C163.477 64.7344 163.697 64.5059 163.834 64.2246V62.9238H162.984C161.656 62.9238 160.992 63.3125 160.992 64.0898C160.992 64.4297 161.105 64.6953 161.332 64.8867C161.559 65.0781 161.85 65.1738 162.205 65.1738ZM167.795 66H166.711V57H167.795V66ZM172.166 66.1172C171.307 66.1172 170.607 65.8359 170.068 65.2734C169.529 64.707 169.26 63.9512 169.26 63.0059V62.8066C169.26 62.1777 169.379 61.6172 169.617 61.125C169.859 60.6289 170.195 60.2422 170.625 59.9648C171.059 59.6836 171.527 59.543 172.031 59.543C172.855 59.543 173.496 59.8145 173.953 60.3574C174.41 60.9004 174.639 61.6777 174.639 62.6895V63.1406H170.344C170.359 63.7656 170.541 64.2715 170.889 64.6582C171.24 65.041 171.686 65.2324 172.225 65.2324C172.607 65.2324 172.932 65.1543 173.197 64.998C173.463 64.8418 173.695 64.6348 173.895 64.377L174.557 64.8926C174.025 65.709 173.229 66.1172 172.166 66.1172ZM172.031 60.4336C171.594 60.4336 171.227 60.5938 170.93 60.9141C170.633 61.2305 170.449 61.6758 170.379 62.25H173.555V62.168C173.523 61.6172 173.375 61.1914 173.109 60.8906C172.844 60.5859 172.484 60.4336 172.031 60.4336ZM178.963 60.6328C178.799 60.6055 178.621 60.5918 178.43 60.5918C177.719 60.5918 177.236 60.8945 176.982 61.5V66H175.898V59.6602H176.953L176.971 60.3926C177.326 59.8262 177.83 59.543 178.482 59.543C178.693 59.543 178.854 59.5703 178.963 59.625V60.6328ZM181.729 58.125V59.6602H182.912V60.498H181.729V64.4297C181.729 64.6836 181.781 64.875 181.887 65.0039C181.992 65.1289 182.172 65.1914 182.426 65.1914C182.551 65.1914 182.723 65.168 182.941 65.1211V66C182.656 66.0781 182.379 66.1172 182.109 66.1172C181.625 66.1172 181.26 65.9707 181.014 65.6777C180.768 65.3848 180.645 64.9688 180.645 64.4297V60.498H179.49V59.6602H180.645V58.125H181.729Z" fill="#F7F7F7"/>
<rect opacity="0.4" x="186" y="54" width="1" height="16" fill="white"/>
<circle cx="101" cy="34" r="11" fill="#0FA958" stroke="black" stroke-width="2"/>
<path d="M132.363 37.2324C132.75 37.2324 133.088 37.1152 133.377 36.8809C133.666 36.6465 133.826 36.3535 133.857 36.002H134.883C134.863 36.3652 134.738 36.7109 134.508 37.0391C134.277 37.3672 133.969 37.6289 133.582 37.8242C133.199 38.0195 132.793 38.1172 132.363 38.1172C131.5 38.1172 130.812 37.8301 130.301 37.2559C129.793 36.6777 129.539 35.8887 129.539 34.8887V34.707C129.539 34.0898 129.652 33.541 129.879 33.0605C130.105 32.5801 130.43 32.207 130.852 31.9414C131.277 31.6758 131.779 31.543 132.357 31.543C133.068 31.543 133.658 31.7559 134.127 32.1816C134.6 32.6074 134.852 33.1602 134.883 33.8398H133.857C133.826 33.4297 133.67 33.0938 133.389 32.832C133.111 32.5664 132.768 32.4336 132.357 32.4336C131.807 32.4336 131.379 32.6328 131.074 33.0312C130.773 33.4258 130.623 33.998 130.623 34.748V34.9531C130.623 35.6836 130.773 36.2461 131.074 36.6406C131.375 37.0352 131.805 37.2324 132.363 37.2324ZM135.814 34.7715C135.814 34.1504 135.936 33.5918 136.178 33.0957C136.424 32.5996 136.764 32.2168 137.197 31.9473C137.635 31.6777 138.133 31.543 138.691 31.543C139.555 31.543 140.252 31.8418 140.783 32.4395C141.318 33.0371 141.586 33.832 141.586 34.8242V34.9004C141.586 35.5176 141.467 36.0723 141.229 36.5645C140.994 37.0527 140.656 37.4336 140.215 37.707C139.777 37.9805 139.273 38.1172 138.703 38.1172C137.844 38.1172 137.146 37.8184 136.611 37.2207C136.08 36.623 135.814 35.832 135.814 34.8477V34.7715ZM136.904 34.9004C136.904 35.6035 137.066 36.168 137.391 36.5938C137.719 37.0195 138.156 37.2324 138.703 37.2324C139.254 37.2324 139.691 37.0176 140.016 36.5879C140.34 36.1543 140.502 35.5488 140.502 34.7715C140.502 34.0762 140.336 33.5137 140.004 33.084C139.676 32.6504 139.238 32.4336 138.691 32.4336C138.156 32.4336 137.725 32.6465 137.396 33.0723C137.068 33.498 136.904 34.1074 136.904 34.9004ZM144.123 38H143.039V29H144.123V38ZM145.576 34.7715C145.576 34.1504 145.697 33.5918 145.939 33.0957C146.186 32.5996 146.525 32.2168 146.959 31.9473C147.396 31.6777 147.895 31.543 148.453 31.543C149.316 31.543 150.014 31.8418 150.545 32.4395C151.08 33.0371 151.348 33.832 151.348 34.8242V34.9004C151.348 35.5176 151.229 36.0723 150.99 36.5645C150.756 37.0527 150.418 37.4336 149.977 37.707C149.539 37.9805 149.035 38.1172 148.465 38.1172C147.605 38.1172 146.908 37.8184 146.373 37.2207C145.842 36.623 145.576 35.832 145.576 34.8477V34.7715ZM146.666 34.9004C146.666 35.6035 146.828 36.168 147.152 36.5938C147.48 37.0195 147.918 37.2324 148.465 37.2324C149.016 37.2324 149.453 37.0176 149.777 36.5879C150.102 36.1543 150.264 35.5488 150.264 34.7715C150.264 34.0762 150.098 33.5137 149.766 33.084C149.438 32.6504 149 32.4336 148.453 32.4336C147.918 32.4336 147.486 32.6465 147.158 33.0723C146.83 33.498 146.666 34.1074 146.666 34.9004ZM155.771 32.6328C155.607 32.6055 155.43 32.5918 155.238 32.5918C154.527 32.5918 154.045 32.8945 153.791 33.5V38H152.707V31.6602H153.762L153.779 32.3926C154.135 31.8262 154.639 31.543 155.291 31.543C155.502 31.543 155.662 31.5703 155.771 31.625V32.6328ZM159.029 34.8184H156.17V33.9336H159.029V34.8184ZM163.781 36.3184C163.781 36.0254 163.67 35.7988 163.447 35.6387C163.229 35.4746 162.844 35.334 162.293 35.2168C161.746 35.0996 161.311 34.959 160.986 34.7949C160.666 34.6309 160.428 34.4355 160.271 34.209C160.119 33.9824 160.043 33.7129 160.043 33.4004C160.043 32.8809 160.262 32.4414 160.699 32.082C161.141 31.7227 161.703 31.543 162.387 31.543C163.105 31.543 163.688 31.7285 164.133 32.0996C164.582 32.4707 164.807 32.9453 164.807 33.5234H163.717C163.717 33.2266 163.59 32.9707 163.336 32.7559C163.086 32.541 162.77 32.4336 162.387 32.4336C161.992 32.4336 161.684 32.5195 161.461 32.6914C161.238 32.8633 161.127 33.0879 161.127 33.3652C161.127 33.627 161.23 33.8242 161.438 33.957C161.645 34.0898 162.018 34.2168 162.557 34.3379C163.1 34.459 163.539 34.6035 163.875 34.7715C164.211 34.9395 164.459 35.1426 164.619 35.3809C164.783 35.6152 164.865 35.9023 164.865 36.2422C164.865 36.8086 164.639 37.2637 164.186 37.6074C163.732 37.9473 163.145 38.1172 162.422 38.1172C161.914 38.1172 161.465 38.0273 161.074 37.8477C160.684 37.668 160.377 37.418 160.154 37.0977C159.936 36.7734 159.826 36.4238 159.826 36.0488H160.91C160.93 36.4121 161.074 36.7012 161.344 36.916C161.617 37.127 161.977 37.2324 162.422 37.2324C162.832 37.2324 163.16 37.1504 163.406 36.9863C163.656 36.8184 163.781 36.5957 163.781 36.3184ZM170.191 37.373C169.77 37.8691 169.15 38.1172 168.334 38.1172C167.658 38.1172 167.143 37.9219 166.787 37.5312C166.436 37.1367 166.258 36.5547 166.254 35.7852V31.6602H167.338V35.7559C167.338 36.7168 167.729 37.1973 168.51 37.1973C169.338 37.1973 169.889 36.8887 170.162 36.2715V31.6602H171.246V38H170.215L170.191 37.373ZM175.441 37.2324C175.828 37.2324 176.166 37.1152 176.455 36.8809C176.744 36.6465 176.904 36.3535 176.936 36.002H177.961C177.941 36.3652 177.816 36.7109 177.586 37.0391C177.355 37.3672 177.047 37.6289 176.66 37.8242C176.277 38.0195 175.871 38.1172 175.441 38.1172C174.578 38.1172 173.891 37.8301 173.379 37.2559C172.871 36.6777 172.617 35.8887 172.617 34.8887V34.707C172.617 34.0898 172.73 33.541 172.957 33.0605C173.184 32.5801 173.508 32.207 173.93 31.9414C174.355 31.6758 174.857 31.543 175.436 31.543C176.146 31.543 176.736 31.7559 177.205 32.1816C177.678 32.6074 177.93 33.1602 177.961 33.8398H176.936C176.904 33.4297 176.748 33.0938 176.467 32.832C176.189 32.5664 175.846 32.4336 175.436 32.4336C174.885 32.4336 174.457 32.6328 174.152 33.0312C173.852 33.4258 173.701 33.998 173.701 34.748V34.9531C173.701 35.6836 173.852 36.2461 174.152 36.6406C174.453 37.0352 174.883 37.2324 175.441 37.2324ZM181.723 37.2324C182.109 37.2324 182.447 37.1152 182.736 36.8809C183.025 36.6465 183.186 36.3535 183.217 36.002H184.242C184.223 36.3652 184.098 36.7109 183.867 37.0391C183.637 37.3672 183.328 37.6289 182.941 37.8242C182.559 38.0195 182.152 38.1172 181.723 38.1172C180.859 38.1172 180.172 37.8301 179.66 37.2559C179.152 36.6777 178.898 35.8887 178.898 34.8887V34.707C178.898 34.0898 179.012 33.541 179.238 33.0605C179.465 32.5801 179.789 32.207 180.211 31.9414C180.637 31.6758 181.139 31.543 181.717 31.543C182.428 31.543 183.018 31.7559 183.486 32.1816C183.959 32.6074 184.211 33.1602 184.242 33.8398H183.217C183.186 33.4297 183.029 33.0938 182.748 32.832C182.471 32.5664 182.127 32.4336 181.717 32.4336C181.166 32.4336 180.738 32.6328 180.434 33.0312C180.133 33.4258 179.982 33.998 179.982 34.748V34.9531C179.982 35.6836 180.133 36.2461 180.434 36.6406C180.734 37.0352 181.164 37.2324 181.723 37.2324ZM188.092 38.1172C187.232 38.1172 186.533 37.8359 185.994 37.2734C185.455 36.707 185.186 35.9512 185.186 35.0059V34.8066C185.186 34.1777 185.305 33.6172 185.543 33.125C185.785 32.6289 186.121 32.2422 186.551 31.9648C186.984 31.6836 187.453 31.543 187.957 31.543C188.781 31.543 189.422 31.8145 189.879 32.3574C190.336 32.9004 190.564 33.6777 190.564 34.6895V35.1406H186.27C186.285 35.7656 186.467 36.2715 186.814 36.6582C187.166 37.041 187.611 37.2324 188.15 37.2324C188.533 37.2324 188.857 37.1543 189.123 36.998C189.389 36.8418 189.621 36.6348 189.82 36.377L190.482 36.8926C189.951 37.709 189.154 38.1172 188.092 38.1172ZM187.957 32.4336C187.52 32.4336 187.152 32.5938 186.855 32.9141C186.559 33.2305 186.375 33.6758 186.305 34.25H189.48V34.168C189.449 33.6172 189.301 33.1914 189.035 32.8906C188.77 32.5859 188.41 32.4336 187.957 32.4336ZM195.516 36.3184C195.516 36.0254 195.404 35.7988 195.182 35.6387C194.963 35.4746 194.578 35.334 194.027 35.2168C193.48 35.0996 193.045 34.959 192.721 34.7949C192.4 34.6309 192.162 34.4355 192.006 34.209C191.854 33.9824 191.777 33.7129 191.777 33.4004C191.777 32.8809 191.996 32.4414 192.434 32.082C192.875 31.7227 193.438 31.543 194.121 31.543C194.84 31.543 195.422 31.7285 195.867 32.0996C196.316 32.4707 196.541 32.9453 196.541 33.5234H195.451C195.451 33.2266 195.324 32.9707 195.07 32.7559C194.82 32.541 194.504 32.4336 194.121 32.4336C193.727 32.4336 193.418 32.5195 193.195 32.6914C192.973 32.8633 192.861 33.0879 192.861 33.3652C192.861 33.627 192.965 33.8242 193.172 33.957C193.379 34.0898 193.752 34.2168 194.291 34.3379C194.834 34.459 195.273 34.6035 195.609 34.7715C195.945 34.9395 196.193 35.1426 196.354 35.3809C196.518 35.6152 196.6 35.9023 196.6 36.2422C196.6 36.8086 196.373 37.2637 195.92 37.6074C195.467 37.9473 194.879 38.1172 194.156 38.1172C193.648 38.1172 193.199 38.0273 192.809 37.8477C192.418 37.668 192.111 37.418 191.889 37.0977C191.67 36.7734 191.561 36.4238 191.561 36.0488H192.645C192.664 36.4121 192.809 36.7012 193.078 36.916C193.352 37.127 193.711 37.2324 194.156 37.2324C194.566 37.2324 194.895 37.1504 195.141 36.9863C195.391 36.8184 195.516 36.5957 195.516 36.3184ZM201.703 36.3184C201.703 36.0254 201.592 35.7988 201.369 35.6387C201.15 35.4746 200.766 35.334 200.215 35.2168C199.668 35.0996 199.232 34.959 198.908 34.7949C198.588 34.6309 198.35 34.4355 198.193 34.209C198.041 33.9824 197.965 33.7129 197.965 33.4004C197.965 32.8809 198.184 32.4414 198.621 32.082C199.062 31.7227 199.625 31.543 200.309 31.543C201.027 31.543 201.609 31.7285 202.055 32.0996C202.504 32.4707 202.729 32.9453 202.729 33.5234H201.639C201.639 33.2266 201.512 32.9707 201.258 32.7559C201.008 32.541 200.691 32.4336 200.309 32.4336C199.914 32.4336 199.605 32.5195 199.383 32.6914C199.16 32.8633 199.049 33.0879 199.049 33.3652C199.049 33.627 199.152 33.8242 199.359 33.957C199.566 34.0898 199.939 34.2168 200.479 34.3379C201.021 34.459 201.461 34.6035 201.797 34.7715C202.133 34.9395 202.381 35.1426 202.541 35.3809C202.705 35.6152 202.787 35.9023 202.787 36.2422C202.787 36.8086 202.561 37.2637 202.107 37.6074C201.654 37.9473 201.066 38.1172 200.344 38.1172C199.836 38.1172 199.387 38.0273 198.996 37.8477C198.605 37.668 198.299 37.418 198.076 37.0977C197.857 36.7734 197.748 36.4238 197.748 36.0488H198.832C198.852 36.4121 198.996 36.7012 199.266 36.916C199.539 37.127 199.898 37.2324 200.344 37.2324C200.754 37.2324 201.082 37.1504 201.328 36.9863C201.578 36.8184 201.703 36.5957 201.703 36.3184Z" fill="black"/>
<circle cx="101" cy="6" r="11" fill="#D6C0F8" stroke="black" stroke-width="2"/>
<path d="M132.363 9.23242C132.75 9.23242 133.088 9.11523 133.377 8.88086C133.666 8.64648 133.826 8.35352 133.857 8.00195H134.883C134.863 8.36523 134.738 8.71094 134.508 9.03906C134.277 9.36719 133.969 9.62891 133.582 9.82422C133.199 10.0195 132.793 10.1172 132.363 10.1172C131.5 10.1172 130.812 9.83008 130.301 9.25586C129.793 8.67773 129.539 7.88867 129.539 6.88867V6.70703C129.539 6.08984 129.652 5.54102 129.879 5.06055C130.105 4.58008 130.43 4.20703 130.852 3.94141C131.277 3.67578 131.779 3.54297 132.357 3.54297C133.068 3.54297 133.658 3.75586 134.127 4.18164C134.6 4.60742 134.852 5.16016 134.883 5.83984H133.857C133.826 5.42969 133.67 5.09375 133.389 4.83203C133.111 4.56641 132.768 4.43359 132.357 4.43359C131.807 4.43359 131.379 4.63281 131.074 5.03125C130.773 5.42578 130.623 5.99805 130.623 6.74805V6.95312C130.623 7.68359 130.773 8.24609 131.074 8.64062C131.375 9.03516 131.805 9.23242 132.363 9.23242ZM135.814 6.77148C135.814 6.15039 135.936 5.5918 136.178 5.0957C136.424 4.59961 136.764 4.2168 137.197 3.94727C137.635 3.67773 138.133 3.54297 138.691 3.54297C139.555 3.54297 140.252 3.8418 140.783 4.43945C141.318 5.03711 141.586 5.83203 141.586 6.82422V6.90039C141.586 7.51758 141.467 8.07227 141.229 8.56445C140.994 9.05273 140.656 9.43359 140.215 9.70703C139.777 9.98047 139.273 10.1172 138.703 10.1172C137.844 10.1172 137.146 9.81836 136.611 9.2207C136.08 8.62305 135.814 7.83203 135.814 6.84766V6.77148ZM136.904 6.90039C136.904 7.60352 137.066 8.16797 137.391 8.59375C137.719 9.01953 138.156 9.23242 138.703 9.23242C139.254 9.23242 139.691 9.01758 140.016 8.58789C140.34 8.1543 140.502 7.54883 140.502 6.77148C140.502 6.07617 140.336 5.51367 140.004 5.08398C139.676 4.65039 139.238 4.43359 138.691 4.43359C138.156 4.43359 137.725 4.64648 137.396 5.07227C137.068 5.49805 136.904 6.10742 136.904 6.90039ZM144.123 10H143.039V1H144.123V10ZM145.576 6.77148C145.576 6.15039 145.697 5.5918 145.939 5.0957C146.186 4.59961 146.525 4.2168 146.959 3.94727C147.396 3.67773 147.895 3.54297 148.453 3.54297C149.316 3.54297 150.014 3.8418 150.545 4.43945C151.08 5.03711 151.348 5.83203 151.348 6.82422V6.90039C151.348 7.51758 151.229 8.07227 150.99 8.56445C150.756 9.05273 150.418 9.43359 149.977 9.70703C149.539 9.98047 149.035 10.1172 148.465 10.1172C147.605 10.1172 146.908 9.81836 146.373 9.2207C145.842 8.62305 145.576 7.83203 145.576 6.84766V6.77148ZM146.666 6.90039C146.666 7.60352 146.828 8.16797 147.152 8.59375C147.48 9.01953 147.918 9.23242 148.465 9.23242C149.016 9.23242 149.453 9.01758 149.777 8.58789C150.102 8.1543 150.264 7.54883 150.264 6.77148C150.264 6.07617 150.098 5.51367 149.766 5.08398C149.438 4.65039 149 4.43359 148.453 4.43359C147.918 4.43359 147.486 4.64648 147.158 5.07227C146.83 5.49805 146.666 6.10742 146.666 6.90039ZM155.771 4.63281C155.607 4.60547 155.43 4.5918 155.238 4.5918C154.527 4.5918 154.045 4.89453 153.791 5.5V10H152.707V3.66016H153.762L153.779 4.39258C154.135 3.82617 154.639 3.54297 155.291 3.54297C155.502 3.54297 155.662 3.57031 155.771 3.625V4.63281ZM159.029 6.81836H156.17V5.93359H159.029V6.81836ZM164.004 10C163.941 9.875 163.891 9.65234 163.852 9.33203C163.348 9.85547 162.746 10.1172 162.047 10.1172C161.422 10.1172 160.908 9.94141 160.506 9.58984C160.107 9.23438 159.908 8.78516 159.908 8.24219C159.908 7.58203 160.158 7.07031 160.658 6.70703C161.162 6.33984 161.869 6.15625 162.779 6.15625H163.834V5.6582C163.834 5.2793 163.721 4.97852 163.494 4.75586C163.268 4.5293 162.934 4.41602 162.492 4.41602C162.105 4.41602 161.781 4.51367 161.52 4.70898C161.258 4.9043 161.127 5.14062 161.127 5.41797H160.037C160.037 5.10156 160.148 4.79688 160.371 4.50391C160.598 4.20703 160.902 3.97266 161.285 3.80078C161.672 3.62891 162.096 3.54297 162.557 3.54297C163.287 3.54297 163.859 3.72656 164.273 4.09375C164.688 4.45703 164.902 4.95898 164.918 5.59961V8.51758C164.918 9.09961 164.992 9.5625 165.141 9.90625V10H164.004ZM162.205 9.17383C162.545 9.17383 162.867 9.08594 163.172 8.91016C163.477 8.73438 163.697 8.50586 163.834 8.22461V6.92383H162.984C161.656 6.92383 160.992 7.3125 160.992 8.08984C160.992 8.42969 161.105 8.69531 161.332 8.88672C161.559 9.07812 161.85 9.17383 162.205 9.17383ZM169.16 9.23242C169.547 9.23242 169.885 9.11523 170.174 8.88086C170.463 8.64648 170.623 8.35352 170.654 8.00195H171.68C171.66 8.36523 171.535 8.71094 171.305 9.03906C171.074 9.36719 170.766 9.62891 170.379 9.82422C169.996 10.0195 169.59 10.1172 169.16 10.1172C168.297 10.1172 167.609 9.83008 167.098 9.25586C166.59 8.67773 166.336 7.88867 166.336 6.88867V6.70703C166.336 6.08984 166.449 5.54102 166.676 5.06055C166.902 4.58008 167.227 4.20703 167.648 3.94141C168.074 3.67578 168.576 3.54297 169.154 3.54297C169.865 3.54297 170.455 3.75586 170.924 4.18164C171.396 4.60742 171.648 5.16016 171.68 5.83984H170.654C170.623 5.42969 170.467 5.09375 170.186 4.83203C169.908 4.56641 169.564 4.43359 169.154 4.43359C168.604 4.43359 168.176 4.63281 167.871 5.03125C167.57 5.42578 167.42 5.99805 167.42 6.74805V6.95312C167.42 7.68359 167.57 8.24609 167.871 8.64062C168.172 9.03516 168.602 9.23242 169.16 9.23242ZM175.441 9.23242C175.828 9.23242 176.166 9.11523 176.455 8.88086C176.744 8.64648 176.904 8.35352 176.936 8.00195H177.961C177.941 8.36523 177.816 8.71094 177.586 9.03906C177.355 9.36719 177.047 9.62891 176.66 9.82422C176.277 10.0195 175.871 10.1172 175.441 10.1172C174.578 10.1172 173.891 9.83008 173.379 9.25586C172.871 8.67773 172.617 7.88867 172.617 6.88867V6.70703C172.617 6.08984 172.73 5.54102 172.957 5.06055C173.184 4.58008 173.508 4.20703 173.93 3.94141C174.355 3.67578 174.857 3.54297 175.436 3.54297C176.146 3.54297 176.736 3.75586 177.205 4.18164C177.678 4.60742 177.93 5.16016 177.961 5.83984H176.936C176.904 5.42969 176.748 5.09375 176.467 4.83203C176.189 4.56641 175.846 4.43359 175.436 4.43359C174.885 4.43359 174.457 4.63281 174.152 5.03125C173.852 5.42578 173.701 5.99805 173.701 6.74805V6.95312C173.701 7.68359 173.852 8.24609 174.152 8.64062C174.453 9.03516 174.883 9.23242 175.441 9.23242ZM181.811 10.1172C180.951 10.1172 180.252 9.83594 179.713 9.27344C179.174 8.70703 178.904 7.95117 178.904 7.00586V6.80664C178.904 6.17773 179.023 5.61719 179.262 5.125C179.504 4.62891 179.84 4.24219 180.27 3.96484C180.703 3.68359 181.172 3.54297 181.676 3.54297C182.5 3.54297 183.141 3.81445 183.598 4.35742C184.055 4.90039 184.283 5.67773 184.283 6.68945V7.14062H179.988C180.004 7.76562 180.186 8.27148 180.533 8.6582C180.885 9.04102 181.33 9.23242 181.869 9.23242C182.252 9.23242 182.576 9.1543 182.842 8.99805C183.107 8.8418 183.34 8.63477 183.539 8.37695L184.201 8.89258C183.67 9.70898 182.873 10.1172 181.811 10.1172ZM181.676 4.43359C181.238 4.43359 180.871 4.59375 180.574 4.91406C180.277 5.23047 180.094 5.67578 180.023 6.25H183.199V6.16797C183.168 5.61719 183.02 5.19141 182.754 4.89062C182.488 4.58594 182.129 4.43359 181.676 4.43359ZM186.568 3.66016L186.604 4.45703C187.088 3.84766 187.721 3.54297 188.502 3.54297C189.842 3.54297 190.518 4.29883 190.529 5.81055V10H189.445V5.80469C189.441 5.34766 189.336 5.00977 189.129 4.79102C188.926 4.57227 188.607 4.46289 188.174 4.46289C187.822 4.46289 187.514 4.55664 187.248 4.74414C186.982 4.93164 186.775 5.17773 186.627 5.48242V10H185.543V3.66016H186.568ZM193.635 2.125V3.66016H194.818V4.49805H193.635V8.42969C193.635 8.68359 193.688 8.875 193.793 9.00391C193.898 9.12891 194.078 9.19141 194.332 9.19141C194.457 9.19141 194.629 9.16797 194.848 9.12109V10C194.562 10.0781 194.285 10.1172 194.016 10.1172C193.531 10.1172 193.166 9.9707 192.92 9.67773C192.674 9.38477 192.551 8.96875 192.551 8.42969V4.49805H191.396V3.66016H192.551V2.125H193.635Z" fill="black"/>
<rect y="-1" width="320" height="35" fill="url(#paint0_linear)"/>
</g>
<defs>
<linearGradient id="paint0_linear" x1="160" y1="-1" x2="160" y2="34" gradientUnits="userSpaceOnUse">
<stop stop-color="#4992FF"/>
<stop offset="1" stop-color="#4992FF" stop-opacity="0"/>
</linearGradient>
<clipPath id="clip0">
<rect width="320" height="110" fill="white"/>
</clipPath>
</defs>
</svg>
