<svg width="320" height="110" viewBox="0 0 320 110" fill="none" xmlns="http://www.w3.org/2000/svg">
<g clip-path="url(#clip0)">
<rect width="320" height="110" fill="#4992FF"/>
<rect y="-1" width="320" height="35" fill="url(#paint0_linear)"/>
<rect x="53.5" y="28.5" width="89" height="43" rx="5.5" stroke="black"/>
<path d="M71.7944 44.5186C71.6978 45.3457 71.3916 45.9849 70.876 46.436C70.3639 46.8836 69.6818 47.1074 68.8296 47.1074C67.9058 47.1074 67.1646 46.7762 66.606 46.1138C66.051 45.4513 65.7735 44.5651 65.7735 43.4551V42.7031C65.7735 41.9762 65.9024 41.3371 66.1602 40.7856C66.4216 40.2342 66.7904 39.8117 67.2666 39.5181C67.7429 39.2209 68.2943 39.0723 68.9209 39.0723C69.7516 39.0723 70.4177 39.305 70.919 39.7705C71.4203 40.2324 71.7121 40.8734 71.7944 41.6934H70.7578C70.6683 41.0703 70.4732 40.6191 70.1724 40.3398C69.8752 40.0605 69.458 39.9209 68.9209 39.9209C68.2621 39.9209 67.7446 40.1644 67.3687 40.6514C66.9963 41.1383 66.8101 41.8312 66.8101 42.73V43.4873C66.8101 44.3359 66.9873 45.0109 67.3418 45.5122C67.6963 46.0135 68.1922 46.2642 68.8296 46.2642C69.4025 46.2642 69.8412 46.1353 70.1455 45.8774C70.4535 45.616 70.6576 45.1631 70.7578 44.5186H71.7944ZM75.8604 42.0801C75.71 42.055 75.5471 42.0425 75.3716 42.0425C74.7199 42.0425 74.2777 42.32 74.0449 42.875V47H73.0513V41.1885H74.0181L74.0342 41.8599C74.36 41.3407 74.822 41.0811 75.4199 41.0811C75.6133 41.0811 75.7601 41.1061 75.8604 41.1562V42.0801ZM79.083 47.1074C78.2953 47.1074 77.6543 46.8496 77.1602 46.334C76.666 45.8148 76.419 45.1219 76.419 44.2554V44.0728C76.419 43.4963 76.5282 42.9824 76.7466 42.5312C76.9686 42.0765 77.2765 41.722 77.6704 41.4678C78.0679 41.21 78.4976 41.0811 78.9595 41.0811C79.715 41.0811 80.3023 41.3299 80.7212 41.8276C81.1402 42.3254 81.3496 43.0379 81.3496 43.9653V44.3789H77.4126C77.4269 44.9518 77.5934 45.4155 77.9121 45.77C78.2344 46.1209 78.6426 46.2964 79.1367 46.2964C79.4876 46.2964 79.7848 46.2248 80.0283 46.0815C80.2718 45.9383 80.4849 45.7485 80.6675 45.5122L81.2744 45.9849C80.7875 46.7332 80.057 47.1074 79.083 47.1074ZM78.9595 41.8975C78.5584 41.8975 78.2219 42.0443 77.9497 42.3379C77.6776 42.6279 77.5093 43.0361 77.4448 43.5625H80.356V43.4873C80.3273 42.9824 80.1913 42.5921 79.9478 42.3164C79.7043 42.0371 79.3749 41.8975 78.9595 41.8975ZM86.0923 47C86.035 46.8854 85.9885 46.6813 85.9527 46.3877C85.4907 46.8675 84.9393 47.1074 84.2984 47.1074C83.7254 47.1074 83.2546 46.9463 82.8858 46.624C82.5205 46.2982 82.3379 45.8864 82.3379 45.3887C82.3379 44.7835 82.5671 44.3145 83.0254 43.9814C83.4873 43.6449 84.1354 43.4766 84.9697 43.4766H85.9365V43.02C85.9365 42.6727 85.8327 42.397 85.625 42.1929C85.4173 41.9852 85.1112 41.8813 84.7066 41.8813C84.3521 41.8813 84.0549 41.9709 83.815 42.1499C83.575 42.3289 83.4551 42.5456 83.4551 42.7998H82.4561C82.4561 42.5098 82.5581 42.2305 82.7622 41.9619C82.9699 41.6898 83.2492 41.4749 83.6001 41.3174C83.9546 41.1598 84.3431 41.0811 84.7656 41.0811C85.4352 41.0811 85.9598 41.2493 86.3394 41.5859C86.7189 41.9189 86.9159 42.3791 86.9302 42.9663V45.6411C86.9302 46.1746 86.9982 46.599 87.1343 46.9141V47H86.0923ZM84.4434 46.2427C84.7549 46.2427 85.0503 46.1621 85.3296 46.001C85.6089 45.8398 85.8112 45.6304 85.9365 45.3726V44.1802H85.1577C83.9403 44.1802 83.3316 44.5365 83.3316 45.249C83.3316 45.5605 83.4354 45.804 83.6431 45.9795C83.8508 46.1549 84.1175 46.2427 84.4434 46.2427ZM89.836 39.7812V41.1885H90.9209V41.9565H89.836V45.5605C89.836 45.7933 89.8843 45.9688 89.981 46.0869C90.0777 46.2015 90.2424 46.2588 90.4751 46.2588C90.5897 46.2588 90.7472 46.2373 90.9478 46.1943V47C90.6864 47.0716 90.4321 47.1074 90.1851 47.1074C89.7411 47.1074 89.4063 46.9731 89.1807 46.7046C88.9551 46.436 88.8423 46.0547 88.8423 45.5605V41.9565H87.7842V41.1885H88.8423V39.7812H89.836ZM94.4981 47.1074C93.7103 47.1074 93.0694 46.8496 92.5752 46.334C92.0811 45.8148 91.834 45.1219 91.834 44.2554V44.0728C91.834 43.4963 91.9432 42.9824 92.1616 42.5312C92.3836 42.0765 92.6916 41.722 93.0855 41.4678C93.4829 41.21 93.9126 41.0811 94.3745 41.0811C95.1301 41.0811 95.7173 41.3299 96.1362 41.8276C96.5552 42.3254 96.7647 43.0379 96.7647 43.9653V44.3789H92.8277C92.842 44.9518 93.0085 45.4155 93.3272 45.77C93.6494 46.1209 94.0576 46.2964 94.5518 46.2964C94.9027 46.2964 95.1999 46.2248 95.4434 46.0815C95.6869 45.9383 95.8999 45.7485 96.0825 45.5122L96.6895 45.9849C96.2025 46.7332 95.472 47.1074 94.4981 47.1074ZM94.3745 41.8975C93.9735 41.8975 93.6369 42.0443 93.3648 42.3379C93.0926 42.6279 92.9243 43.0361 92.8599 43.5625H95.771V43.4873C95.7424 42.9824 95.6063 42.5921 95.3628 42.3164C95.1193 42.0371 94.7899 41.8975 94.3745 41.8975ZM101.996 39.7812V41.1885H103.081V41.9565H101.996V45.5605C101.996 45.7933 102.044 45.9688 102.141 46.0869C102.238 46.2015 102.403 46.2588 102.635 46.2588C102.75 46.2588 102.907 46.2373 103.108 46.1943V47C102.847 47.0716 102.592 47.1074 102.345 47.1074C101.901 47.1074 101.566 46.9731 101.341 46.7046C101.115 46.436 101.002 46.0547 101.002 45.5605V41.9565H99.9444V41.1885H101.002V39.7812H101.996ZM105.24 41.8921C105.681 41.3514 106.254 41.0811 106.959 41.0811C108.187 41.0811 108.807 41.7739 108.817 43.1597V47H107.824V43.1543C107.82 42.7354 107.723 42.4256 107.534 42.2251C107.348 42.0246 107.056 41.9243 106.658 41.9243C106.336 41.9243 106.053 42.0103 105.81 42.1821C105.566 42.354 105.376 42.5796 105.24 42.8589V47H104.247V38.75H105.24V41.8921ZM112.717 47.1074C111.929 47.1074 111.288 46.8496 110.794 46.334C110.3 45.8148 110.053 45.1219 110.053 44.2554V44.0728C110.053 43.4963 110.162 42.9824 110.38 42.5312C110.602 42.0765 110.91 41.722 111.304 41.4678C111.702 41.21 112.131 41.0811 112.593 41.0811C113.349 41.0811 113.936 41.3299 114.355 41.8276C114.774 42.3254 114.983 43.0379 114.983 43.9653V44.3789H111.046C111.061 44.9518 111.227 45.4155 111.546 45.77C111.868 46.1209 112.276 46.2964 112.771 46.2964C113.121 46.2964 113.419 46.2248 113.662 46.0815C113.906 45.9383 114.119 45.7485 114.301 45.5122L114.908 45.9849C114.421 46.7332 113.691 47.1074 112.717 47.1074ZM112.593 41.8975C112.192 41.8975 111.856 42.0443 111.584 42.3379C111.311 42.6279 111.143 43.0361 111.079 43.5625H113.99V43.4873C113.961 42.9824 113.825 42.5921 113.582 42.3164C113.338 42.0371 113.009 41.8975 112.593 41.8975ZM117.073 41.1885L117.1 41.833C117.526 41.3317 118.1 41.0811 118.824 41.0811C119.637 41.0811 120.19 41.3926 120.483 42.0156C120.677 41.7363 120.927 41.5107 121.235 41.3389C121.547 41.167 121.914 41.0811 122.336 41.0811C123.611 41.0811 124.259 41.756 124.281 43.106V47H123.287V43.165C123.287 42.7497 123.192 42.4399 123.002 42.2358C122.813 42.0282 122.494 41.9243 122.046 41.9243C121.678 41.9243 121.371 42.0353 121.128 42.2573C120.884 42.4757 120.743 42.7712 120.704 43.1436V47H119.705V43.1919C119.705 42.3468 119.291 41.9243 118.464 41.9243C117.812 41.9243 117.366 42.2018 117.126 42.7568V47H116.133V41.1885H117.073ZM128.196 47.1074C127.409 47.1074 126.768 46.8496 126.273 46.334C125.779 45.8148 125.532 45.1219 125.532 44.2554V44.0728C125.532 43.4963 125.641 42.9824 125.86 42.5312C126.082 42.0765 126.39 41.722 126.784 41.4678C127.181 41.21 127.611 41.0811 128.073 41.0811C128.828 41.0811 129.416 41.3299 129.834 41.8276C130.253 42.3254 130.463 43.0379 130.463 43.9653V44.3789H126.526C126.54 44.9518 126.707 45.4155 127.025 45.77C127.348 46.1209 127.756 46.2964 128.25 46.2964C128.601 46.2964 128.898 46.2248 129.142 46.0815C129.385 45.9383 129.598 45.7485 129.781 45.5122L130.388 45.9849C129.901 46.7332 129.17 47.1074 128.196 47.1074ZM128.073 41.8975C127.672 41.8975 127.335 42.0443 127.063 42.3379C126.791 42.6279 126.623 43.0361 126.558 43.5625H129.469V43.4873C129.441 42.9824 129.305 42.5921 129.061 42.3164C128.818 42.0371 128.488 41.8975 128.073 41.8975ZM86.812 57.1587C86.812 58.0431 86.6097 58.7557 86.2051 59.2964C85.8005 59.8371 85.2526 60.1074 84.5615 60.1074C83.8561 60.1074 83.3011 59.8836 82.8965 59.436V62.2344H81.9028V54.1885H82.8106L82.8589 54.833C83.2635 54.3317 83.8257 54.0811 84.5454 54.0811C85.2437 54.0811 85.7951 54.3442 86.1997 54.8706C86.6079 55.397 86.812 56.1292 86.812 57.0674V57.1587ZM85.8184 57.0459C85.8184 56.3906 85.6787 55.8732 85.3994 55.4937C85.1201 55.1141 84.737 54.9243 84.25 54.9243C83.6485 54.9243 83.1973 55.1911 82.8965 55.7246V58.5015C83.1937 59.0314 83.6485 59.2964 84.2608 59.2964C84.737 59.2964 85.1148 59.1084 85.3941 58.7324C85.6769 58.3529 85.8184 57.7907 85.8184 57.0459ZM91.6675 60C91.6102 59.8854 91.5637 59.6813 91.5278 59.3877C91.0659 59.8675 90.5145 60.1074 89.8736 60.1074C89.3006 60.1074 88.8298 59.9463 88.461 59.624C88.0957 59.2982 87.9131 58.8864 87.9131 58.3887C87.9131 57.7835 88.1423 57.3145 88.6006 56.9814C89.0625 56.6449 89.7106 56.4766 90.5449 56.4766H91.5117V56.02C91.5117 55.6727 91.4079 55.397 91.2002 55.1929C90.9925 54.9852 90.6864 54.8813 90.2818 54.8813C89.9273 54.8813 89.6301 54.9709 89.3902 55.1499C89.1502 55.3289 89.0303 55.5456 89.0303 55.7998H88.0313C88.0313 55.5098 88.1333 55.2305 88.3374 54.9619C88.5451 54.6898 88.8244 54.4749 89.1753 54.3174C89.5298 54.1598 89.9183 54.0811 90.3408 54.0811C91.0104 54.0811 91.535 54.2493 91.9146 54.5859C92.2941 54.9189 92.4911 55.3791 92.5054 55.9663V58.6411C92.5054 59.1746 92.5734 59.599 92.7095 59.9141V60H91.6675ZM90.0186 59.2427C90.3301 59.2427 90.6255 59.1621 90.9048 59.001C91.1841 58.8398 91.3864 58.6304 91.5117 58.3726V57.1802H90.7329C89.5155 57.1802 88.9068 57.5365 88.9068 58.249C88.9068 58.5605 89.0106 58.804 89.2183 58.9795C89.426 59.1549 89.6927 59.2427 90.0186 59.2427ZM95.1426 60H94.1489V51.75H95.1426V60ZM99.1494 60.1074C98.3617 60.1074 97.7207 59.8496 97.2266 59.334C96.7324 58.8148 96.4854 58.1219 96.4854 57.2554V57.0728C96.4854 56.4963 96.5946 55.9824 96.813 55.5312C97.035 55.0765 97.343 54.722 97.7368 54.4678C98.1343 54.21 98.564 54.0811 99.0259 54.0811C99.7814 54.0811 100.369 54.3299 100.788 54.8276C101.207 55.3254 101.416 56.0379 101.416 56.9653V57.3789H97.479C97.4933 57.9518 97.6598 58.4155 97.9785 58.77C98.3008 59.1209 98.709 59.2964 99.2031 59.2964C99.5541 59.2964 99.8513 59.2248 100.095 59.0815C100.338 58.9383 100.551 58.7485 100.734 58.5122L101.341 58.9849C100.854 59.7332 100.123 60.1074 99.1494 60.1074ZM99.0259 54.8975C98.6249 54.8975 98.2883 55.0443 98.0161 55.3379C97.744 55.6279 97.5757 56.0361 97.5112 56.5625H100.422V56.4873C100.394 55.9824 100.258 55.5921 100.014 55.3164C99.7707 55.0371 99.4413 54.8975 99.0259 54.8975ZM103.919 52.7812V54.1885H105.004V54.9565H103.919V58.5605C103.919 58.7933 103.967 58.9688 104.064 59.0869C104.161 59.2015 104.325 59.2588 104.558 59.2588C104.673 59.2588 104.83 59.2373 105.031 59.1943V60C104.769 60.0716 104.515 60.1074 104.268 60.1074C103.824 60.1074 103.489 59.9731 103.264 59.7046C103.038 59.436 102.925 59.0547 102.925 58.5605V54.9565H101.867V54.1885H102.925V52.7812H103.919ZM107.518 52.7812V54.1885H108.603V54.9565H107.518V58.5605C107.518 58.7933 107.566 58.9688 107.663 59.0869C107.759 59.2015 107.924 59.2588 108.157 59.2588C108.271 59.2588 108.429 59.2373 108.629 59.1943V60C108.368 60.0716 108.114 60.1074 107.867 60.1074C107.423 60.1074 107.088 59.9731 106.862 59.7046C106.637 59.436 106.524 59.0547 106.524 58.5605V54.9565H105.466V54.1885H106.524V52.7812H107.518ZM112.18 60.1074C111.392 60.1074 110.751 59.8496 110.257 59.334C109.763 58.8148 109.516 58.1219 109.516 57.2554V57.0728C109.516 56.4963 109.625 55.9824 109.843 55.5312C110.065 55.0765 110.373 54.722 110.767 54.4678C111.165 54.21 111.594 54.0811 112.056 54.0811C112.812 54.0811 113.399 54.3299 113.818 54.8276C114.237 55.3254 114.446 56.0379 114.446 56.9653V57.3789H110.509C110.524 57.9518 110.69 58.4155 111.009 58.77C111.331 59.1209 111.739 59.2964 112.233 59.2964C112.584 59.2964 112.882 59.2248 113.125 59.0815C113.369 58.9383 113.582 58.7485 113.764 58.5122L114.371 58.9849C113.884 59.7332 113.154 60.1074 112.18 60.1074ZM112.056 54.8975C111.655 54.8975 111.319 55.0443 111.046 55.3379C110.774 55.6279 110.606 56.0361 110.542 56.5625H113.453V56.4873C113.424 55.9824 113.288 55.5921 113.044 55.3164C112.801 55.0371 112.472 54.8975 112.056 54.8975Z" fill="black"/>
<path d="M211.869 7.83105H210.726V11H210.26V7.83105H209.12V7.44531H211.869V7.83105ZM212.777 8.67822C212.977 8.43245 213.237 8.30957 213.558 8.30957C214.116 8.30957 214.398 8.62451 214.403 9.25439V11H213.951V9.25195C213.95 9.06152 213.906 8.92074 213.819 8.82959C213.735 8.73844 213.602 8.69287 213.421 8.69287C213.275 8.69287 213.146 8.73193 213.036 8.81006C212.925 8.88818 212.839 8.99072 212.777 9.11768V11H212.325V7.25H212.777V8.67822ZM216.175 11.0488C215.817 11.0488 215.526 10.9316 215.301 10.6973C215.077 10.4613 214.964 10.1463 214.964 9.75244V9.66943C214.964 9.40739 215.014 9.17383 215.113 8.96875C215.214 8.76204 215.354 8.60091 215.533 8.48535C215.714 8.36816 215.909 8.30957 216.119 8.30957C216.463 8.30957 216.729 8.42269 216.92 8.64893C217.11 8.87516 217.206 9.19906 217.206 9.62061V9.80859H215.416C215.423 10.069 215.498 10.2798 215.643 10.4409C215.79 10.6004 215.975 10.6802 216.2 10.6802C216.359 10.6802 216.494 10.6476 216.605 10.5825C216.716 10.5174 216.812 10.4312 216.896 10.3237L217.171 10.5386C216.95 10.8787 216.618 11.0488 216.175 11.0488ZM216.119 8.68066C215.937 8.68066 215.784 8.7474 215.66 8.88086C215.536 9.0127 215.46 9.19824 215.431 9.4375H216.754V9.40332C216.741 9.17383 216.679 8.99642 216.568 8.87109C216.458 8.74414 216.308 8.68066 216.119 8.68066ZM218.155 8.3584L218.167 8.65137C218.361 8.4235 218.622 8.30957 218.951 8.30957C219.321 8.30957 219.572 8.45117 219.706 8.73438C219.793 8.60742 219.907 8.50488 220.047 8.42676C220.189 8.34863 220.356 8.30957 220.548 8.30957C221.127 8.30957 221.422 8.61637 221.432 9.22998V11H220.98V9.25684C220.98 9.06803 220.937 8.92725 220.851 8.83447C220.764 8.74007 220.619 8.69287 220.416 8.69287C220.248 8.69287 220.109 8.74333 219.999 8.84424C219.888 8.94352 219.824 9.0778 219.806 9.24707V11H219.352V9.26904C219.352 8.88493 219.164 8.69287 218.788 8.69287C218.491 8.69287 218.289 8.81901 218.18 9.07129V11H217.728V8.3584H218.155ZM223.211 11.0488C222.853 11.0488 222.562 10.9316 222.337 10.6973C222.113 10.4613 222 10.1463 222 9.75244V9.66943C222 9.40739 222.05 9.17383 222.149 8.96875C222.25 8.76204 222.39 8.60091 222.569 8.48535C222.75 8.36816 222.945 8.30957 223.155 8.30957C223.499 8.30957 223.766 8.42269 223.956 8.64893C224.146 8.87516 224.242 9.19906 224.242 9.62061V9.80859H222.452C222.459 10.069 222.534 10.2798 222.679 10.4409C222.826 10.6004 223.011 10.6802 223.236 10.6802C223.395 10.6802 223.53 10.6476 223.641 10.5825C223.752 10.5174 223.849 10.4312 223.932 10.3237L224.208 10.5386C223.986 10.8787 223.654 11.0488 223.211 11.0488ZM223.155 8.68066C222.973 8.68066 222.82 8.7474 222.696 8.88086C222.573 9.0127 222.496 9.19824 222.467 9.4375H223.79V9.40332C223.777 9.17383 223.715 8.99642 223.604 8.87109C223.494 8.74414 223.344 8.68066 223.155 8.68066ZM226.434 8.3584L226.449 8.69043C226.651 8.43652 226.914 8.30957 227.24 8.30957C227.798 8.30957 228.08 8.62451 228.084 9.25439V11H227.633V9.25195C227.631 9.06152 227.587 8.92074 227.501 8.82959C227.416 8.73844 227.284 8.69287 227.103 8.69287C226.957 8.69287 226.828 8.73193 226.717 8.81006C226.607 8.88818 226.52 8.99072 226.458 9.11768V11H226.007V8.3584H226.434ZM230.396 11C230.37 10.9479 230.349 10.8551 230.333 10.7217C230.123 10.9398 229.872 11.0488 229.581 11.0488C229.321 11.0488 229.107 10.9756 228.939 10.8291C228.773 10.681 228.69 10.4938 228.69 10.2676C228.69 9.99251 228.794 9.7793 229.002 9.62793C229.212 9.47493 229.507 9.39844 229.886 9.39844H230.326V9.19092C230.326 9.03304 230.278 8.90771 230.184 8.81494C230.09 8.72054 229.951 8.67334 229.767 8.67334C229.605 8.67334 229.47 8.71403 229.361 8.79541C229.252 8.87679 229.198 8.97526 229.198 9.09082H228.744C228.744 8.95898 228.79 8.83203 228.883 8.70996C228.977 8.58626 229.104 8.48861 229.264 8.41699C229.425 8.34538 229.601 8.30957 229.793 8.30957C230.098 8.30957 230.336 8.38607 230.509 8.53906C230.681 8.69043 230.771 8.89958 230.777 9.1665V10.3823C230.777 10.6248 230.808 10.8177 230.87 10.9609V11H230.396ZM229.647 10.6558C229.789 10.6558 229.923 10.6191 230.05 10.5459C230.177 10.4727 230.269 10.3774 230.326 10.2603V9.71826H229.972C229.418 9.71826 229.142 9.88021 229.142 10.2041C229.142 10.3457 229.189 10.4564 229.283 10.5361C229.378 10.6159 229.499 10.6558 229.647 10.6558ZM231.91 8.3584L231.922 8.65137C232.116 8.4235 232.377 8.30957 232.706 8.30957C233.076 8.30957 233.327 8.45117 233.46 8.73438C233.548 8.60742 233.662 8.50488 233.802 8.42676C233.944 8.34863 234.111 8.30957 234.303 8.30957C234.882 8.30957 235.177 8.61637 235.187 9.22998V11H234.735V9.25684C234.735 9.06803 234.692 8.92725 234.605 8.83447C234.519 8.74007 234.374 8.69287 234.171 8.69287C234.003 8.69287 233.864 8.74333 233.753 8.84424C233.643 8.94352 233.578 9.0778 233.561 9.24707V11H233.106V9.26904C233.106 8.88493 232.918 8.69287 232.542 8.69287C232.246 8.69287 232.044 8.81901 231.935 9.07129V11H231.483V8.3584H231.91ZM236.966 11.0488C236.608 11.0488 236.317 10.9316 236.092 10.6973C235.868 10.4613 235.755 10.1463 235.755 9.75244V9.66943C235.755 9.40739 235.805 9.17383 235.904 8.96875C236.005 8.76204 236.145 8.60091 236.324 8.48535C236.505 8.36816 236.7 8.30957 236.91 8.30957C237.254 8.30957 237.521 8.42269 237.711 8.64893C237.901 8.87516 237.997 9.19906 237.997 9.62061V9.80859H236.207C236.214 10.069 236.289 10.2798 236.434 10.4409C236.581 10.6004 236.766 10.6802 236.991 10.6802C237.15 10.6802 237.285 10.6476 237.396 10.5825C237.507 10.5174 237.604 10.4312 237.687 10.3237L237.962 10.5386C237.741 10.8787 237.409 11.0488 236.966 11.0488ZM236.91 8.68066C236.728 8.68066 236.575 8.7474 236.451 8.88086C236.327 9.0127 236.251 9.19824 236.222 9.4375H237.545V9.40332C237.532 9.17383 237.47 8.99642 237.359 8.87109C237.249 8.74414 237.099 8.68066 236.91 8.68066Z" fill="black"/>
<path d="M209.908 23V15.1797H212.115C212.796 15.1797 213.397 15.3301 213.92 15.6309C214.443 15.9316 214.846 16.3595 215.128 16.9146C215.415 17.4696 215.56 18.1069 215.563 18.8267V19.3262C215.563 20.0638 215.42 20.7101 215.134 21.2651C214.851 21.8201 214.444 22.2463 213.915 22.5435C213.388 22.8407 212.774 22.9928 212.072 23H209.908ZM210.939 16.0283V22.1567H212.024C212.819 22.1567 213.437 21.9097 213.877 21.4155C214.321 20.9214 214.543 20.2178 214.543 19.3047V18.8481C214.543 17.9601 214.333 17.2708 213.915 16.7803C213.499 16.2861 212.908 16.0355 212.142 16.0283H210.939ZM219.382 23.1074C218.595 23.1074 217.954 22.8496 217.459 22.334C216.965 21.8148 216.718 21.1219 216.718 20.2554V20.0728C216.718 19.4963 216.827 18.9824 217.046 18.5312C217.268 18.0765 217.576 17.722 217.97 17.4678C218.367 17.21 218.797 17.0811 219.259 17.0811C220.014 17.0811 220.602 17.3299 221.021 17.8276C221.439 18.3254 221.649 19.0379 221.649 19.9653V20.3789H217.712C217.726 20.9518 217.893 21.4155 218.211 21.77C218.534 22.1209 218.942 22.2964 219.436 22.2964C219.787 22.2964 220.084 22.2248 220.328 22.0815C220.571 21.9383 220.784 21.7485 220.967 21.5122L221.574 21.9849C221.087 22.7332 220.356 23.1074 219.382 23.1074ZM219.259 17.8975C218.858 17.8975 218.521 18.0443 218.249 18.3379C217.977 18.6279 217.809 19.0361 217.744 19.5625H220.655V19.4873C220.627 18.9824 220.491 18.5921 220.247 18.3164C220.004 18.0371 219.674 17.8975 219.259 17.8975ZM223.292 23V17.9565H222.374V17.1885H223.292V16.5923C223.292 15.9692 223.459 15.4876 223.792 15.1475C224.125 14.8073 224.596 14.6372 225.205 14.6372C225.434 14.6372 225.661 14.6676 225.887 14.7285L225.833 15.5342C225.665 15.502 225.486 15.4858 225.296 15.4858C224.974 15.4858 224.725 15.5807 224.549 15.7705C224.374 15.9567 224.286 16.2253 224.286 16.5762V17.1885H225.527V17.9565H224.286V23H223.292ZM230.216 23C230.159 22.8854 230.112 22.6813 230.076 22.3877C229.614 22.8675 229.063 23.1074 228.422 23.1074C227.849 23.1074 227.378 22.9463 227.009 22.624C226.644 22.2982 226.461 21.8864 226.461 21.3887C226.461 20.7835 226.691 20.3145 227.149 19.9814C227.611 19.6449 228.259 19.4766 229.093 19.4766H230.06V19.02C230.06 18.6727 229.956 18.397 229.749 18.1929C229.541 17.9852 229.235 17.8813 228.83 17.8813C228.476 17.8813 228.178 17.9709 227.938 18.1499C227.699 18.3289 227.579 18.5456 227.579 18.7998H226.58C226.58 18.5098 226.682 18.2305 226.886 17.9619C227.093 17.6898 227.373 17.4749 227.724 17.3174C228.078 17.1598 228.467 17.0811 228.889 17.0811C229.559 17.0811 230.083 17.2493 230.463 17.5859C230.842 17.9189 231.039 18.3791 231.054 18.9663V21.6411C231.054 22.1746 231.122 22.599 231.258 22.9141V23H230.216ZM228.567 22.2427C228.878 22.2427 229.174 22.1621 229.453 22.001C229.732 21.8398 229.935 21.6304 230.06 21.3726V20.1802H229.281C228.064 20.1802 227.455 20.5365 227.455 21.249C227.455 21.5605 227.559 21.804 227.767 21.9795C227.974 22.1549 228.241 22.2427 228.567 22.2427ZM236.199 22.4253C235.812 22.88 235.245 23.1074 234.497 23.1074C233.877 23.1074 233.404 22.9284 233.079 22.5703C232.756 22.2087 232.593 21.6751 232.59 20.9697V17.1885H233.583V20.9429C233.583 21.8237 233.942 22.2642 234.658 22.2642C235.417 22.2642 235.922 21.9813 236.172 21.4155V17.1885H237.166V23H236.221L236.199 22.4253ZM239.76 23H238.767V14.75H239.76V23ZM242.704 15.7812V17.1885H243.789V17.9565H242.704V21.5605C242.704 21.7933 242.752 21.9688 242.849 22.0869C242.945 22.2015 243.11 22.2588 243.343 22.2588C243.457 22.2588 243.615 22.2373 243.815 22.1943V23C243.554 23.0716 243.3 23.1074 243.053 23.1074C242.609 23.1074 242.274 22.9731 242.048 22.7046C241.823 22.436 241.71 22.0547 241.71 21.5605V17.9565H240.652V17.1885H241.71V15.7812H242.704Z" fill="black"/>
<rect x="209.5" y="30.5" width="48" height="13" rx="1.5" fill="#D6C0F8" stroke="black"/>
<rect x="209.5" y="48.5" width="48" height="13" rx="1.5" fill="#0FA958" stroke="black"/>
<rect x="209.5" y="66.5" width="48" height="13" rx="1.5" fill="#F4D150" stroke="black"/>
<path d="M198.995 52.5707C199.034 52.2973 198.844 52.0441 198.571 52.005L194.116 51.3686C193.843 51.3296 193.589 51.5195 193.55 51.7929C193.511 52.0663 193.701 52.3195 193.975 52.3586L197.934 52.9243L197.369 56.8841C197.33 57.1574 197.52 57.4107 197.793 57.4497C198.066 57.4888 198.32 57.2989 198.359 57.0255L198.995 52.5707ZM151.708 52.9058C158.082 57.495 167.432 59.3013 176.35 59.0748C185.263 58.8486 193.882 56.5882 198.8 52.9L198.2 52.1C193.518 55.6118 185.137 57.8514 176.325 58.0752C167.518 58.2987 158.418 56.505 152.292 52.0942L151.708 52.9058Z" fill="black"/>
</g>
<defs>
<linearGradient id="paint0_linear" x1="160" y1="-1" x2="160" y2="34" gradientUnits="userSpaceOnUse">
<stop stop-color="#4992FF"/>
<stop offset="1" stop-color="#4992FF" stop-opacity="0"/>
</linearGradient>
<clipPath id="clip0">
<rect width="320" height="110" fill="white"/>
</clipPath>
</defs>
</svg>
