<svg width="320" height="110" viewBox="0 0 320 110" fill="none" xmlns="http://www.w3.org/2000/svg">
<g clip-path="url(#clip0)">
<rect width="320" height="110" fill="#4992FF"/>
<path d="M171.995 52.5707C172.034 52.2973 171.844 52.0441 171.571 52.005L167.116 51.3686C166.843 51.3296 166.589 51.5195 166.55 51.7929C166.511 52.0663 166.701 52.3195 166.975 52.3586L170.934 52.9243L170.369 56.8841C170.33 57.1574 170.52 57.4107 170.793 57.4497C171.066 57.4888 171.32 57.2989 171.359 57.0255L171.995 52.5707ZM124.708 52.9058C131.082 57.495 140.432 59.3013 149.35 59.0748C158.263 58.8486 166.882 56.5882 171.8 52.9L171.2 52.1C166.518 55.6118 158.137 57.8514 149.325 58.0752C140.518 58.2987 131.418 56.505 125.292 52.0942L124.708 52.9058Z" fill="black"/>
<rect x="184.5" y="36.5" width="89" height="29" rx="5.5" stroke="black"/>
<path d="M203.299 52.5186C203.203 53.3457 202.896 53.9849 202.381 54.436C201.869 54.8836 201.187 55.1074 200.334 55.1074C199.411 55.1074 198.669 54.7762 198.111 54.1138C197.556 53.4513 197.278 52.5651 197.278 51.4551V50.7031C197.278 49.9762 197.407 49.3371 197.665 48.7856C197.926 48.2342 198.295 47.8117 198.771 47.5181C199.248 47.2209 199.799 47.0723 200.426 47.0723C201.257 47.0723 201.923 47.305 202.424 47.7705C202.925 48.2324 203.217 48.8734 203.299 49.6934H202.263C202.173 49.0703 201.978 48.6191 201.677 48.3398C201.38 48.0605 200.963 47.9209 200.426 47.9209C199.767 47.9209 199.25 48.1644 198.874 48.6514C198.501 49.1383 198.315 49.8312 198.315 50.73V51.4873C198.315 52.3359 198.492 53.0109 198.847 53.5122C199.201 54.0135 199.697 54.2642 200.334 54.2642C200.907 54.2642 201.346 54.1353 201.65 53.8774C201.958 53.616 202.162 53.1631 202.263 52.5186H203.299ZM205.55 49.8921C205.99 49.3514 206.563 49.0811 207.269 49.0811C208.497 49.0811 209.116 49.7739 209.127 51.1597V55H208.133V51.1543C208.13 50.7354 208.033 50.4256 207.843 50.2251C207.657 50.0246 207.365 49.9243 206.968 49.9243C206.646 49.9243 206.363 50.0103 206.119 50.1821C205.876 50.354 205.686 50.5796 205.55 50.8589V55H204.556V46.75H205.55V49.8921ZM214.203 55C214.145 54.8854 214.099 54.6813 214.063 54.3877C213.601 54.8675 213.05 55.1074 212.409 55.1074C211.836 55.1074 211.365 54.9463 210.996 54.624C210.631 54.2982 210.448 53.8864 210.448 53.3887C210.448 52.7835 210.677 52.3145 211.136 51.9814C211.598 51.6449 212.246 51.4766 213.08 51.4766H214.047V51.02C214.047 50.6727 213.943 50.397 213.735 50.1929C213.528 49.9852 213.222 49.8813 212.817 49.8813C212.462 49.8813 212.165 49.9709 211.925 50.1499C211.685 50.3289 211.565 50.5456 211.565 50.7998H210.566C210.566 50.5098 210.668 50.2305 210.873 49.9619C211.08 49.6898 211.36 49.4749 211.71 49.3174C212.065 49.1598 212.453 49.0811 212.876 49.0811C213.546 49.0811 214.07 49.2493 214.45 49.5859C214.829 49.9189 215.026 50.3791 215.041 50.9663V53.6411C215.041 54.1746 215.109 54.599 215.245 54.9141V55H214.203ZM212.554 54.2427C212.865 54.2427 213.161 54.1621 213.44 54.001C213.719 53.8398 213.922 53.6304 214.047 53.3726V52.1802H213.268C212.051 52.1802 211.442 52.5365 211.442 53.249C211.442 53.5605 211.546 53.804 211.753 53.9795C211.961 54.1549 212.228 54.2427 212.554 54.2427ZM217.538 49.1885L217.57 49.9189C218.014 49.3604 218.594 49.0811 219.311 49.0811C220.539 49.0811 221.158 49.7739 221.169 51.1597V55H220.175V51.1543C220.172 50.7354 220.075 50.4256 219.885 50.2251C219.699 50.0246 219.407 49.9243 219.01 49.9243C218.688 49.9243 218.405 50.0103 218.161 50.1821C217.918 50.354 217.728 50.5796 217.592 50.8589V55H216.598V49.1885H217.538ZM222.431 52.0459C222.431 51.14 222.641 50.4202 223.06 49.8867C223.479 49.3496 224.034 49.0811 224.725 49.0811C225.434 49.0811 225.987 49.3317 226.384 49.833L226.433 49.1885H227.34V54.8604C227.34 55.6123 227.117 56.2049 226.669 56.6382C226.225 57.0715 225.627 57.2881 224.875 57.2881C224.456 57.2881 224.046 57.1986 223.645 57.0195C223.244 56.8405 222.938 56.5952 222.727 56.2837L223.242 55.6875C223.668 56.2139 224.189 56.4771 224.805 56.4771C225.289 56.4771 225.665 56.341 225.933 56.0688C226.205 55.7967 226.341 55.4136 226.341 54.9194V54.4199C225.944 54.8783 225.401 55.1074 224.714 55.1074C224.034 55.1074 223.482 54.8335 223.06 54.2856C222.641 53.7378 222.431 52.9912 222.431 52.0459ZM223.43 52.1587C223.43 52.814 223.564 53.3296 223.833 53.7056C224.102 54.078 224.478 54.2642 224.961 54.2642C225.588 54.2642 226.048 53.9795 226.341 53.4102V50.7568C226.037 50.2018 225.58 49.9243 224.972 49.9243C224.488 49.9243 224.111 50.1123 223.838 50.4883C223.566 50.8643 223.43 51.4211 223.43 52.1587ZM231.256 55.1074C230.468 55.1074 229.827 54.8496 229.333 54.334C228.839 53.8148 228.592 53.1219 228.592 52.2554V52.0728C228.592 51.4963 228.701 50.9824 228.919 50.5312C229.141 50.0765 229.449 49.722 229.843 49.4678C230.241 49.21 230.67 49.0811 231.132 49.0811C231.888 49.0811 232.475 49.3299 232.894 49.8276C233.313 50.3254 233.522 51.0379 233.522 51.9653V52.3789H229.585C229.6 52.9518 229.766 53.4155 230.085 53.77C230.407 54.1209 230.815 54.2964 231.31 54.2964C231.66 54.2964 231.958 54.2248 232.201 54.0815C232.445 53.9383 232.658 53.7485 232.84 53.5122L233.447 53.9849C232.96 54.7332 232.23 55.1074 231.256 55.1074ZM231.132 49.8975C230.731 49.8975 230.395 50.0443 230.123 50.3379C229.85 50.6279 229.682 51.0361 229.618 51.5625H232.529V51.4873C232.5 50.9824 232.364 50.5921 232.121 50.3164C231.877 50.0371 231.548 49.8975 231.132 49.8975ZM239.737 54.2964C240.091 54.2964 240.401 54.189 240.666 53.9741C240.931 53.7593 241.078 53.4907 241.106 53.1685H242.046C242.028 53.5015 241.914 53.8184 241.703 54.1191C241.491 54.4199 241.209 54.6598 240.854 54.8389C240.503 55.0179 240.131 55.1074 239.737 55.1074C238.945 55.1074 238.315 54.8442 237.846 54.3179C237.381 53.7879 237.148 53.0646 237.148 52.1479V51.9814C237.148 51.4157 237.252 50.9126 237.459 50.4722C237.667 50.0317 237.964 49.6898 238.351 49.4463C238.741 49.2028 239.202 49.0811 239.731 49.0811C240.383 49.0811 240.924 49.2762 241.354 49.6665C241.787 50.0568 242.018 50.5635 242.046 51.1865H241.106C241.078 50.8105 240.935 50.5026 240.677 50.2627C240.423 50.0192 240.107 49.8975 239.731 49.8975C239.227 49.8975 238.834 50.0801 238.555 50.4453C238.279 50.807 238.142 51.3315 238.142 52.019V52.207C238.142 52.8766 238.279 53.3923 238.555 53.7539C238.831 54.1156 239.225 54.2964 239.737 54.2964ZM242.9 52.0405C242.9 51.4712 243.011 50.9591 243.233 50.5044C243.459 50.0496 243.771 49.6987 244.168 49.4517C244.569 49.2046 245.026 49.0811 245.538 49.0811C246.329 49.0811 246.968 49.355 247.455 49.9028C247.946 50.4507 248.191 51.1794 248.191 52.0889V52.1587C248.191 52.7244 248.082 53.2329 247.863 53.6841C247.648 54.1317 247.339 54.4808 246.934 54.7314C246.533 54.9821 246.071 55.1074 245.548 55.1074C244.761 55.1074 244.121 54.8335 243.631 54.2856C243.144 53.7378 242.9 53.0127 242.9 52.1104V52.0405ZM243.899 52.1587C243.899 52.8032 244.048 53.3206 244.345 53.7109C244.646 54.1012 245.047 54.2964 245.548 54.2964C246.053 54.2964 246.454 54.0994 246.751 53.7056C247.049 53.3081 247.197 52.7531 247.197 52.0405C247.197 51.4032 247.045 50.8875 246.741 50.4937C246.44 50.0962 246.039 49.8975 245.538 49.8975C245.047 49.8975 244.651 50.0926 244.351 50.4829C244.05 50.8732 243.899 51.4318 243.899 52.1587ZM250.517 55H249.523V46.75H250.517V55ZM251.849 52.0405C251.849 51.4712 251.96 50.9591 252.182 50.5044C252.407 50.0496 252.719 49.6987 253.116 49.4517C253.517 49.2046 253.974 49.0811 254.486 49.0811C255.277 49.0811 255.916 49.355 256.403 49.9028C256.894 50.4507 257.139 51.1794 257.139 52.0889V52.1587C257.139 52.7244 257.03 53.2329 256.812 53.6841C256.597 54.1317 256.287 54.4808 255.882 54.7314C255.481 54.9821 255.019 55.1074 254.497 55.1074C253.709 55.1074 253.07 54.8335 252.579 54.2856C252.092 53.7378 251.849 53.0127 251.849 52.1104V52.0405ZM252.848 52.1587C252.848 52.8032 252.996 53.3206 253.293 53.7109C253.594 54.1012 253.995 54.2964 254.497 54.2964C255.001 54.2964 255.403 54.0994 255.7 53.7056C255.997 53.3081 256.146 52.7531 256.146 52.0405C256.146 51.4032 255.993 50.8875 255.689 50.4937C255.388 50.0962 254.987 49.8975 254.486 49.8975C253.995 49.8975 253.6 50.0926 253.299 50.4829C252.998 50.8732 252.848 51.4318 252.848 52.1587ZM261.194 50.0801C261.044 50.055 260.881 50.0425 260.706 50.0425C260.054 50.0425 259.612 50.32 259.379 50.875V55H258.385V49.1885H259.352L259.368 49.8599C259.694 49.3407 260.156 49.0811 260.754 49.0811C260.947 49.0811 261.094 49.1061 261.194 49.1562V50.0801Z" fill="black"/>
<path d="M55.8687 0.831055H54.7261V4H54.2598V0.831055H53.1196V0.445312H55.8687V0.831055ZM56.7769 1.67822C56.9771 1.43245 57.2375 1.30957 57.5581 1.30957C58.1164 1.30957 58.3979 1.62451 58.4028 2.25439V4H57.9512V2.25195C57.9495 2.06152 57.9056 1.92074 57.8193 1.82959C57.7347 1.73844 57.6021 1.69287 57.4214 1.69287C57.2749 1.69287 57.1463 1.73193 57.0356 1.81006C56.925 1.88818 56.8387 1.99072 56.7769 2.11768V4H56.3252V0.25H56.7769V1.67822ZM60.1753 4.04883C59.8172 4.04883 59.5259 3.93164 59.3013 3.69727C59.0767 3.46126 58.9644 3.14632 58.9644 2.75244V2.66943C58.9644 2.40739 59.014 2.17383 59.1133 1.96875C59.2142 1.76204 59.3542 1.60091 59.5332 1.48535C59.7139 1.36816 59.9092 1.30957 60.1191 1.30957C60.4626 1.30957 60.7295 1.42269 60.9199 1.64893C61.1104 1.87516 61.2056 2.19906 61.2056 2.62061V2.80859H59.416C59.4225 3.06901 59.4982 3.27979 59.6431 3.44092C59.7896 3.60042 59.9751 3.68018 60.1997 3.68018C60.3592 3.68018 60.4943 3.64762 60.605 3.58252C60.7157 3.51742 60.8125 3.43115 60.8955 3.32373L61.1714 3.53857C60.95 3.87874 60.618 4.04883 60.1753 4.04883ZM60.1191 1.68066C59.9368 1.68066 59.7839 1.7474 59.6602 1.88086C59.5365 2.0127 59.46 2.19824 59.4307 2.4375H60.7539V2.40332C60.7409 2.17383 60.679 1.99642 60.5684 1.87109C60.4577 1.74414 60.3079 1.68066 60.1191 1.68066ZM62.1553 1.3584L62.1675 1.65137C62.3612 1.4235 62.6224 1.30957 62.9512 1.30957C63.3206 1.30957 63.5721 1.45117 63.7056 1.73438C63.7935 1.60742 63.9074 1.50488 64.0474 1.42676C64.189 1.34863 64.3558 1.30957 64.5479 1.30957C65.1273 1.30957 65.4219 1.61637 65.4316 2.22998V4H64.98V2.25684C64.98 2.06803 64.9368 1.92725 64.8506 1.83447C64.7643 1.74007 64.6195 1.69287 64.416 1.69287C64.2484 1.69287 64.1092 1.74333 63.9985 1.84424C63.8879 1.94352 63.8236 2.0778 63.8057 2.24707V4H63.3516V2.26904C63.3516 1.88493 63.1636 1.69287 62.7876 1.69287C62.4914 1.69287 62.2887 1.81901 62.1797 2.07129V4H61.728V1.3584H62.1553ZM67.2114 4.04883C66.8534 4.04883 66.562 3.93164 66.3374 3.69727C66.1128 3.46126 66.0005 3.14632 66.0005 2.75244V2.66943C66.0005 2.40739 66.0501 2.17383 66.1494 1.96875C66.2503 1.76204 66.3903 1.60091 66.5693 1.48535C66.75 1.36816 66.9453 1.30957 67.1553 1.30957C67.4987 1.30957 67.7656 1.42269 67.9561 1.64893C68.1465 1.87516 68.2417 2.19906 68.2417 2.62061V2.80859H66.4521C66.4587 3.06901 66.5343 3.27979 66.6792 3.44092C66.8257 3.60042 67.0112 3.68018 67.2358 3.68018C67.3953 3.68018 67.5304 3.64762 67.6411 3.58252C67.7518 3.51742 67.8486 3.43115 67.9316 3.32373L68.2075 3.53857C67.9862 3.87874 67.6541 4.04883 67.2114 4.04883ZM67.1553 1.68066C66.973 1.68066 66.82 1.7474 66.6963 1.88086C66.5726 2.0127 66.4961 2.19824 66.4668 2.4375H67.79V2.40332C67.777 2.17383 67.7152 1.99642 67.6045 1.87109C67.4938 1.74414 67.3441 1.68066 67.1553 1.68066ZM70.4341 1.3584L70.4487 1.69043C70.6506 1.43652 70.9142 1.30957 71.2397 1.30957C71.798 1.30957 72.0796 1.62451 72.0845 2.25439V4H71.6328V2.25195C71.6312 2.06152 71.5872 1.92074 71.501 1.82959C71.4163 1.73844 71.2837 1.69287 71.103 1.69287C70.9565 1.69287 70.828 1.73193 70.7173 1.81006C70.6066 1.88818 70.5203 1.99072 70.4585 2.11768V4H70.0068V1.3584H70.4341ZM74.3965 4C74.3704 3.94792 74.3493 3.85514 74.333 3.72168C74.123 3.93978 73.8724 4.04883 73.5811 4.04883C73.3206 4.04883 73.1066 3.97559 72.939 3.8291C72.7729 3.68099 72.6899 3.49382 72.6899 3.26758C72.6899 2.99251 72.7941 2.7793 73.0024 2.62793C73.2124 2.47493 73.507 2.39844 73.8862 2.39844H74.3257V2.19092C74.3257 2.03304 74.2785 1.90771 74.1841 1.81494C74.0897 1.72054 73.9505 1.67334 73.7666 1.67334C73.6055 1.67334 73.4704 1.71403 73.3613 1.79541C73.2523 1.87679 73.1978 1.97526 73.1978 2.09082H72.7437C72.7437 1.95898 72.79 1.83203 72.8828 1.70996C72.9772 1.58626 73.1042 1.48861 73.2637 1.41699C73.4248 1.34538 73.6014 1.30957 73.7935 1.30957C74.0978 1.30957 74.3363 1.38607 74.5088 1.53906C74.6813 1.69043 74.7708 1.89958 74.7773 2.1665V3.38232C74.7773 3.62484 74.8083 3.81771 74.8701 3.96094V4H74.3965ZM73.647 3.65576C73.7886 3.65576 73.9229 3.61914 74.0498 3.5459C74.1768 3.47266 74.2687 3.37744 74.3257 3.26025V2.71826H73.9717C73.4183 2.71826 73.1416 2.88021 73.1416 3.2041C73.1416 3.3457 73.1888 3.45638 73.2832 3.53613C73.3776 3.61589 73.4989 3.65576 73.647 3.65576ZM75.9102 1.3584L75.9224 1.65137C76.116 1.4235 76.3773 1.30957 76.7061 1.30957C77.0755 1.30957 77.327 1.45117 77.4604 1.73438C77.5483 1.60742 77.6623 1.50488 77.8022 1.42676C77.9438 1.34863 78.1107 1.30957 78.3027 1.30957C78.8822 1.30957 79.1768 1.61637 79.1865 2.22998V4H78.7349V2.25684C78.7349 2.06803 78.6917 1.92725 78.6055 1.83447C78.5192 1.74007 78.3743 1.69287 78.1709 1.69287C78.0033 1.69287 77.8641 1.74333 77.7534 1.84424C77.6427 1.94352 77.5785 2.0778 77.5605 2.24707V4H77.1064V2.26904C77.1064 1.88493 76.9185 1.69287 76.5425 1.69287C76.2463 1.69287 76.0436 1.81901 75.9346 2.07129V4H75.4829V1.3584H75.9102ZM80.9663 4.04883C80.6082 4.04883 80.3169 3.93164 80.0923 3.69727C79.8677 3.46126 79.7554 3.14632 79.7554 2.75244V2.66943C79.7554 2.40739 79.805 2.17383 79.9043 1.96875C80.0052 1.76204 80.1452 1.60091 80.3242 1.48535C80.5049 1.36816 80.7002 1.30957 80.9102 1.30957C81.2536 1.30957 81.5205 1.42269 81.7109 1.64893C81.9014 1.87516 81.9966 2.19906 81.9966 2.62061V2.80859H80.207C80.2135 3.06901 80.2892 3.27979 80.4341 3.44092C80.5806 3.60042 80.7661 3.68018 80.9907 3.68018C81.1502 3.68018 81.2853 3.64762 81.396 3.58252C81.5067 3.51742 81.6035 3.43115 81.6865 3.32373L81.9624 3.53857C81.741 3.87874 81.409 4.04883 80.9663 4.04883ZM80.9102 1.68066C80.7279 1.68066 80.5749 1.7474 80.4512 1.88086C80.3275 2.0127 80.251 2.19824 80.2217 2.4375H81.5449V2.40332C81.5319 2.17383 81.4701 1.99642 81.3594 1.87109C81.2487 1.74414 81.099 1.68066 80.9102 1.68066Z" fill="black"/>
<path d="M53.9077 16V8.17969H56.1152C56.7956 8.17969 57.3971 8.33008 57.9199 8.63086C58.4427 8.93164 58.8455 9.35954 59.1284 9.91455C59.4149 10.4696 59.5599 11.1069 59.5635 11.8267V12.3262C59.5635 13.0638 59.4202 13.7101 59.1338 14.2651C58.8509 14.8201 58.4445 15.2463 57.9146 15.5435C57.3882 15.8407 56.7741 15.9928 56.0723 16H53.9077ZM54.939 9.02832V15.1567H56.0239C56.8188 15.1567 57.4365 14.9097 57.877 14.4155C58.321 13.9214 58.543 13.2178 58.543 12.3047V11.8481C58.543 10.9601 58.3335 10.2708 57.9146 9.78027C57.4992 9.28613 56.9084 9.03548 56.1421 9.02832H54.939ZM64.5586 16C64.5013 15.8854 64.4548 15.6813 64.4189 15.3877C63.957 15.8675 63.4056 16.1074 62.7646 16.1074C62.1917 16.1074 61.7209 15.9463 61.3521 15.624C60.9868 15.2982 60.8042 14.8864 60.8042 14.3887C60.8042 13.7835 61.0334 13.3145 61.4917 12.9814C61.9536 12.6449 62.6017 12.4766 63.436 12.4766H64.4028V12.02C64.4028 11.6727 64.299 11.397 64.0913 11.1929C63.8836 10.9852 63.5775 10.8813 63.1729 10.8813C62.8184 10.8813 62.5212 10.9709 62.2812 11.1499C62.0413 11.3289 61.9214 11.5456 61.9214 11.7998H60.9224C60.9224 11.5098 61.0244 11.2305 61.2285 10.9619C61.4362 10.6898 61.7155 10.4749 62.0664 10.3174C62.4209 10.1598 62.8094 10.0811 63.2319 10.0811C63.9015 10.0811 64.4261 10.2493 64.8057 10.5859C65.1852 10.9189 65.3822 11.3791 65.3965 11.9663V14.6411C65.3965 15.1746 65.4645 15.599 65.6006 15.9141V16H64.5586ZM62.9097 15.2427C63.2212 15.2427 63.5166 15.1621 63.7959 15.001C64.0752 14.8398 64.2775 14.6304 64.4028 14.3726V13.1802H63.624C62.4066 13.1802 61.7979 13.5365 61.7979 14.249C61.7979 14.5605 61.9017 14.804 62.1094 14.9795C62.3171 15.1549 62.5838 15.2427 62.9097 15.2427ZM69.7632 11.0801C69.6128 11.055 69.4499 11.0425 69.2744 11.0425C68.6227 11.0425 68.1805 11.32 67.9478 11.875V16H66.9541V10.1885H67.9209L67.937 10.8599C68.2629 10.3407 68.7248 10.0811 69.3228 10.0811C69.5161 10.0811 69.6629 10.1061 69.7632 10.1562V11.0801ZM72.3037 13.3091L71.6807 13.959V16H70.687V7.75H71.6807V12.7397L72.2124 12.1006L74.0225 10.1885H75.231L72.9697 12.6162L75.4941 16H74.3286L72.3037 13.3091Z" fill="black"/>
<rect x="53.5" y="23.5" width="48" height="13" rx="1.5" fill="#6629C4" stroke="black"/>
<rect x="53.5" y="41.5" width="48" height="13" rx="1.5" fill="#1E7075" stroke="black"/>
<rect x="53.5" y="59.5" width="48" height="13" rx="1.5" fill="white" stroke="black"/>
<rect x="48.5" y="19.5" width="62" height="58" stroke="black"/>
<rect x="47" y="18" width="4" height="4" fill="black"/>
<rect x="47" y="75" width="4" height="4" fill="black"/>
<rect x="108" y="75" width="4" height="4" fill="black"/>
<rect x="108" y="18" width="4" height="4" fill="black"/>
<g filter="url(#filter0_d)">
<path d="M110 33.5758V20L119.697 29.697H115.818L117.758 34.9333L114.848 36L112.909 30.7636L110 33.5758Z" fill="black"/>
<path d="M110 33.5758V20L119.697 29.697H115.818L117.758 34.9333L114.848 36L112.909 30.7636L110 33.5758Z" stroke="white" stroke-width="1.5"/>
</g>
<rect y="-1" width="320" height="35" fill="url(#paint0_linear)"/>
</g>
<defs>
<filter id="filter0_d" x="107.25" y="18.1893" width="16.2576" height="22.7722" filterUnits="userSpaceOnUse" color-interpolation-filters="sRGB">
<feFlood flood-opacity="0" result="BackgroundImageFix"/>
<feColorMatrix in="SourceAlpha" type="matrix" values="0 0 0 0 0 0 0 0 0 0 0 0 0 0 0 0 0 0 127 0"/>
<feOffset dy="2"/>
<feGaussianBlur stdDeviation="1"/>
<feColorMatrix type="matrix" values="0 0 0 0 0 0 0 0 0 0 0 0 0 0 0 0 0 0 0.25 0"/>
<feBlend mode="normal" in2="BackgroundImageFix" result="effect1_dropShadow"/>
<feBlend mode="normal" in="SourceGraphic" in2="effect1_dropShadow" result="shape"/>
</filter>
<linearGradient id="paint0_linear" x1="160" y1="-1" x2="160" y2="34" gradientUnits="userSpaceOnUse">
<stop stop-color="#4992FF"/>
<stop offset="1" stop-color="#4992FF" stop-opacity="0"/>
</linearGradient>
<clipPath id="clip0">
<rect width="320" height="110" fill="white"/>
</clipPath>
</defs>
</svg>
