<svg fill="none" height="110" viewBox="0 0 320 110" width="320" xmlns="http://www.w3.org/2000/svg" xmlns:xlink="http://www.w3.org/1999/xlink"><filter id="a" color-interpolation-filters="sRGB" filterUnits="userSpaceOnUse" height="36" width="36" x="251" y="48"><feFlood flood-opacity="0" result="BackgroundImageFix"/><feBlend in="SourceGraphic" in2="BackgroundImageFix" mode="normal" result="shape"/><feGaussianBlur result="effect1_foregroundBlur" stdDeviation="4"/></filter><clipPath id="b"><path d="m0 0h320v110h-320z"/></clipPath><g clip-path="url(#b)"><path d="m0 0h320v110h-320z" fill="#0fa958"/><path d="m181.497 52.0499c.028-.2747-.172-.5198-.447-.5474l-4.478-.4493c-.274-.0276-.519.1728-.547.4475-.028.2748.173.5199.448.5475l3.98.3994-.4 3.98c-.027.2747.173.5198.448.5474s.52-.1728.547-.4476zm-42.806.3434c5.772 4.53 14.237 6.3115 22.305 6.0882 8.062-.2232 15.866-2.4522 20.32-6.0944l-.632-.7742c-4.217 3.4471-11.768 5.649-19.716 5.8689-7.941.2198-16.14-1.5434-21.659-5.8751z" fill="#000"/><rect height="43" rx="5.5" stroke="#000" width="89" x="44.5" y="27.5"/><path d="m72.978 43.959h-3.2763l-.7359 2.041h-1.0634l2.9863-7.8203h.9023l2.9917 7.8203h-1.0581zm-2.9648-.8486h2.6587l-1.332-3.6578zm5.4248-.0645c0-.8916.2113-1.6077.6338-2.1484.4225-.5443.9757-.8164 1.6597-.8164.6803 0 1.2192.2327 1.6167.6982v-3.0293h.9936v8.25h-.9131l-.0483-.623c-.3975.4869-.9507.7304-1.6597.7304-.6732 0-1.2228-.2757-1.6489-.8271-.4225-.5515-.6338-1.2712-.6338-2.1592zm.9937.1128c0 .6588.136 1.1745.4082 1.5469.2721.3724.6481.5586 1.1279.5586.6302 0 1.0903-.2829 1.3804-.8487v-2.6694c-.2972-.5479-.7538-.8218-1.3697-.8218-.4869 0-.8665.188-1.1386.564-.2722.376-.4082.9328-.4082 1.6704zm5.2153-.1128c0-.8916.2113-1.6077.6338-2.1484.4225-.5443.9757-.8164 1.6596-.8164.6804 0 1.2193.2327 1.6167.6982v-3.0293h.9937v8.25h-.9131l-.0483-.623c-.3975.4869-.9507.7304-1.6597.7304-.6732 0-1.2228-.2757-1.6489-.8271-.4225-.5515-.6338-1.2712-.6338-2.1592zm.9936.1128c0 .6588.1361 1.1745.4082 1.5469.2722.3724.6482.5586 1.128.5586.6302 0 1.0903-.2829 1.3803-.8487v-2.6694c-.2972-.5479-.7537-.8218-1.3696-.8218-.487 0-.8665.188-1.1387.564-.2721.376-.4082.9328-.4082 1.6704zm9.1255-2.9702.0323.7304c.444-.5585 1.024-.8378 1.7402-.8378 1.2282 0 1.8476.6928 1.8584 2.0786v3.8403h-.9937v-3.8457c-.0035-.4189-.1002-.7287-.29-.9292-.1862-.2005-.478-.3008-.8755-.3008-.3223 0-.6051.086-.8486.2578-.2435.1719-.4333.3975-.5694.6768v4.1411h-.9936v-5.8115zm7.541 5.9189c-.7877 0-1.4287-.2578-1.9228-.7734-.4941-.5192-.7412-1.2121-.7412-2.0786v-.1826c0-.5765.1092-1.0904.3276-1.5416.222-.4547.53-.8092.9238-1.0634.3975-.2578.8272-.3867 1.2891-.3867.7555 0 1.3424.2488 1.7614.7465.419.4978.629 1.2103.629 2.1377v.4136h-3.9373c.0144.5729.1809 1.0366.4995 1.3911.3223.3509.7305.5264 1.2247.5264.3509 0 .6481-.0716.8911-.2149.244-.1432.457-.333.64-.5693l.607.4727c-.487.7483-1.218 1.1225-2.1919 1.1225zm-.1235-5.2099c-.401 0-.7376.1468-1.0098.4404-.2721.29-.4404.6982-.5048 1.2246h2.911v-.0752c-.029-.5049-.165-.8952-.408-1.1709-.2436-.2793-.573-.4189-.9884-.4189zm8.6904 3.7329 1.117-4.4419h.994l-1.692 5.8115h-.806l-1.412-4.4043-1.375 4.4043h-.806l-1.686-5.8115h.988l1.144 4.3506 1.353-4.3506h.801zm-32.2588 7.1508v1.4073h1.085v.768h-1.085v3.604c0 .2328.0484.4083.1451.5264.0966.1146.2614.1719.4941.1719.1146 0 .2721-.0215.4727-.0645v.8057c-.2614.0716-.5157.1074-.7627.1074-.444 0-.7788-.1343-1.0044-.4028-.2256-.2686-.3384-.6499-.3384-1.1441v-3.604h-1.0581v-.768h1.0581v-1.4073zm3.2442 2.1109c.4404-.5407 1.0133-.811 1.7187-.811 1.2282 0 1.8477.6928 1.8584 2.0786v3.8403h-.9936v-3.8457c-.0036-.4189-.1003-.7287-.2901-.9292-.1862-.2005-.478-.3008-.8754-.3008-.3223 0-.6052.086-.8487.2578-.2435.1719-.4332.3975-.5693.6768v4.1411h-.9937v-8.25h.9937zm7.4766 5.2153c-.7878 0-1.4288-.2578-1.9229-.7734-.4941-.5192-.7412-1.2121-.7412-2.0786v-.1826c0-.5765.1092-1.0904.3276-1.5416.222-.4547.53-.8092.9239-1.0634.3974-.2578.8271-.3867 1.289-.3867.7556 0 1.3428.2488 1.7617.7465.419.4978.6285 1.2103.6285 2.1377v.4136h-3.9371c.0144.5729.1809 1.0366.4996 1.3911.3222.3509.7304.5264 1.2246.5264.3509 0 .6481-.0716.8916-.2149.2435-.1432.4565-.333.6391-.5693l.607.4727c-.487.7483-1.2175 1.1225-2.1914 1.1225zm-.1236-5.2099c-.401 0-.7376.1468-1.0097.4404-.2722.29-.4405.6982-.5049 1.2246h2.9111v-.0752c-.0286-.5049-.1647-.8952-.4082-1.1709-.2435-.2793-.5729-.4189-.9883-.4189zm4.4795-.709.0269.6445c.4261-.5013 1.0008-.7519 1.7241-.7519.8128 0 1.366.3115 1.6597.9345.1933-.2793.444-.5049.7519-.6767.3115-.1719.6786-.2578 1.1011-.2578 1.2747 0 1.9228.6749 1.9443 2.0249v3.894h-.9936v-3.835c0-.4153-.0949-.7251-.2847-.9292-.1898-.2076-.5085-.3115-.9561-.3115-.3688 0-.6749.111-.9184.333-.2435.2184-.3849.5139-.4243.8863v3.8564h-.9991v-3.8081c0-.8451-.4135-1.2676-1.2407-1.2676-.6517 0-1.0975.2775-1.3374.8325v4.2432h-.9936v-5.8115zm11.1231 5.9189c-.787 0-1.428-.2578-1.9224-.7734-.4941-.5192-.7412-1.2121-.7412-2.0786v-.1826c0-.5765.1092-1.0904.3276-1.5416.222-.4547.53-.8092.924-1.0634.397-.2578.827-.3867 1.289-.3867.755 0 1.343.2488 1.762.7465.419.4978.628 1.2103.628 2.1377v.4136h-3.937c.014.5729.181 1.0366.5 1.3911.322.3509.73.5264 1.224.5264.351 0 .648-.0716.892-.2149.243-.1432.456-.333.639-.5693l.607.4727c-.487.7483-1.218 1.1225-2.192 1.1225zm-.123-5.2099c-.401 0-.738.1468-1.01.4404-.272.29-.44.6982-.505 1.2246h2.911v-.0752c-.028-.5049-.164-.8952-.408-1.1709-.243-.2793-.573-.4189-.988-.4189z" fill="#000"/><rect fill="#fff" height="107" rx="1.5" stroke="#000" width="89" x="186.5" y="10.5"/><path d="m187 20h88v29h-88z" fill="#0fa958"/><rect fill="#c4c4c4" height="5" rx="2.5" width="36" x="192" y="54"/><path d="m187 63h88v16h-88z" fill="#4992ff" opacity=".1"/><rect fill="#c4c4c4" height="4" rx="2" width="24" x="192" y="67"/><rect fill="#c4c4c4" height="2" rx="1" width="12" x="192" y="72"/><rect fill="#4992ff" height="5" rx="2.5" width="20" x="250" y="54"/><g filter="url(#a)" opacity=".1"><circle cx="269" cy="66" fill="#000" r="10"/></g><path d="m265 71.5758v-13.5758l9.697 9.697h-3.879l1.94 5.2363-2.91 1.0667-1.939-5.2364z" fill="#000" stroke="#fff" stroke-width="1.5"/></g></svg>