<svg fill="none" height="110" viewBox="0 0 320 110" width="320" xmlns="http://www.w3.org/2000/svg" xmlns:xlink="http://www.w3.org/1999/xlink"><linearGradient id="a" gradientUnits="userSpaceOnUse" x1="160" x2="160" y1="-1" y2="34"><stop offset="0" stop-color="#4992ff"/><stop offset="1" stop-color="#4992ff" stop-opacity="0"/></linearGradient><clipPath id="b"><path d="m0 0h320v110h-320z"/></clipPath><g clip-path="url(#b)"><path d="m0 0h320v110h-320z" fill="#4992ff"/><path d="m192.99 46.6008c.055-.2704-.119-.5348-.389-.5905l-4.408-.9074c-.27-.0557-.535.1184-.59.3889-.056.2704.118.5348.389.5905l3.917.8066-.806 3.9179c-.056.2704.118.5348.389.5905.27.0557.535-.1184.59-.3889zm-64.717.3182c10.525-6.8535 21.291-3.5783 32.201-.1297 10.825 3.4216 21.821 7.0301 32.301.1283l-.55-.8352c-10.02 6.5982-20.524 3.2067-31.449-.2466-10.84-3.4265-22.074-6.9013-33.049.2452z" fill="#000"/><path d="m133.533 57.7168.025.5859c.387-.4557.909-.6836 1.567-.6836.739 0 1.242.2832 1.509.8497.176-.254.403-.459.683-.6153.284-.1562.617-.2344 1.001-.2344 1.159 0 1.748.6136 1.768 1.8409v3.54h-.903v-3.4863c0-.3776-.087-.6592-.259-.8448-.173-.1888-.462-.2832-.869-.2832-.336 0-.614.101-.835.3028-.222.1985-.35.4671-.386.8056v3.5059h-.908v-3.4619c0-.7682-.376-1.1524-1.128-1.1524-.593 0-.998.2523-1.216.7569v3.8574h-.903v-5.2832zm11.182 5.2832c-.052-.1042-.095-.2897-.127-.5566-.42.4362-.921.6543-1.504.6543-.521 0-.949-.1465-1.284-.4395-.332-.2962-.498-.6706-.498-1.123 0-.5502.208-.9766.625-1.2793.42-.306 1.009-.459 1.767-.459h.879v-.4151c0-.3157-.094-.5664-.283-.7519-.189-.1888-.467-.2832-.835-.2832-.322 0-.592.0814-.81.2441-.219.1628-.328.3597-.328.5908h-.908c0-.2636.093-.5175.279-.7617.188-.2474.442-.4427.761-.5859.322-.1432.676-.2149 1.06-.2149.609 0 1.085.153 1.43.459.346.3028.525.7211.538 1.2549v2.4316c0 .4851.061.8708.185 1.1573v.0781zm-1.499-.6885c.283 0 .552-.0732.805-.2197.254-.1465.438-.3369.552-.5713v-1.084h-.708c-1.107 0-1.66.3239-1.66.9717 0 .2832.094.5046.283.6641s.432.2392.728.2392zm5.151-1.7578-.566.5908v1.8555h-.904v-7.5h.904v4.5361l.483-.581 1.646-1.7383h1.098l-2.055 2.207 2.295 3.0762h-1.06zm5.689 2.544c-.716 0-1.299-.2344-1.748-.7032-.45-.472-.674-1.1019-.674-1.8896v-.166c0-.5241.099-.9912.298-1.4014.201-.4134.481-.7357.839-.9668.362-.2344.752-.3516 1.172-.3516.687 0 1.221.2263 1.602.6788.381.4524.571 1.1002.571 1.9433v.376h-3.579c.013.5208.164.9424.454 1.2646.293.319.664.4786 1.113.4786.32 0 .59-.0652.811-.1954s.415-.3027.581-.5175l.552.4296c-.443.6804-1.107 1.0206-1.992 1.0206zm-.113-4.7364c-.364 0-.67.1335-.918.4004-.247.2637-.4.6348-.459 1.1133h2.647v-.0684c-.026-.4589-.15-.8138-.371-1.0644-.222-.2539-.521-.3809-.899-.3809zm8.965 4.6387c-.052-.1042-.094-.2897-.127-.5566-.42.4362-.921.6543-1.504.6543-.52 0-.949-.1465-1.284-.4395-.332-.2962-.498-.6706-.498-1.123 0-.5502.208-.9766.625-1.2793.42-.306 1.009-.459 1.768-.459h.879v-.4151c0-.3157-.095-.5664-.284-.7519-.188-.1888-.467-.2832-.835-.2832-.322 0-.592.0814-.81.2441-.218.1628-.327.3597-.327.5908h-.908c0-.2636.092-.5175.278-.7617.189-.2474.443-.4427.762-.5859.322-.1432.675-.2149 1.059-.2149.609 0 1.086.153 1.431.459.345.3028.524.7211.537 1.2549v2.4316c0 .4851.062.8708.185 1.1573v.0781zm-1.499-.6885c.283 0 .552-.0732.806-.2197s.438-.3369.552-.5713v-1.084h-.708c-1.107 0-1.661.3239-1.661.9717 0 .2832.095.5046.284.6641.188.1595.431.2392.727.2392zm8.277.0489c.322 0 .603-.0977.844-.293s.375-.4395.401-.7324h.854c-.016.3027-.12.5908-.312.8642-.192.2735-.45.4916-.772.6543-.319.1628-.657.2442-1.015.2442-.72 0-1.293-.2393-1.719-.7178-.423-.4818-.635-1.1393-.635-1.9727v-.1513c0-.5144.094-.9717.283-1.3721s.459-.7113.811-.9326c.355-.2214.773-.3321 1.255-.3321.592 0 1.084.1774 1.474.5323.394.3548.604.8154.63 1.3818h-.854c-.026-.3418-.157-.6217-.391-.8398-.231-.2214-.518-.3321-.859-.3321-.459 0-.816.166-1.07.4981-.25.3288-.376.8056-.376 1.4306v.1709c0 .6088.126 1.0775.376 1.4063.251.3288.609.4932 1.075.4932zm2.876-2.0508c0-.5176.1-.9831.302-1.3965.205-.4134.489-.7324.85-.957.364-.2247.779-.337 1.245-.337.719 0 1.3.2491 1.743.7471.446.4981.669 1.1605.669 1.9873v.0635c0 .5143-.099.9766-.298 1.3867-.195.4069-.477.7243-.844.9522-.365.2278-.785.3418-1.26.3418-.716 0-1.297-.2491-1.743-.7471-.443-.4981-.664-1.1572-.664-1.9776zm.908.1074c0 .5859.135 1.0563.405 1.4111.273.3548.638.5323 1.094.5323.459 0 .823-.1791 1.093-.5372.271-.3613.406-.8658.406-1.5136 0-.5795-.139-1.0482-.415-1.4063-.274-.3613-.638-.542-1.094-.542-.446 0-.806.1774-1.079.5323-.274.3548-.41.8626-.41 1.5234zm9.497 0c0 .804-.184 1.4518-.552 1.9434-.368.4915-.866.7373-1.494.7373-.641 0-1.146-.2035-1.514-.6104v2.5439h-.903v-7.3144h.825l.044.5859c.368-.4557.879-.6836 1.533-.6836.635 0 1.136.2393 1.504.7178.371.4785.557 1.1442.557 1.9971zm-.904-.1025c0-.5957-.126-1.0661-.38-1.4112-.254-.345-.603-.5176-1.045-.5176-.547 0-.957.2426-1.231.7276v2.5244c.27.4818.684.7227 1.24.7227.433 0 .777-.1709 1.031-.5127.257-.3451.385-.8562.385-1.5332zm3.726 1.3623 1.231-3.96h.966l-2.124 6.0986c-.328.8789-.851 1.3184-1.567 1.3184l-.171-.0147-.337-.0634v-.7325l.244.0196c.306 0 .544-.0619.713-.1856.173-.1237.314-.3499.425-.6787l.2-.5371-1.885-5.2246h.987z" fill="#000"/><path d="m0-1h320v35h-320z" fill="url(#a)"/><path d="m71.8687 7.83105h-1.1426v3.16895h-.4663v-3.16895h-1.1402v-.38574h2.7491zm.9082.84717c.2002-.24577.4606-.36865.7812-.36865.5583 0 .8398.31494.8447.94482v1.74561h-.4516v-1.74805c-.0017-.19043-.0456-.33121-.1319-.42236-.0846-.09115-.2172-.13672-.3979-.13672-.1465 0-.2751.03906-.3858.11719-.1106.07812-.1969.18066-.2587.30762v1.88232h-.4517v-3.75h.4517zm3.3984 2.37058c-.3581 0-.6494-.1172-.874-.3515-.2246-.236-.3369-.551-.3369-.94486v-.08301c0-.26204.0496-.4956.1489-.70068.1009-.20671.2409-.36784.4199-.4834.1807-.11719.376-.17578.5859-.17578.3435 0 .6104.11312.8008.33936.1905.22623.2857.55013.2857.97168v.18798h-1.7896c.0065.26041.0822.47121.2271.63231.1465.1595.332.2393.5566.2393.1595 0 .2946-.0326.4053-.0977s.2075-.1513.2905-.2588l.2759.2149c-.2214.3401-.5534.5102-.9961.5102zm-.0562-2.36814c-.1823 0-.3352.06674-.4589.2002-.1237.13184-.2002.31738-.2295.55664h1.3232v-.03418c-.013-.22949-.0749-.4069-.1855-.53223-.1107-.12695-.2605-.19043-.4493-.19043zm2.0362-.32226.0122.29297c.1937-.22787.4549-.3418.7837-.3418.3694 0 .6209.1416.7544.42481.0879-.12696.2018-.2295.3418-.30762.1416-.07813.3084-.11719.5005-.11719.5794 0 .874.3068.8837.92041v1.77002h-.4516v-1.74316c0-.18881-.0432-.32959-.1294-.42237-.0863-.0944-.2311-.1416-.4346-.1416-.1676 0-.3068.05046-.4175.15137-.1106.09928-.1749.23356-.1928.40283v1.75293h-.4541v-1.73096c0-.38411-.188-.57617-.564-.57617-.2962 0-.4989.12614-.6079.37842v1.92871h-.4517v-2.6416zm5.0561 2.6904c-.358 0-.6494-.1172-.874-.3515-.2246-.236-.3369-.551-.3369-.94486v-.08301c0-.26204.0496-.4956.1489-.70068.1009-.20671.2409-.36784.4199-.4834.1807-.11719.376-.17578.586-.17578.3434 0 .6103.11312.8008.33936.1904.22623.2856.55013.2856.97168v.18798h-1.7896c.0066.26041.0822.47121.2271.63231.1465.1595.332.2393.5566.2393.1595 0 .2946-.0326.4053-.0977s.2075-.1513.2905-.2588l.2759.2149c-.2213.3401-.5534.5102-.9961.5102zm-.0561-2.36814c-.1823 0-.3353.06674-.459.2002-.1237.13184-.2002.31738-.2295.55664h1.3232v-.03418c-.013-.22949-.0748-.4069-.1855-.53223-.1107-.12695-.2604-.19043-.4492-.19043zm3.2788-.32226.0146.33203c.2019-.25391.4655-.38086.791-.38086.5583 0 .8399.31494.8448.94482v1.74561h-.4517v-1.74805c-.0016-.19043-.0456-.33121-.1318-.42236-.0847-.09115-.2173-.13672-.398-.13672-.1465 0-.275.03906-.3857.11719-.1107.07812-.197.18066-.2588.30762v1.88232h-.4517v-2.6416zm3.9624 2.6416c-.0261-.0521-.0472-.1449-.0635-.2783-.21.2181-.4606.3271-.7519.3271-.2605 0-.4745-.0732-.6421-.2197-.1661-.1481-.2491-.3353-.2491-.5615 0-.27509.1042-.4883.3125-.63967.21-.153.5046-.22949.8838-.22949h.4395v-.20752c0-.15788-.0472-.28321-.1416-.37598-.0944-.0944-.2336-.1416-.4175-.1416-.1611 0-.2962.04069-.4053.12207-.109.08138-.1635.17985-.1635.29541h-.4541c0-.13184.0463-.25879.1391-.38086.0944-.1237.2214-.22135.3809-.29297.1611-.07161.3377-.10742.5298-.10742.3043 0 .5428.0765.7153.22949.1725.15137.262.36052.2685.62744v1.2158c0 .2425.031.4354.0928.5786v.0391zm-.7495-.3442c.1416 0 .2759-.0367.4028-.1099.127-.0732.2189-.1685.2759-.2856v-.54204h-.354c-.5534 0-.8301.16195-.8301.48584 0 .1416.0472.2523.1416.332.0944.0798.2157.1197.3638.1197zm2.2632-2.2974.0122.29297c.1936-.22787.4549-.3418.7837-.3418.3694 0 .6209.1416.7543.42481.0879-.12696.2019-.2295.3418-.30762.1416-.07813.3085-.11719.5005-.11719.5795 0 .8741.3068.8838.92041v1.77002h-.4516v-1.74316c0-.18881-.0432-.32959-.1294-.42237-.0863-.0944-.2312-.1416-.4346-.1416-.1676 0-.3068.05046-.4175.15137-.1107.09928-.1749.23356-.1929.40283v1.75293h-.4541v-1.73096c0-.38411-.1879-.57617-.5639-.57617-.2962 0-.4989.12614-.6079.37842v1.92871h-.4517v-2.6416zm5.0561 2.6904c-.3581 0-.6494-.1172-.874-.3515-.2246-.236-.3369-.551-.3369-.94486v-.08301c0-.26204.0496-.4956.1489-.70068.1009-.20671.2409-.36784.4199-.4834.1807-.11719.376-.17578.586-.17578.3434 0 .6103.11312.8007.33936.1905.22623.2857.55013.2857.97168v.18798h-1.7896c.0065.26041.0822.47121.2271.63231.1465.1595.332.2393.5566.2393.1595 0 .2946-.0326.4053-.0977s.2075-.1513.2905-.2588l.2759.2149c-.2214.3401-.5534.5102-.9961.5102zm-.0561-2.36814c-.1823 0-.3353.06674-.459.2002-.1237.13184-.2002.31738-.2295.55664h1.3232v-.03418c-.013-.22949-.0748-.4069-.1855-.53223-.1107-.12695-.2604-.19043-.4492-.19043z" fill="#000"/><path d="m69.9077 23v-7.8203h2.2075c.6804 0 1.2819.1504 1.8047.4512.5228.3007.9256.7286 1.2085 1.2837.2865.555.4315 1.1923.4351 1.9121v.4995c0 .7376-.1433 1.3839-.4297 1.9389-.2829.555-.6893.9812-1.2192 1.2784-.5264.2972-1.1405.4493-1.8423.4565zm1.0313-6.9717v6.1284h1.0849c.7949 0 1.4126-.247 1.8531-.7412.444-.4941.666-1.1977.666-2.1108v-.4566c0-.888-.2095-1.5773-.6284-2.0678-.4154-.4942-1.0062-.7448-1.7725-.752zm8.4433 7.0791c-.7877 0-1.4287-.2578-1.9228-.7734-.4942-.5192-.7412-1.2121-.7412-2.0786v-.1826c0-.5765.1092-1.0904.3276-1.5416.222-.4547.5299-.8092.9238-1.0634.3975-.2578.8272-.3867 1.2891-.3867.7555 0 1.3428.2488 1.7617.7465.419.4978.6284 1.2103.6284 2.1377v.4136h-3.937c.0143.5729.1808 1.0366.4995 1.3911.3223.3509.7305.5264 1.2246.5264.3509 0 .6481-.0716.8916-.2149.2435-.1432.4566-.333.6392-.5693l.6069.4727c-.4869.7483-1.2174 1.1225-2.1914 1.1225zm-.1235-5.2099c-.4011 0-.7376.1468-1.0098.4404-.2721.29-.4404.6982-.5049 1.2246h2.9112v-.0752c-.0287-.5049-.1647-.8952-.4082-1.1709-.2435-.2793-.5729-.4189-.9883-.4189zm4.0337 5.1025v-5.0435h-.9185v-.768h.9185v-.5962c0-.6231.1665-1.1047.4995-1.4448.333-.3402.8039-.5103 1.4126-.5103.2292 0 .4565.0304.6821.0913l-.0537.8057c-.1683-.0322-.3473-.0484-.5371-.0484-.3223 0-.5711.0949-.7466.2847-.1754.1862-.2632.4548-.2632.8057v.6123h1.2408v.768h-1.2408v5.0435zm6.9233 0c-.0573-.1146-.1038-.3187-.1396-.6123-.4619.4798-1.0134.7197-1.6543.7197-.5729 0-1.0438-.1611-1.4126-.4834-.3653-.3258-.5479-.7376-.5479-1.2353 0-.6052.2292-1.0742.6875-1.4073.4619-.3365 1.1101-.5048 1.9444-.5048h.9668v-.4566c0-.3473-.1039-.623-.3116-.8271-.2076-.2077-.5138-.3116-.9184-.3116-.3545 0-.6517.0896-.8916.2686s-.3599.3957-.3599.6499h-.999c0-.29.102-.5693.3061-.8379.2077-.2721.487-.487.8379-.6445.3545-.1576.743-.2363 1.1656-.2363.6696 0 1.1941.1682 1.5737.5048.3795.333.5765.7932.5908 1.3804v2.6748c0 .5335.068.9579.2041 1.273v.0859zm-1.6489-.7573c.3115 0 .6069-.0806.8862-.2417.2793-.1612.4816-.3706.607-.6284v-1.1924h-.7789c-1.2174 0-1.8261.3563-1.8261 1.0688 0 .3115.1038.555.3115.7305.2077.1754.4744.2632.8003.2632zm7.6323.1826c-.3867.4547-.9542.6821-1.7026.6821-.6195 0-1.0921-.179-1.418-.5371-.3223-.3616-.4852-.8952-.4888-1.6006v-3.7812h.9937v3.7544c0 .8808.3581 1.3213 1.0742 1.3213.7591 0 1.264-.2829 1.5147-.8487v-4.227h.9936v5.8115h-.9453zm3.5611.5747h-.9937v-8.25h.9937zm2.9437-7.2188v1.4073h1.085v.768h-1.085v3.604c0 .2328.048.4083.145.5264.096.1146.261.1719.494.1719.114 0 .272-.0215.472-.0645v.8057c-.261.0716-.515.1074-.762.1074-.444 0-.779-.1343-1.005-.4028-.225-.2686-.338-.6499-.338-1.1441v-3.604h-1.058v-.768h1.058v-1.4073z" fill="#000"/><g stroke="#000"><rect fill="#d6c0f8" height="13" rx="1.5" width="48" x="69.5" y="30.5"/><rect fill="#0fa958" height="13" rx="1.5" width="48" x="69.5" y="48.5"/><rect fill="#f4d150" height="13" rx="1.5" width="48" x="69.5" y="66.5"/></g><path d="m204.869 7.83105h-1.143v3.16895h-.466v-3.16895h-1.14v-.38574h2.749zm.908.84717c.2-.24577.46-.36865.781-.36865.558 0 .84.31494.845.94482v1.74561h-.452v-1.74805c-.001-.19043-.045-.33121-.132-.42236-.084-.09115-.217-.13672-.398-.13672-.146 0-.275.03906-.385.11719-.111.07812-.197.18066-.259.30762v1.88232h-.452v-3.75h.452zm3.398 2.37058c-.358 0-.649-.1172-.874-.3515-.224-.236-.337-.551-.337-.94486v-.08301c0-.26204.05-.4956.149-.70068.101-.20671.241-.36784.42-.4834.181-.11719.376-.17578.586-.17578.344 0 .61.11312.801.33936.19.22623.286.55013.286.97168v.18798h-1.79c.007.26041.082.47121.227.63231.147.1595.332.2393.557.2393.159 0 .294-.0326.405-.0977s.207-.1513.291-.2588l.275.2149c-.221.3401-.553.5102-.996.5102zm-.056-2.36814c-.182 0-.335.06674-.459.2002-.124.13184-.2.31738-.229.55664h1.323v-.03418c-.013-.22949-.075-.4069-.186-.53223-.11-.12695-.26-.19043-.449-.19043zm2.036-.32226.012.29297c.194-.22787.455-.3418.784-.3418.37 0 .621.1416.755.42481.087-.12696.201-.2295.341-.30762.142-.07813.309-.11719.501-.11719.579 0 .874.3068.884.92041v1.77002h-.452v-1.74316c0-.18881-.043-.32959-.129-.42237-.087-.0944-.232-.1416-.435-.1416-.168 0-.307.05046-.417.15137-.111.09928-.175.23356-.193.40283v1.75293h-.454v-1.73096c0-.38411-.188-.57617-.564-.57617-.297 0-.499.12614-.608.37842v1.92871h-.452v-2.6416zm5.056 2.6904c-.358 0-.649-.1172-.874-.3515-.224-.236-.337-.551-.337-.94486v-.08301c0-.26204.05-.4956.149-.70068.101-.20671.241-.36784.42-.4834.181-.11719.376-.17578.586-.17578.344 0 .611.11312.801.33936.19.22623.286.55013.286.97168v.18798h-1.79c.007.26041.082.47121.227.63231.147.1595.332.2393.557.2393.159 0 .294-.0326.405-.0977s.208-.1513.291-.2588l.276.2149c-.222.3401-.554.5102-.997.5102zm-.056-2.36814c-.182 0-.335.06674-.459.2002-.123.13184-.2.31738-.229.55664h1.323v-.03418c-.013-.22949-.075-.4069-.186-.53223-.11-.12695-.26-.19043-.449-.19043zm3.279-.32226.015.33203c.202-.25391.465-.38086.791-.38086.558 0 .84.31494.844.94482v1.74561h-.451v-1.74805c-.002-.19043-.046-.33121-.132-.42236-.085-.09115-.217-.13672-.398-.13672-.146 0-.275.03906-.386.11719-.11.07812-.197.18066-.259.30762v1.88232h-.451v-2.6416zm3.962 2.6416c-.026-.0521-.047-.1449-.063-.2783-.21.2181-.461.3271-.752.3271-.26 0-.474-.0732-.642-.2197-.166-.1481-.249-.3353-.249-.5615 0-.27509.104-.4883.312-.63967.21-.153.505-.22949.884-.22949h.44v-.20752c0-.15788-.048-.28321-.142-.37598-.094-.0944-.233-.1416-.417-.1416-.162 0-.297.04069-.406.12207s-.163.17985-.163.29541h-.454c0-.13184.046-.25879.139-.38086.094-.1237.221-.22135.381-.29297.161-.07161.337-.10742.529-.10742.305 0 .543.0765.716.22949.172.15137.262.36052.268.62744v1.2158c0 .2425.031.4354.093.5786v.0391zm-.749-.3442c.142 0 .276-.0367.403-.1099s.219-.1685.276-.2856v-.54204h-.354c-.554 0-.83.16195-.83.48584 0 .1416.047.2523.141.332.095.0798.216.1197.364.1197zm2.263-2.2974.012.29297c.194-.22787.455-.3418.784-.3418.37 0 .621.1416.754.42481.088-.12696.202-.2295.342-.30762.142-.07813.309-.11719.501-.11719.579 0 .874.3068.884.92041v1.77002h-.452v-1.74316c0-.18881-.043-.32959-.13-.42237-.086-.0944-.231-.1416-.434-.1416-.168 0-.307.05046-.418.15137-.11.09928-.175.23356-.192.40283v1.75293h-.455v-1.73096c0-.38411-.188-.57617-.564-.57617-.296 0-.498.12614-.607.37842v1.92871h-.452v-2.6416zm5.056 2.6904c-.358 0-.649-.1172-.874-.3515-.224-.236-.337-.551-.337-.94486v-.08301c0-.26204.05-.4956.149-.70068.101-.20671.241-.36784.42-.4834.181-.11719.376-.17578.586-.17578.344 0 .611.11312.801.33936.19.22623.286.55013.286.97168v.18798h-1.79c.007.26041.082.47121.227.63231.147.1595.332.2393.557.2393.159 0 .294-.0326.405-.0977s.208-.1513.291-.2588l.275.2149c-.221.3401-.553.5102-.996.5102zm-.056-2.36814c-.182 0-.335.06674-.459.2002-.124.13184-.2.31738-.229.55664h1.323v-.03418c-.013-.22949-.075-.4069-.186-.53223-.11-.12695-.26-.19043-.449-.19043z" fill="#000"/><path d="m202.908 23v-7.8203h2.207c.681 0 1.282.1504 1.805.4512.523.3007.926.7286 1.208 1.2837.287.555.432 1.1923.435 1.9121v.4995c0 .7376-.143 1.3839-.429 1.9389-.283.555-.69.9812-1.219 1.2784-.527.2972-1.141.4493-1.843.4565zm1.031-6.9717v6.1284h1.085c.795 0 1.413-.247 1.853-.7412.444-.4941.666-1.1977.666-2.1108v-.4566c0-.888-.21-1.5773-.628-2.0678-.416-.4942-1.007-.7448-1.773-.752zm9.62 6.9717c-.058-.1146-.104-.3187-.14-.6123-.462.4798-1.013.7197-1.654.7197-.573 0-1.044-.1611-1.413-.4834-.365-.3258-.548-.7376-.548-1.2353 0-.6052.229-1.0742.688-1.4073.462-.3365 1.11-.5048 1.944-.5048h.967v-.4566c0-.3473-.104-.623-.312-.8271-.207-.2077-.514-.3116-.918-.3116-.355 0-.652.0896-.892.2686s-.36.3957-.36.6499h-.999c0-.29.102-.5693.307-.8379.207-.2721.486-.487.837-.6445.355-.1576.743-.2363 1.166-.2363.67 0 1.194.1682 1.574.5048.379.333.576.7932.59 1.3804v2.6748c0 .5335.069.9579.205 1.273v.0859zm-1.649-.7573c.311 0 .607-.0806.886-.2417.279-.1612.482-.3706.607-.6284v-1.1924h-.779c-1.217 0-1.826.3563-1.826 1.0688 0 .3115.104.555.311.7305.208.1754.475.2632.801.2632zm6.853-4.1626c-.15-.0251-.313-.0376-.489-.0376-.651 0-1.093.2775-1.326.8325v4.125h-.994v-5.8115h.967l.016.6714c.326-.5192.788-.7788 1.386-.7788.193 0 .34.025.44.0751zm2.541 2.229-.623.6499v2.041h-.994v-8.25h.994v4.9897l.531-.6391 1.81-1.9121h1.209l-2.261 2.4277 2.524 3.3838h-1.165z" fill="#000"/><rect fill="#6629c4" height="13" rx="1.5" stroke="#000" width="48" x="202.5" y="30.5"/><rect fill="#1e7075" height="13" rx="1.5" stroke="#000" width="48" x="202.5" y="48.5"/><rect fill="#fff" height="13" rx="1.5" stroke="#000" width="48" x="202.5" y="66.5"/></g></svg>