<svg fill="none" height="110" viewBox="0 0 320 110" width="320" xmlns="http://www.w3.org/2000/svg" xmlns:xlink="http://www.w3.org/1999/xlink"><clipPath id="a"><path d="m0 0h320v110h-320z"/></clipPath><mask id="b" fill="#fff"><path clip-rule="evenodd" d="m126.333 31.3333c0 .3839-.332.6667-.716.6667h-22.861c-.848 0-1.637-.5335-1.724-1.3767-.021-.2049-.032-.4128-.032-.6233 0-3.3137 2.686-6 6-6 .817 0 1.622-.3789 2.109-1.0346 1.336-1.7994 3.477-2.9654 5.891-2.9654 3.287 0 6.068 2.162 7 5.1413.28.8935.996 1.62 1.826 2.0537 1.49.7792 2.507 2.3399 2.507 4.1383z" fill="#fff" fill-rule="evenodd"/></mask><mask id="c" fill="#fff"><path clip-rule="evenodd" d="m101.607 35.0525c.43 1.0172-.502 1.9475-1.607 1.9475h-15.6853c-.648 0-1.3147-.3519-1.3147-1 0-1.1046.8954-2 2-2 .2973 0 .5958-.1222.7715-.362.7278-.9931 1.9029-1.638 3.2285-1.638.1989 0 .3839-.1076.4851-.2789.6092-1.0302 1.7314-1.7211 3.0149-1.7211 1.0014 0 1.9045.4205 2.5425 1.0946.5039.5324 1.2245.9054 1.9575.9054 2.0706 0 3.847 1.2586 4.607 3.0525z" fill="#fff" fill-rule="evenodd"/></mask><g clip-path="url(#a)"><path d="m0 0h320v110h-320z" fill="#0fa958"/><g stroke="#000"><circle cx="160" cy="43" fill="#f4d150" r="15.5"/><path d="m154.897 36.6363.799-.4961c.651-.4044 1.49-.337 2.068.1662.955.8307.974 2.3071.042 3.1632l-2.698 2.4781c-.118.1081-.294.1204-.426.0296l-3.015-2.081c-1.042-.7189-1.226-2.1839-.396-3.1387.504-.5783 1.325-.7611 2.026-.4507l.86.3808c.24.1062.517.087.74-.0514z" fill="#f01919"/><path d="m166.265 36.7026.87-.3576c.709-.2915 1.525-.0867 2.012.5049.805.9767.581 2.4363-.479 3.1269l-3.07 1.9994c-.134.0872-.311.0702-.425-.041l-2.631-2.5497c-.909-.8808-.849-2.3562.127-3.1609.592-.4875 1.432-.5323 2.072-.1106l.786.5173c.219.1444.495.171.738.0713z" fill="#f01919"/><path d="m153.889 44.5h12.222c.215 0 .389.1741.389.3889v.1111c0 3.5899-2.91 6.5-6.5 6.5s-6.5-2.9101-6.5-6.5v-.1111c0-.2148.174-.3889.389-.3889z" fill="#a62917" stroke-linejoin="round"/><path d="m157 44.5h-.5v.5 1c0 .8284.672 1.5 1.5 1.5h4c.828 0 1.5-.6716 1.5-1.5v-1-.5h-.5z" fill="#fff"/></g><circle cx="149" cy="45" fill="#ff8b66" r="2"/><circle cx="171" cy="45" fill="#ff8b66" r="2"/><rect fill="#16254d" height="59" rx="1.5" stroke="#000" width="79" x="54.5" y="13.5"/><circle cx="70" cy="25" fill="#fff" r="6.5" stroke="#000"/><path d="m54.5 50.5h79v20.5c0 .8284-.672 1.5-1.5 1.5h-76c-.8284 0-1.5-.6716-1.5-1.5z" fill="#1e7075" stroke="#000"/><path clip-rule="evenodd" d="m126.333 31.3333c0 .3839-.332.6667-.716.6667h-22.861c-.848 0-1.637-.5335-1.724-1.3767-.021-.2049-.032-.4128-.032-.6233 0-3.3137 2.686-6 6-6 .817 0 1.622-.3789 2.109-1.0346 1.336-1.7994 3.477-2.9654 5.891-2.9654 3.287 0 6.068 2.162 7 5.1413.28.8935.996 1.62 1.826 2.0537 1.49.7792 2.507 2.3399 2.507 4.1383z" fill="#6529c3" fill-rule="evenodd"/><path d="m123.826 27.195.463-.8862zm-21.07 5.805h22.861v-2h-22.861zm-.729-2.4794c-.018-.1708-.027-.3445-.027-.5206h-2c0 .2448.013.487.037.726zm-.027-.5206c0-2.7614 2.239-5 5-5v-2c-3.866 0-7 3.134-7 7zm7.912-6.4384c1.155-1.5563 3.004-2.5616 5.088-2.5616v-2c-2.743 0-5.177 1.3267-6.694 3.3692zm5.088-2.5616c2.837 0 5.241 1.8659 6.046 4.4399l1.909-.5971c-1.059-3.3847-4.219-5.8428-7.955-5.8428zm8.362 7.0812c1.174.6135 1.971 1.8405 1.971 3.2521h2c0-2.1851-1.237-4.0797-3.044-5.0245zm-16.362-3.0812c1.111 0 2.223-.5116 2.912-1.4384l-1.606-1.1924c-.286.3847-.784.6308-1.306.6308zm14.046.4399c.377 1.2047 1.311 2.116 2.316 2.6413l.927-1.7724c-.655-.3421-1.152-.8839-1.334-1.466zm4.571 7.5601c.841 0 1.716-.6396 1.716-1.6667h-2c0-.112.053-.208.115-.2639.056-.0509.117-.0694.169-.0694zm-22.861-2c-.221 0-.414-.0709-.542-.1683-.119-.0905-.175-.1944-.187-.3111l-1.99.2054c.155 1.4958 1.516 2.274 2.719 2.274z" fill="#000" mask="url(#b)"/><path clip-rule="evenodd" d="m101.607 35.0525c.43 1.0172-.502 1.9475-1.607 1.9475h-15.6853c-.648 0-1.3147-.3519-1.3147-1 0-1.1046.8954-2 2-2 .2973 0 .5958-.1222.7715-.362.7278-.9931 1.9029-1.638 3.2285-1.638.1989 0 .3839-.1076.4851-.2789.6092-1.0302 1.7314-1.7211 3.0149-1.7211 1.0014 0 1.9045.4205 2.5425 1.0946.5039.5324 1.2245.9054 1.9575.9054 2.0706 0 3.847 1.2586 4.607 3.0525z" fill="#6529c3" fill-rule="evenodd"/><path d="m101.607 35.0525-.921.3898zm-17.2923 2.9475h15.6853v-2h-15.6853zm-.3147-2c0-.5523.4477-1 1-1v-2c-1.6569 0-3 1.3431-3 3zm2.5781-1.7709c.5476-.7472 1.4284-1.2291 2.4219-1.2291v-2c-1.6578 0-3.127.8078-4.0351 2.0469zm3.7678-1.999c.4367-.7385 1.2385-1.2301 2.1541-1.2301v-2c-1.6515 0-3.094.8902-3.8756 2.2121zm2.1541-1.2301c.7154 0 1.3592.2992 1.8162.782l1.4526-1.3747c-.8189-.8654-1.9814-1.4073-3.2688-1.4073zm4.5 2c1.6549 0 3.077 1.0052 3.686 2.4423l1.841-.7796c-.91-2.1507-3.0407-3.6627-5.527-3.6627zm-2.6838-1.218c.6522.6892 1.6222 1.218 2.6838 1.218v-2c-.4044 0-.8757-.2171-1.2312-.5927zm-9.3162 3.218c.547 0 1.1766-.2231 1.5781-.7709l-1.6132-1.1822c.0252-.0344.0497-.047.0542-.049.0023-.0011.0013-.0004-.003.0005s-.0099.0016-.0161.0016zm4-2c.5599 0 1.0685-.3007 1.3459-.7699l-1.7215-1.018c.0749-.1266.2136-.2121.3756-.2121zm11 5c.821 0 1.61-.3428 2.129-.9307.542-.6142.781-1.5039.398-2.4066l-1.841.7796c.032.0776.03.1256.024.1554-.006.0351-.027.0871-.081.1484-.116.1315-.346.2539-.629.2539zm-15.6853-2c-.0733 0-.1454-.0102-.2086-.0279-.0639-.018-.1059-.04-.1281-.0551-.0215-.0146-.0141-.0155-.0006.0077.0163.0279.0226.0585.0226.0753h-2c0 .7173.3862 1.2521.8507 1.5691.4423.3017.9764.4309 1.464.4309z" fill="#000" mask="url(#c)"/><rect fill="#fff" height="107" rx="1.5" stroke="#000" width="89" x="186.5" y="10.5"/><path d="m187 20h88v29h-88z" fill="#0fa958"/><rect fill="#c4c4c4" height="5" rx="2.5" width="36" x="192" y="54"/><path d="m187 63h88v16h-88z" fill="#4992ff" opacity=".1"/><path d="m187 80h88v16h-88z" fill="#4992ff" opacity=".1"/><rect fill="#c4c4c4" height="4" rx="2" width="24" x="192" y="67"/><rect fill="#c4c4c4" height="4" rx="2" width="24" x="192" y="84"/><rect fill="#c4c4c4" height="2" rx="1" width="12" x="192" y="72"/><rect fill="#c4c4c4" height="2" rx="1" width="12" x="192" y="89"/><rect height="4" rx="2" stroke="#c4c4c4" width="19" x="250.5" y="54.5"/></g></svg>