<svg fill="none" height="110" viewBox="0 0 320 110" width="320" xmlns="http://www.w3.org/2000/svg" xmlns:xlink="http://www.w3.org/1999/xlink"><mask id="a" fill="#fff"><path clip-rule="evenodd" d="m119.333 33.3333c0 .3839-.332.6667-.716.6667h-22.8612c-.8477 0-1.6368-.5335-1.7238-1.3767-.0212-.2049-.032-.4128-.032-.6233 0-3.3137 2.6863-6 6-6 .817 0 1.622-.3789 2.109-1.0346 1.336-1.7994 3.477-2.9654 5.891-2.9654 3.287 0 6.068 2.162 7 5.1413.28.8935.996 1.62 1.826 2.0537 1.49.7792 2.507 2.3399 2.507 4.1383z" fill="#fff" fill-rule="evenodd"/></mask><mask id="b" fill="#fff"><path clip-rule="evenodd" d="m94.6065 37.0525c.4306 1.0172-.5019 1.9475-1.6065 1.9475h-15.6853c-.648 0-1.3147-.3519-1.3147-1 0-1.1046.8954-2 2-2 .2973 0 .5958-.1222.7715-.362.7278-.9931 1.9029-1.638 3.2285-1.638.1989 0 .3839-.1076.4851-.2789.6092-1.0302 1.7314-1.7211 3.0149-1.7211 1.0014 0 1.9045.4205 2.5425 1.0946.5039.5324 1.2245.9054 1.9575.9054 2.0706 0 3.8472 1.2586 4.6065 3.0525z" fill="#fff" fill-rule="evenodd"/></mask><mask id="c" fill="#fff"><path clip-rule="evenodd" d="m266.333 33.3333c0 .3839-.332.6667-.716.6667h-22.861c-.848 0-1.637-.5335-1.724-1.3767-.021-.2049-.032-.4128-.032-.6233 0-3.3137 2.686-6 6-6 .817 0 1.622-.3789 2.109-1.0346 1.336-1.7994 3.477-2.9654 5.891-2.9654 3.287 0 6.068 2.162 7 5.1413.28.8935.996 1.62 1.826 2.0537 1.49.7792 2.507 2.3399 2.507 4.1383z" fill="#fff" fill-rule="evenodd"/></mask><mask id="d" fill="#fff"><path clip-rule="evenodd" d="m241.607 37.0525c.43 1.0172-.502 1.9475-1.607 1.9475h-15.685c-.648 0-1.315-.3519-1.315-1 0-1.1046.895-2 2-2 .297 0 .596-.1222.772-.362.727-.9931 1.902-1.638 3.228-1.638.199 0 .384-.1076.485-.2789.609-1.0302 1.731-1.7211 3.015-1.7211 1.001 0 1.905.4205 2.543 1.0946.503.5324 1.224.9054 1.957.9054 2.071 0 3.847 1.2586 4.607 3.0525z" fill="#fff" fill-rule="evenodd"/></mask><path d="m0 0h320v110h-320z" fill="#4992ff"/><path d="m183.995 46.5707c.039-.2734-.151-.5266-.424-.5657l-4.455-.6364c-.273-.039-.527.1509-.566.4243s.151.5266.425.5657l3.959.5657-.565 3.9598c-.039.2733.151.5266.424.5656.273.0391.527-.1508.566-.4242zm-47.287.3351c6.374 4.5892 15.724 6.3955 24.642 6.169 8.913-.2262 17.532-2.4866 22.45-6.1748l-.6-.8c-4.682 3.5118-13.063 5.7514-21.875 5.9752-8.807.2235-17.907-1.5702-24.033-5.981z" fill="#000"/><g stroke="#000"><rect fill="#fff" height="59" rx="1.5" width="79" x="47.5" y="15.5"/><circle cx="63" cy="27" fill="#f4d150" r="6.5"/><path d="m47.5 52.5h79v20.5c0 .8284-.672 1.5-1.5 1.5h-76c-.8284 0-1.5-.6716-1.5-1.5z" fill="#0fa958"/></g><path clip-rule="evenodd" d="m119.333 33.3333c0 .3839-.332.6667-.716.6667h-22.8612c-.8477 0-1.6368-.5335-1.7238-1.3767-.0212-.2049-.032-.4128-.032-.6233 0-3.3137 2.6863-6 6-6 .817 0 1.622-.3789 2.109-1.0346 1.336-1.7994 3.477-2.9654 5.891-2.9654 3.287 0 6.068 2.162 7 5.1413.28.8935.996 1.62 1.826 2.0537 1.49.7792 2.507 2.3399 2.507 4.1383z" fill="#d6c0f8" fill-rule="evenodd"/><path d="m116.826 29.195.463-.8862zm-21.0702 5.805h22.8612v-2h-22.8612zm-.7291-2.4794c-.0176-.1708-.0267-.3445-.0267-.5206h-2c0 .2448.0126.487.0373.726zm-.0267-.5206c0-2.7614 2.2386-5 5-5v-2c-3.866 0-7 3.134-7 7zm7.912-6.4384c1.155-1.5563 3.004-2.5616 5.088-2.5616v-2c-2.743 0-5.177 1.3267-6.694 3.3692zm5.088-2.5616c2.837 0 5.241 1.8659 6.046 4.4399l1.909-.5971c-1.059-3.3847-4.219-5.8428-7.955-5.8428zm8.362 7.0812c1.174.6135 1.971 1.8405 1.971 3.2521h2c0-2.1851-1.237-4.0797-3.044-5.0245zm-16.362-3.0812c1.111 0 2.223-.5116 2.912-1.4384l-1.606-1.1924c-.286.3847-.784.6308-1.306.6308zm14.046.4399c.377 1.2047 1.311 2.116 2.316 2.6413l.927-1.7724c-.655-.3421-1.152-.8839-1.334-1.466zm4.571 7.5601c.841 0 1.716-.6396 1.716-1.6667h-2c0-.112.053-.208.115-.2639.056-.0509.117-.0694.169-.0694zm-22.8612-2c-.2209 0-.4139-.0709-.542-.1683-.1191-.0905-.1751-.1944-.1871-.3111l-1.9894.2054c.1544 1.4958 1.516 2.274 2.7185 2.274z" fill="#000" mask="url(#a)"/><path clip-rule="evenodd" d="m94.6065 37.0525c.4306 1.0172-.5019 1.9475-1.6065 1.9475h-15.6853c-.648 0-1.3147-.3519-1.3147-1 0-1.1046.8954-2 2-2 .2973 0 .5958-.1222.7715-.362.7278-.9931 1.9029-1.638 3.2285-1.638.1989 0 .3839-.1076.4851-.2789.6092-1.0302 1.7314-1.7211 3.0149-1.7211 1.0014 0 1.9045.4205 2.5425 1.0946.5039.5324 1.2245.9054 1.9575.9054 2.0706 0 3.8472 1.2586 4.6065 3.0525z" fill="#d6c0f8" fill-rule="evenodd"/><path d="m94.6065 37.0525-.9209.3898zm-17.2918 2.9475h15.6853v-2h-15.6853zm-.3147-2c0-.5523.4477-1 1-1v-2c-1.6569 0-3 1.3431-3 3zm2.5781-1.7709c.5476-.7472 1.4284-1.2291 2.4219-1.2291v-2c-1.6578 0-3.127.8078-4.0351 2.0469zm3.7678-1.999c.4367-.7385 1.2385-1.2301 2.1541-1.2301v-2c-1.6515 0-3.094.8902-3.8756 2.2121zm2.1541-1.2301c.7154 0 1.3592.2992 1.8162.782l1.4526-1.3747c-.8189-.8654-1.9814-1.4073-3.2688-1.4073zm4.5 2c1.6549 0 3.0773 1.0052 3.6856 2.4423l1.8418-.7796c-.9103-2.1507-3.0411-3.6627-5.5274-3.6627zm-2.6838-1.218c.6522.6892 1.6222 1.218 2.6838 1.218v-2c-.4044 0-.8757-.2171-1.2312-.5927zm-9.3162 3.218c.547 0 1.1766-.2231 1.5781-.7709l-1.6132-1.1822c.0252-.0344.0497-.047.0542-.049.0023-.0011.0013-.0004-.003.0005s-.0099.0016-.0161.0016zm4-2c.5599 0 1.0685-.3007 1.3459-.7699l-1.7215-1.018c.0749-.1266.2136-.2121.3756-.2121zm11 5c.8213 0 1.6101-.3428 2.1288-.9307.5419-.6142.7807-1.5039.3986-2.4066l-1.8418.7796c.0329.0776.0305.1256.0248.1554-.0068.0351-.0272.0871-.0813.1484-.116.1315-.3459.2539-.6291.2539zm-15.6853-2c-.0733 0-.1454-.0102-.2086-.0279-.0639-.018-.1059-.04-.1281-.0551-.0215-.0146-.0141-.0155-.0006.0077.0163.0279.0226.0585.0226.0753h-2c0 .7173.3862 1.2521.8507 1.5691.4423.3017.9764.4309 1.464.4309z" fill="#000" mask="url(#b)"/><g stroke="#000"><rect fill="#16254d" height="59" rx="1.5" width="79" x="194.5" y="15.5"/><circle cx="210" cy="27" fill="#fff" r="6.5"/><path d="m194.5 52.5h79v20.5c0 .8284-.672 1.5-1.5 1.5h-76c-.828 0-1.5-.6716-1.5-1.5z" fill="#1e7075"/></g><path clip-rule="evenodd" d="m266.333 33.3333c0 .3839-.332.6667-.716.6667h-22.861c-.848 0-1.637-.5335-1.724-1.3767-.021-.2049-.032-.4128-.032-.6233 0-3.3137 2.686-6 6-6 .817 0 1.622-.3789 2.109-1.0346 1.336-1.7994 3.477-2.9654 5.891-2.9654 3.287 0 6.068 2.162 7 5.1413.28.8935.996 1.62 1.826 2.0537 1.49.7792 2.507 2.3399 2.507 4.1383z" fill="#6529c3" fill-rule="evenodd"/><path d="m263.826 29.195.463-.8862zm-21.07 5.805h22.861v-2h-22.861zm-.729-2.4794c-.018-.1708-.027-.3445-.027-.5206h-2c0 .2448.013.487.037.726zm-.027-.5206c0-2.7614 2.239-5 5-5v-2c-3.866 0-7 3.134-7 7zm7.912-6.4384c1.155-1.5563 3.004-2.5616 5.088-2.5616v-2c-2.743 0-5.177 1.3267-6.694 3.3692zm5.088-2.5616c2.837 0 5.241 1.8659 6.046 4.4399l1.909-.5971c-1.059-3.3847-4.219-5.8428-7.955-5.8428zm8.362 7.0812c1.174.6135 1.971 1.8405 1.971 3.2521h2c0-2.1851-1.237-4.0797-3.044-5.0245zm-16.362-3.0812c1.111 0 2.223-.5116 2.912-1.4384l-1.606-1.1924c-.286.3847-.784.6308-1.306.6308zm14.046.4399c.377 1.2047 1.311 2.116 2.316 2.6413l.927-1.7724c-.655-.3421-1.152-.8839-1.334-1.466zm4.571 7.5601c.841 0 1.716-.6396 1.716-1.6667h-2c0-.112.053-.208.115-.2639.056-.0509.117-.0694.169-.0694zm-22.861-2c-.221 0-.414-.0709-.542-.1683-.119-.0905-.175-.1944-.187-.3111l-1.99.2054c.155 1.4958 1.516 2.274 2.719 2.274z" fill="#000" mask="url(#c)"/><path clip-rule="evenodd" d="m241.607 37.0525c.43 1.0172-.502 1.9475-1.607 1.9475h-15.685c-.648 0-1.315-.3519-1.315-1 0-1.1046.895-2 2-2 .297 0 .596-.1222.772-.362.727-.9931 1.902-1.638 3.228-1.638.199 0 .384-.1076.485-.2789.609-1.0302 1.731-1.7211 3.015-1.7211 1.001 0 1.905.4205 2.543 1.0946.503.5324 1.224.9054 1.957.9054 2.071 0 3.847 1.2586 4.607 3.0525z" fill="#6529c3" fill-rule="evenodd"/><path d="m241.607 37.0525-.921.3898zm-17.292 2.9475h15.685v-2h-15.685zm-.315-2c0-.5523.448-1 1-1v-2c-1.657 0-3 1.3431-3 3zm2.578-1.7709c.548-.7472 1.428-1.2291 2.422-1.2291v-2c-1.658 0-3.127.8078-4.035 2.0469zm3.768-1.999c.437-.7385 1.238-1.2301 2.154-1.2301v-2c-1.651 0-3.094.8902-3.876 2.2121zm2.154-1.2301c.715 0 1.359.2992 1.816.782l1.453-1.3747c-.819-.8654-1.982-1.4073-3.269-1.4073zm4.5 2c1.655 0 3.077 1.0052 3.686 2.4423l1.841-.7796c-.91-2.1507-3.041-3.6627-5.527-3.6627zm-2.684-1.218c.652.6892 1.622 1.218 2.684 1.218v-2c-.404 0-.876-.2171-1.231-.5927zm-9.316 3.218c.547 0 1.177-.2231 1.578-.7709l-1.613-1.1822c.025-.0344.05-.047.054-.049.002-.0011.001-.0004-.003.0005s-.01.0016-.016.0016zm4-2c.56 0 1.068-.3007 1.346-.7699l-1.722-1.018c.075-.1266.214-.2121.376-.2121zm11 5c.821 0 1.61-.3428 2.129-.9307.542-.6142.781-1.5039.398-2.4066l-1.841.7796c.032.0776.03.1256.024.1554-.006.0351-.027.0871-.081.1484-.116.1315-.346.2539-.629.2539zm-15.685-2c-.074 0-.146-.0102-.209-.0279-.064-.018-.106-.04-.128-.0551-.021-.0146-.014-.0155-.001.0077.017.0279.023.0585.023.0753h-2c0 .7173.386 1.2521.851 1.5691.442.3017.976.4309 1.464.4309z" fill="#000" mask="url(#d)"/><circle cx="170" cy="33" r="4" stroke="#000"/><path d="m147 33.5h9" stroke="#000"/></svg>