<svg fill="none" height="110" viewBox="0 0 320 110" width="320" xmlns="http://www.w3.org/2000/svg" xmlns:xlink="http://www.w3.org/1999/xlink"><linearGradient id="a" gradientUnits="userSpaceOnUse" x1="160" x2="160" y1="-1" y2="34"><stop offset="0" stop-color="#4992ff"/><stop offset="1" stop-color="#4992ff" stop-opacity="0"/></linearGradient><clipPath id="b"><path d="m0 0h320v110h-320z"/></clipPath><g clip-path="url(#b)"><path d="m0 0h320v110h-320z" fill="#4992ff"/><path d="m0-1h320v35h-320z" fill="url(#a)"/><rect height="43" rx="5.5" stroke="#000" width="89" x="53.5" y="28.5"/><g fill="#000"><path d="m71.7944 44.5186c-.0966.8271-.4028 1.4663-.9184 1.9174-.5121.4476-1.1942.6714-2.0464.6714-.9238 0-1.665-.3312-2.2236-.9936-.555-.6625-.8325-1.5487-.8325-2.6587v-.752c0-.7269.1289-1.366.3867-1.9175.2614-.5514.6302-.9739 1.1064-1.2675.4763-.2972 1.0277-.4458 1.6543-.4458.8307 0 1.4968.2327 1.9981.6982.5013.4619.7931 1.1029.8754 1.9229h-1.0366c-.0895-.6231-.2846-1.0743-.5854-1.3536-.2972-.2793-.7144-.4189-1.2515-.4189-.6588 0-1.1763.2435-1.5522.7305-.3724.4869-.5586 1.1798-.5586 2.0786v.7573c0 .8486.1772 1.5236.5317 2.0249s.8504.752 1.4878.752c.5729 0 1.0116-.1289 1.3159-.3868.308-.2614.5121-.7143.6123-1.3588zm4.066-2.4385c-.1504-.0251-.3133-.0376-.4888-.0376-.6517 0-1.0939.2775-1.3267.8325v4.125h-.9936v-5.8115h.9668l.0161.6714c.3258-.5192.7878-.7788 1.3857-.7788.1934 0 .3402.025.4405.0751zm3.2226 5.0273c-.7877 0-1.4287-.2578-1.9228-.7734-.4942-.5192-.7412-1.2121-.7412-2.0786v-.1826c0-.5765.1092-1.0904.3276-1.5416.222-.4547.5299-.8092.9238-1.0634.3975-.2578.8272-.3867 1.2891-.3867.7555 0 1.3428.2488 1.7617.7465.419.4978.6284 1.2103.6284 2.1377v.4136h-3.937c.0143.5729.1808 1.0366.4995 1.3911.3223.3509.7305.5264 1.2246.5264.3509 0 .6481-.0716.8916-.2149.2435-.1432.4566-.333.6392-.5693l.6069.4727c-.4869.7483-1.2174 1.1225-2.1914 1.1225zm-.1235-5.2099c-.4011 0-.7376.1468-1.0098.4404-.2721.29-.4404.6982-.5049 1.2246h2.9112v-.0752c-.0287-.5049-.1647-.8952-.4082-1.1709-.2435-.2793-.5729-.4189-.9883-.4189zm7.1328 5.1025c-.0573-.1146-.1038-.3187-.1396-.6123-.462.4798-1.0134.7197-1.6543.7197-.573 0-1.0438-.1611-1.4126-.4834-.3653-.3258-.5479-.7376-.5479-1.2353 0-.6052.2292-1.0742.6875-1.4073.4619-.3365 1.11-.5048 1.9443-.5048h.9668v-.4566c0-.3473-.1038-.623-.3115-.8271-.2077-.2077-.5138-.3116-.9184-.3116-.3545 0-.6517.0896-.8916.2686-.24.179-.3599.3957-.3599.6499h-.999c0-.29.102-.5693.3061-.8379.2077-.2721.487-.487.8379-.6445.3545-.1576.743-.2363 1.1655-.2363.6696 0 1.1942.1682 1.5738.5048.3795.333.5765.7932.5908 1.3804v2.6748c0 .5335.068.9579.2041 1.273v.0859zm-1.6489-.7573c.3115 0 .6069-.0806.8862-.2417.2793-.1612.4816-.3706.6069-.6284v-1.1924h-.7788c-1.2174 0-1.8261.3563-1.8261 1.0688 0 .3115.1038.555.3115.7305.2077.1754.4744.2632.8003.2632zm5.3926-6.4615v1.4073h1.0849v.768h-1.0849v3.604c0 .2328.0483.4083.145.5264.0967.1146.2614.1719.4941.1719.1146 0 .2721-.0215.4727-.0645v.8057c-.2614.0716-.5157.1074-.7627.1074-.444 0-.7788-.1343-1.0044-.4028-.2256-.2686-.3384-.6499-.3384-1.1441v-3.604h-1.0581v-.768h1.0581v-1.4073zm4.6621 7.3262c-.7878 0-1.4287-.2578-1.9229-.7734-.4941-.5192-.7412-1.2121-.7412-2.0786v-.1826c0-.5765.1092-1.0904.3276-1.5416.222-.4547.53-.8092.9239-1.0634.3974-.2578.8271-.3867 1.289-.3867.7556 0 1.3428.2488 1.7617.7465.419.4978.6285 1.2103.6285 2.1377v.4136h-3.937c.0143.5729.1808 1.0366.4995 1.3911.3222.3509.7304.5264 1.2246.5264.3509 0 .6481-.0716.8916-.2149.2435-.1432.4565-.333.6391-.5693l.607.4727c-.487.7483-1.2175 1.1225-2.1914 1.1225zm-.1236-5.2099c-.401 0-.7376.1468-1.0097.4404-.2722.29-.4405.6982-.5049 1.2246h2.9111v-.0752c-.0286-.5049-.1647-.8952-.4082-1.1709-.2435-.2793-.5729-.4189-.9883-.4189zm7.6215-2.1163v1.4073h1.085v.768h-1.085v3.604c0 .2328.048.4083.145.5264.097.1146.262.1719.494.1719.115 0 .272-.0215.473-.0645v.8057c-.261.0716-.516.1074-.763.1074-.444 0-.779-.1343-1.004-.4028-.226-.2686-.339-.6499-.339-1.1441v-3.604h-1.0576v-.768h1.0576v-1.4073zm3.244 2.1109c.441-.5407 1.014-.811 1.719-.811 1.228 0 1.848.6928 1.858 2.0786v3.8403h-.993v-3.8457c-.004-.4189-.101-.7287-.29-.9292-.186-.2005-.478-.3008-.876-.3008-.322 0-.605.086-.848.2578-.244.1719-.434.3975-.57.6768v4.1411h-.993v-8.25h.993zm7.477 5.2153c-.788 0-1.429-.2578-1.923-.7734-.494-.5192-.741-1.2121-.741-2.0786v-.1826c0-.5765.109-1.0904.327-1.5416.222-.4547.53-.8092.924-1.0634.398-.2578.827-.3867 1.289-.3867.756 0 1.343.2488 1.762.7465.419.4978.628 1.2103.628 2.1377v.4136h-3.937c.015.5729.181 1.0366.5 1.3911.322.3509.73.5264 1.225.5264.35 0 .648-.0716.891-.2149.244-.1432.457-.333.639-.5693l.607.4727c-.487.7483-1.217 1.1225-2.191 1.1225zm-.124-5.2099c-.401 0-.737.1468-1.009.4404-.273.29-.441.6982-.505 1.2246h2.911v-.0752c-.029-.5049-.165-.8952-.408-1.1709-.244-.2793-.573-.4189-.989-.4189zm4.48-.709.027.6445c.426-.5013 1-.7519 1.724-.7519.813 0 1.366.3115 1.659.9345.194-.2793.444-.5049.752-.6767.312-.1719.679-.2578 1.101-.2578 1.275 0 1.923.6749 1.945 2.0249v3.894h-.994v-3.835c0-.4153-.095-.7251-.285-.9292-.189-.2076-.508-.3115-.956-.3115-.368 0-.675.111-.918.333-.244.2184-.385.5139-.424.8863v3.8564h-.999v-3.8081c0-.8451-.414-1.2676-1.241-1.2676-.652 0-1.098.2775-1.338.8325v4.2432h-.993v-5.8115zm11.123 5.9189c-.787 0-1.428-.2578-1.923-.7734-.494-.5192-.741-1.2121-.741-2.0786v-.1826c0-.5765.109-1.0904.328-1.5416.222-.4547.53-.8092.924-1.0634.397-.2578.827-.3867 1.289-.3867.755 0 1.343.2488 1.761.7465.419.4978.629 1.2103.629 2.1377v.4136h-3.937c.014.5729.181 1.0366.499 1.3911.323.3509.731.5264 1.225.5264.351 0 .648-.0716.892-.2149.243-.1432.456-.333.639-.5693l.607.4727c-.487.7483-1.218 1.1225-2.192 1.1225zm-.123-5.2099c-.401 0-.738.1468-1.01.4404-.272.29-.44.6982-.505 1.2246h2.911v-.0752c-.028-.5049-.164-.8952-.408-1.1709-.243-.2793-.573-.4189-.988-.4189zm-41.261 15.2612c0 .8844-.2023 1.597-.6069 2.1377s-.9525.811-1.6436.811c-.7054 0-1.2604-.2238-1.665-.6714v2.7984h-.9937v-8.0459h.9078l.0483.6445c.4046-.5013.9668-.7519 1.6865-.7519.6983 0 1.2497.2631 1.6543.7895.4082.5264.6123 1.2586.6123 2.1968zm-.9936-.1128c0-.6553-.1397-1.1727-.419-1.5522-.2793-.3796-.6624-.5694-1.1494-.5694-.6015 0-1.0527.2668-1.3535.8003v2.7769c.2972.5299.752.7949 1.3643.7949.4762 0 .854-.188 1.1333-.564.2828-.3795.4243-.9417.4243-1.6865zm5.8491 2.9541c-.0573-.1146-.1038-.3187-.1397-.6123-.4619.4798-1.0133.7197-1.6542.7197-.573 0-1.0438-.1611-1.4126-.4834-.3653-.3258-.5479-.7376-.5479-1.2353 0-.6052.2292-1.0742.6875-1.4073.4619-.3365 1.11-.5048 1.9443-.5048h.9668v-.4566c0-.3473-.1038-.623-.3115-.8271-.2077-.2077-.5138-.3116-.9184-.3116-.3545 0-.6517.0896-.8916.2686-.24.179-.3599.3957-.3599.6499h-.999c0-.29.102-.5693.3061-.8379.2077-.2721.487-.487.8379-.6445.3545-.1576.743-.2363 1.1655-.2363.6696 0 1.1942.1682 1.5738.5048.3795.333.5765.7932.5908 1.3804v2.6748c0 .5335.068.9579.2041 1.273v.0859zm-1.6489-.7573c.3115 0 .6069-.0806.8862-.2417.2793-.1612.4816-.3706.6069-.6284v-1.1924h-.7788c-1.2174 0-1.8261.3563-1.8261 1.0688 0 .3115.1038.555.3115.7305.2077.1754.4744.2632.8003.2632zm5.124.7573h-.9937v-8.25h.9937zm4.0068.1074c-.7877 0-1.4287-.2578-1.9228-.7734-.4942-.5192-.7412-1.2121-.7412-2.0786v-.1826c0-.5765.1092-1.0904.3276-1.5416.222-.4547.53-.8092.9238-1.0634.3975-.2578.8272-.3867 1.2891-.3867.7555 0 1.3431.2488 1.7621.7465.419.4978.628 1.2103.628 2.1377v.4136h-3.937c.0143.5729.1808 1.0366.4995 1.3911.3223.3509.7305.5264 1.2246.5264.351 0 .6482-.0716.8919-.2149.243-.1432.456-.333.639-.5693l.607.4727c-.487.7483-1.218 1.1225-2.1916 1.1225zm-.1235-5.2099c-.401 0-.7376.1468-1.0098.4404-.2721.29-.4404.6982-.5049 1.2246h2.9108v-.0752c-.028-.5049-.164-.8952-.408-1.1709-.2433-.2793-.5727-.4189-.9881-.4189zm4.8931-2.1163v1.4073h1.085v.768h-1.085v3.604c0 .2328.048.4083.145.5264.097.1146.261.1719.494.1719.115 0 .272-.0215.473-.0645v.8057c-.262.0716-.516.1074-.763.1074-.444 0-.779-.1343-1.004-.4028-.226-.2686-.339-.6499-.339-1.1441v-3.604h-1.058v-.768h1.058v-1.4073zm3.599 0v1.4073h1.085v.768h-1.085v3.604c0 .2328.048.4083.145.5264.096.1146.261.1719.494.1719.114 0 .272-.0215.472-.0645v.8057c-.261.0716-.515.1074-.762.1074-.444 0-.779-.1343-1.005-.4028-.225-.2686-.338-.6499-.338-1.1441v-3.604h-1.058v-.768h1.058v-1.4073zm4.662 7.3262c-.788 0-1.429-.2578-1.923-.7734-.494-.5192-.741-1.2121-.741-2.0786v-.1826c0-.5765.109-1.0904.327-1.5416.222-.4547.53-.8092.924-1.0634.398-.2578.827-.3867 1.289-.3867.756 0 1.343.2488 1.762.7465.419.4978.628 1.2103.628 2.1377v.4136h-3.937c.015.5729.181 1.0366.5 1.3911.322.3509.73.5264 1.224.5264.351 0 .649-.0716.892-.2149.244-.1432.457-.333.639-.5693l.607.4727c-.487.7483-1.217 1.1225-2.191 1.1225zm-.124-5.2099c-.401 0-.737.1468-1.01.4404-.272.29-.44.6982-.504 1.2246h2.911v-.0752c-.029-.5049-.165-.8952-.409-1.1709-.243-.2793-.572-.4189-.988-.4189z"/><path d="m211.869 7.83105h-1.143v3.16895h-.466v-3.16895h-1.14v-.38574h2.749zm.908.84717c.2-.24577.46-.36865.781-.36865.558 0 .84.31494.845.94482v1.74561h-.452v-1.74805c-.001-.19043-.045-.33121-.132-.42236-.084-.09115-.217-.13672-.398-.13672-.146 0-.275.03906-.385.11719-.111.07812-.197.18066-.259.30762v1.88232h-.452v-3.75h.452zm3.398 2.37058c-.358 0-.649-.1172-.874-.3515-.224-.236-.337-.551-.337-.94486v-.08301c0-.26204.05-.4956.149-.70068.101-.20671.241-.36784.42-.4834.181-.11719.376-.17578.586-.17578.344 0 .61.11312.801.33936.19.22623.286.55013.286.97168v.18798h-1.79c.007.26041.082.47121.227.63231.147.1595.332.2393.557.2393.159 0 .294-.0326.405-.0977s.207-.1513.291-.2588l.275.2149c-.221.3401-.553.5102-.996.5102zm-.056-2.36814c-.182 0-.335.06674-.459.2002-.124.13184-.2.31738-.229.55664h1.323v-.03418c-.013-.22949-.075-.4069-.186-.53223-.11-.12695-.26-.19043-.449-.19043zm2.036-.32226.012.29297c.194-.22787.455-.3418.784-.3418.37 0 .621.1416.755.42481.087-.12696.201-.2295.341-.30762.142-.07813.309-.11719.501-.11719.579 0 .874.3068.884.92041v1.77002h-.452v-1.74316c0-.18881-.043-.32959-.129-.42237-.087-.0944-.232-.1416-.435-.1416-.168 0-.307.05046-.417.15137-.111.09928-.175.23356-.193.40283v1.75293h-.454v-1.73096c0-.38411-.188-.57617-.564-.57617-.297 0-.499.12614-.608.37842v1.92871h-.452v-2.6416zm5.056 2.6904c-.358 0-.649-.1172-.874-.3515-.224-.236-.337-.551-.337-.94486v-.08301c0-.26204.05-.4956.149-.70068.101-.20671.241-.36784.42-.4834.181-.11719.376-.17578.586-.17578.344 0 .611.11312.801.33936.19.22623.286.55013.286.97168v.18798h-1.79c.007.26041.082.47121.227.63231.147.1595.332.2393.557.2393.159 0 .294-.0326.405-.0977s.208-.1513.291-.2588l.276.2149c-.222.3401-.554.5102-.997.5102zm-.056-2.36814c-.182 0-.335.06674-.459.2002-.123.13184-.2.31738-.229.55664h1.323v-.03418c-.013-.22949-.075-.4069-.186-.53223-.11-.12695-.26-.19043-.449-.19043zm3.279-.32226.015.33203c.202-.25391.465-.38086.791-.38086.558 0 .84.31494.844.94482v1.74561h-.451v-1.74805c-.002-.19043-.046-.33121-.132-.42236-.085-.09115-.217-.13672-.398-.13672-.146 0-.275.03906-.386.11719-.11.07812-.197.18066-.259.30762v1.88232h-.451v-2.6416zm3.962 2.6416c-.026-.0521-.047-.1449-.063-.2783-.21.2181-.461.3271-.752.3271-.26 0-.474-.0732-.642-.2197-.166-.1481-.249-.3353-.249-.5615 0-.27509.104-.4883.312-.63967.21-.153.505-.22949.884-.22949h.44v-.20752c0-.15788-.048-.28321-.142-.37598-.094-.0944-.233-.1416-.417-.1416-.162 0-.297.04069-.406.12207s-.163.17985-.163.29541h-.454c0-.13184.046-.25879.139-.38086.094-.1237.221-.22135.381-.29297.161-.07161.337-.10742.529-.10742.305 0 .543.0765.716.22949.172.15137.262.36052.268.62744v1.2158c0 .2425.031.4354.093.5786v.0391zm-.749-.3442c.142 0 .276-.0367.403-.1099s.219-.1685.276-.2856v-.54204h-.354c-.554 0-.83.16195-.83.48584 0 .1416.047.2523.141.332.095.0798.216.1197.364.1197zm2.263-2.2974.012.29297c.194-.22787.455-.3418.784-.3418.37 0 .621.1416.754.42481.088-.12696.202-.2295.342-.30762.142-.07813.309-.11719.501-.11719.579 0 .874.3068.884.92041v1.77002h-.452v-1.74316c0-.18881-.043-.32959-.13-.42237-.086-.0944-.231-.1416-.434-.1416-.168 0-.307.05046-.418.15137-.11.09928-.175.23356-.192.40283v1.75293h-.455v-1.73096c0-.38411-.188-.57617-.564-.57617-.296 0-.498.12614-.607.37842v1.92871h-.452v-2.6416zm5.056 2.6904c-.358 0-.649-.1172-.874-.3515-.224-.236-.337-.551-.337-.94486v-.08301c0-.26204.05-.4956.149-.70068.101-.20671.241-.36784.42-.4834.181-.11719.376-.17578.586-.17578.344 0 .611.11312.801.33936.19.22623.286.55013.286.97168v.18798h-1.79c.007.26041.082.47121.227.63231.147.1595.332.2393.557.2393.159 0 .294-.0326.405-.0977s.208-.1513.291-.2588l.275.2149c-.221.3401-.553.5102-.996.5102zm-.056-2.36814c-.182 0-.335.06674-.459.2002-.124.13184-.2.31738-.229.55664h1.323v-.03418c-.013-.22949-.075-.4069-.186-.53223-.11-.12695-.26-.19043-.449-.19043z"/><path d="m209.908 23v-7.8203h2.207c.681 0 1.282.1504 1.805.4512.523.3007.926.7286 1.208 1.2837.287.555.432 1.1923.435 1.9121v.4995c0 .7376-.143 1.3839-.429 1.9389-.283.555-.69.9812-1.219 1.2784-.527.2972-1.141.4493-1.843.4565zm1.031-6.9717v6.1284h1.085c.795 0 1.413-.247 1.853-.7412.444-.4941.666-1.1977.666-2.1108v-.4566c0-.888-.21-1.5773-.628-2.0678-.416-.4942-1.007-.7448-1.773-.752zm8.443 7.0791c-.787 0-1.428-.2578-1.923-.7734-.494-.5192-.741-1.2121-.741-2.0786v-.1826c0-.5765.109-1.0904.328-1.5416.222-.4547.53-.8092.924-1.0634.397-.2578.827-.3867 1.289-.3867.755 0 1.343.2488 1.762.7465.418.4978.628 1.2103.628 2.1377v.4136h-3.937c.014.5729.181 1.0366.499 1.3911.323.3509.731.5264 1.225.5264.351 0 .648-.0716.892-.2149.243-.1432.456-.333.639-.5693l.607.4727c-.487.7483-1.218 1.1225-2.192 1.1225zm-.123-5.2099c-.401 0-.738.1468-1.01.4404-.272.29-.44.6982-.505 1.2246h2.911v-.0752c-.028-.5049-.164-.8952-.408-1.1709-.243-.2793-.573-.4189-.988-.4189zm4.033 5.1025v-5.0435h-.918v-.768h.918v-.5962c0-.6231.167-1.1047.5-1.4448.333-.3402.804-.5103 1.413-.5103.229 0 .456.0304.682.0913l-.054.8057c-.168-.0322-.347-.0484-.537-.0484-.322 0-.571.0949-.747.2847-.175.1862-.263.4548-.263.8057v.6123h1.241v.768h-1.241v5.0435zm6.924 0c-.057-.1146-.104-.3187-.14-.6123-.462.4798-1.013.7197-1.654.7197-.573 0-1.044-.1611-1.413-.4834-.365-.3258-.548-.7376-.548-1.2353 0-.6052.23-1.0742.688-1.4073.462-.3365 1.11-.5048 1.944-.5048h.967v-.4566c0-.3473-.104-.623-.311-.8271-.208-.2077-.514-.3116-.919-.3116-.354 0-.652.0896-.892.2686-.239.179-.359.3957-.359.6499h-.999c0-.29.102-.5693.306-.8379.207-.2721.487-.487.838-.6445.354-.1576.743-.2363 1.165-.2363.67 0 1.194.1682 1.574.5048.379.333.576.7932.591 1.3804v2.6748c0 .5335.068.9579.204 1.273v.0859zm-1.649-.7573c.311 0 .607-.0806.886-.2417.279-.1612.482-.3706.607-.6284v-1.1924h-.779c-1.217 0-1.826.3563-1.826 1.0688 0 .3115.104.555.312.7305.207.1754.474.2632.8.2632zm7.632.1826c-.387.4547-.954.6821-1.702.6821-.62 0-1.093-.179-1.418-.5371-.323-.3616-.486-.8952-.489-1.6006v-3.7812h.993v3.7544c0 .8808.359 1.3213 1.075 1.3213.759 0 1.264-.2829 1.514-.8487v-4.227h.994v5.8115h-.945zm3.561.5747h-.993v-8.25h.993zm2.944-7.2188v1.4073h1.085v.768h-1.085v3.604c0 .2328.048.4083.145.5264.096.1146.261.1719.494.1719.114 0 .272-.0215.472-.0645v.8057c-.261.0716-.515.1074-.762.1074-.444 0-.779-.1343-1.005-.4028-.225-.2686-.338-.6499-.338-1.1441v-3.604h-1.058v-.768h1.058v-1.4073z"/></g><g stroke="#000"><rect fill="#d6c0f8" height="13" rx="1.5" width="48" x="209.5" y="30.5"/><rect fill="#0fa958" height="13" rx="1.5" width="48" x="209.5" y="48.5"/><rect fill="#f4d150" height="13" rx="1.5" width="48" x="209.5" y="66.5"/></g><path d="m198.995 52.5707c.039-.2734-.151-.5266-.424-.5657l-4.455-.6364c-.273-.039-.527.1509-.566.4243s.151.5266.425.5657l3.959.5657-.565 3.9598c-.039.2733.151.5266.424.5656.273.0391.527-.1508.566-.4242zm-47.287.3351c6.374 4.5892 15.724 6.3955 24.642 6.169 8.913-.2262 17.532-2.4866 22.45-6.1748l-.6-.8c-4.682 3.5118-13.063 5.7514-21.875 5.9752-8.807.2235-17.907-1.5702-24.033-5.981z" fill="#000"/></g></svg>