<svg fill="none" height="110" viewBox="0 0 320 110" width="320" xmlns="http://www.w3.org/2000/svg" xmlns:xlink="http://www.w3.org/1999/xlink"><filter id="a" color-interpolation-filters="sRGB" filterUnits="userSpaceOnUse" height="22.7722" width="16.2576" x="107.25" y="18.1893"><feFlood flood-opacity="0" result="BackgroundImageFix"/><feColorMatrix in="SourceAlpha" type="matrix" values="0 0 0 0 0 0 0 0 0 0 0 0 0 0 0 0 0 0 127 0"/><feOffset dy="2"/><feGaussianBlur stdDeviation="1"/><feColorMatrix type="matrix" values="0 0 0 0 0 0 0 0 0 0 0 0 0 0 0 0 0 0 0.25 0"/><feBlend in2="BackgroundImageFix" mode="normal" result="effect1_dropShadow"/><feBlend in="SourceGraphic" in2="effect1_dropShadow" mode="normal" result="shape"/></filter><linearGradient id="b" gradientUnits="userSpaceOnUse" x1="160" x2="160" y1="-1" y2="34"><stop offset="0" stop-color="#4992ff"/><stop offset="1" stop-color="#4992ff" stop-opacity="0"/></linearGradient><clipPath id="c"><path d="m0 0h320v110h-320z"/></clipPath><g clip-path="url(#c)"><path d="m0 0h320v110h-320z" fill="#4992ff"/><path d="m171.995 52.5707c.039-.2734-.151-.5266-.424-.5657l-4.455-.6364c-.273-.039-.527.1509-.566.4243s.151.5266.425.5657l3.959.5657-.565 3.9598c-.039.2733.151.5266.424.5656.273.0391.527-.1508.566-.4242zm-47.287.3351c6.374 4.5892 15.724 6.3955 24.642 6.169 8.913-.2262 17.532-2.4866 22.45-6.1748l-.6-.8c-4.682 3.5118-13.063 5.7514-21.875 5.9752-8.807.2235-17.907-1.5702-24.033-5.981z" fill="#000"/><rect height="29" rx="5.5" stroke="#000" width="92" x="184.5" y="36.5"/><path d="m201.963 52.5186c-.096.8271-.402 1.4663-.918 1.9174-.512.4476-1.194.6714-2.046.6714-.924 0-1.666-.3312-2.224-.9936-.555-.6625-.833-1.5487-.833-2.6587v-.752c0-.7269.129-1.366.387-1.9175.261-.5514.63-.9739 1.107-1.2675.476-.2972 1.027-.4458 1.654-.4458.831 0 1.497.2327 1.998.6982.501.4619.793 1.1029.875 1.9229h-1.036c-.09-.6231-.285-1.0743-.586-1.3536-.297-.2793-.714-.4189-1.251-.4189-.659 0-1.176.2435-1.552.7305-.373.4869-.559 1.1798-.559 2.0786v.7573c0 .8486.177 1.5236.532 2.0249.354.5013.85.752 1.488.752.572 0 1.011-.1289 1.315-.3868.308-.2614.512-.7143.613-1.3588zm2.251-2.6265c.44-.5407 1.013-.811 1.719-.811 1.228 0 1.847.6928 1.858 2.0786v3.8403h-.994v-3.8457c-.003-.4189-.1-.7287-.29-.9292-.186-.2005-.478-.3008-.875-.3008-.322 0-.605.086-.849.2578-.243.1719-.433.3975-.569.6768v4.1411h-.994v-8.25h.994zm8.653 5.1079c-.058-.1146-.104-.3187-.14-.6123-.462.4798-1.013.7197-1.654.7197-.573 0-1.044-.1611-1.413-.4834-.365-.3258-.548-.7376-.548-1.2353 0-.6052.229-1.0742.688-1.4073.462-.3365 1.11-.5048 1.944-.5048h.967v-.4566c0-.3473-.104-.623-.312-.8271-.207-.2077-.513-.3116-.918-.3116-.355 0-.652.0896-.892.2686s-.36.3957-.36.6499h-.999c0-.29.103-.5693.307-.8379.207-.2721.487-.487.838-.6445.354-.1576.743-.2363 1.165-.2363.67 0 1.194.1682 1.574.5048.379.333.576.7932.591 1.3804v2.6748c0 .5335.068.9579.204 1.273v.0859zm-1.649-.7573c.311 0 .607-.0806.886-.2417.279-.1612.482-.3706.607-.6284v-1.1924h-.779c-1.217 0-1.826.3563-1.826 1.0688 0 .3115.104.555.311.7305.208.1754.475.2632.801.2632zm4.984-5.0542.032.7304c.444-.5585 1.024-.8378 1.741-.8378 1.228 0 1.847.6928 1.858 2.0786v3.8403h-.994v-3.8457c-.003-.4189-.1-.7287-.29-.9292-.186-.2005-.478-.3008-.875-.3008-.322 0-.605.086-.849.2578-.243.1719-.433.3975-.569.6768v4.1411h-.994v-5.8115zm4.893 2.8574c0-.9059.21-1.6257.629-2.1592.419-.5371.974-.8056 1.665-.8056.709 0 1.262.2506 1.659.7519l.049-.6445h.907v5.6719c0 .7519-.223 1.3445-.671 1.7778-.444.4333-1.042.6499-1.794.6499-.419 0-.829-.0895-1.23-.2686-.401-.179-.707-.4243-.918-.7358l.515-.5962c.426.5264.947.7896 1.563.7896.484 0 .86-.1361 1.128-.4083.272-.2721.408-.6552.408-1.1494v-.4995c-.397.4584-.94.6875-1.627.6875-.68 0-1.232-.2739-1.654-.8218-.419-.5478-.629-1.2944-.629-2.2397zm.999.1128c0 .6553.135 1.1709.403 1.5469.269.3724.645.5586 1.128.5586.627 0 1.087-.2847 1.38-.854v-2.6534c-.304-.555-.761-.8325-1.369-.8325-.484 0-.861.188-1.134.564-.272.376-.408.9328-.408 1.6704zm7.826 2.9487c-.788 0-1.429-.2578-1.923-.7734-.494-.5192-.741-1.2121-.741-2.0786v-.1826c0-.5765.109-1.0904.327-1.5416.223-.4547.53-.8092.924-1.0634.398-.2578.827-.3867 1.289-.3867.756 0 1.343.2488 1.762.7465.419.4978.629 1.2103.629 2.1377v.4136h-3.937c.014.5729.18 1.0366.499 1.3911.322.3509.73.5264 1.225.5264.351 0 .648-.0716.891-.2149.244-.1432.457-.333.639-.5693l.607.4727c-.487.7483-1.217 1.1225-2.191 1.1225zm-.124-5.2099c-.401 0-.737.1468-1.009.4404-.273.29-.441.6982-.505 1.2246h2.911v-.0752c-.029-.5049-.165-.8952-.408-1.1709-.244-.2793-.573-.4189-.989-.4189zm8.605 4.3989c.354 0 .664-.1074.929-.3223.265-.2148.412-.4834.441-.8056h.939c-.017.333-.132.6499-.343.9506-.212.3008-.494.5407-.849.7198-.351.179-.723.2685-1.117.2685-.791 0-1.422-.2632-1.891-.7895-.465-.53-.698-1.2533-.698-2.17v-.1665c0-.5657.104-1.0688.312-1.5092.207-.4405.504-.7824.891-1.0259.39-.2435.851-.3652 1.381-.3652.651 0 1.192.1951 1.622.5854.433.3903.664.897.692 1.52h-.939c-.029-.376-.172-.6839-.43-.9238-.254-.2435-.57-.3652-.945-.3652-.505 0-.897.1826-1.177.5478-.275.3617-.413.8862-.413 1.5737v.188c0 .6696.138 1.1853.413 1.5469.276.3617.67.5425 1.182.5425zm3.163-2.2559c0-.5693.111-1.0814.333-1.5361.226-.4548.538-.8057.935-1.0527.401-.2471.858-.3706 1.37-.3706.791 0 1.43.2739 1.917.8217.491.5479.736 1.2766.736 2.1861v.0698c0 .5657-.109 1.0742-.328 1.5254-.215.4476-.524.7967-.929 1.0473-.401.2507-.863.376-1.386.376-.787 0-1.427-.2739-1.917-.8218-.487-.5478-.731-1.2729-.731-2.1752zm.999.1182c0 .6445.149 1.1619.446 1.5522.301.3903.702.5855 1.203.5855.505 0 .906-.197 1.204-.5908.297-.3975.445-.9525.445-1.6651 0-.6373-.152-1.153-.456-1.5468-.301-.3975-.702-.5962-1.203-.5962-.491 0-.887.1951-1.187.5854-.301.3903-.452.9489-.452 1.6758zm6.618 2.8413h-.994v-8.25h.994zm1.332-2.9595c0-.5693.111-1.0814.333-1.5361.225-.4548.537-.8057.934-1.0527.401-.2471.858-.3706 1.37-.3706.791 0 1.43.2739 1.917.8217.491.5479.736 1.2766.736 2.1861v.0698c0 .5657-.109 1.0742-.327 1.5254-.215.4476-.525.7967-.93 1.0473-.401.2507-.863.376-1.385.376-.788 0-1.427-.2739-1.918-.8218-.487-.5478-.73-1.2729-.73-2.1752zm.999.1182c0 .6445.148 1.1619.446 1.5522.3.3903.701.5855 1.203.5855.505 0 .906-.197 1.203-.5908.297-.3975.446-.9525.446-1.6651 0-.6373-.153-1.153-.457-1.5468-.301-.3975-.702-.5962-1.203-.5962-.491 0-.886.1951-1.187.5854s-.451.9489-.451 1.6758zm8.346-2.0786c-.15-.0251-.313-.0376-.488-.0376-.652 0-1.094.2775-1.327.8325v4.125h-.994v-5.8115h.967l.016.6714c.326-.5192.788-.7788 1.386-.7788.193 0 .34.025.44.0751zm4.303 3.3784c0-.2686-.102-.4762-.307-.6231-.2-.1503-.553-.2792-1.058-.3867-.501-.1074-.9-.2363-1.197-.3867-.294-.1504-.512-.3294-.656-.5371-.139-.2077-.209-.4548-.209-.7412 0-.4762.2-.8791.601-1.2085.405-.3294.921-.4941 1.547-.4941.659 0 1.193.17 1.601.5102.412.3402.618.7752.618 1.3052h-.999c0-.2722-.117-.5067-.35-.7036-.229-.197-.519-.2954-.87-.2954-.361 0-.644.0787-.848.2363-.204.1575-.306.3634-.306.6177 0 .2399.094.4207.284.5424.19.1218.532.2382 1.026.3492.498.111.901.2435 1.209.3974.308.154.535.3402.682.5586.15.2149.225.478.225.7896 0 .5192-.207.9363-.623 1.2514-.415.3116-.954.4673-1.616.4673-.466 0-.878-.0823-1.236-.247-.358-.1648-.639-.3939-.843-.6875-.201-.2972-.301-.6177-.301-.9615h.994c.018.333.15.598.397.7949.251.1934.58.2901.989.2901.376 0 .676-.0752.902-.2256.229-.154.344-.3581.344-.6123z" fill="#000"/><path d="m55.8687.831055h-1.1426v3.168945h-.4663v-3.168945h-1.1402v-.385743h2.7491zm.9082.847165c.2002-.24577.4606-.36865.7812-.36865.5583 0 .8398.31494.8447.94482v1.74561h-.4516v-1.74805c-.0017-.19043-.0456-.33121-.1319-.42236-.0846-.09115-.2172-.13672-.3979-.13672-.1465 0-.2751.03906-.3858.11719-.1106.07812-.1969.18066-.2587.30762v1.88232h-.4517v-3.75h.4517zm3.3984 2.37061c-.3581 0-.6494-.11719-.874-.35156-.2246-.23601-.3369-.55095-.3369-.94483v-.08301c0-.26204.0496-.4956.1489-.70068.1009-.20671.2409-.36784.4199-.4834.1807-.11719.376-.17578.5859-.17578.3435 0 .6104.11312.8008.33936.1905.22623.2857.55013.2857.97168v.18798h-1.7896c.0065.26042.0822.4712.2271.63233.1465.1595.332.23926.5566.23926.1595 0 .2946-.03256.4053-.09766s.2075-.15137.2905-.25879l.2759.21484c-.2214.34017-.5534.51026-.9961.51026zm-.0562-2.36817c-.1823 0-.3352.06674-.4589.2002-.1237.13184-.2002.31738-.2295.55664h1.3232v-.03418c-.013-.22949-.0749-.4069-.1855-.53223-.1107-.12695-.2605-.19043-.4493-.19043zm2.0362-.32226.0122.29297c.1937-.22787.4549-.3418.7837-.3418.3694 0 .6209.1416.7544.42481.0879-.12696.2018-.2295.3418-.30762.1416-.07813.3084-.11719.5005-.11719.5794 0 .874.3068.8837.92041v1.77002h-.4516v-1.74316c0-.18881-.0432-.32959-.1294-.42237-.0863-.0944-.2311-.1416-.4346-.1416-.1676 0-.3068.05046-.4175.15137-.1106.09928-.1749.23356-.1928.40283v1.75293h-.4541v-1.73096c0-.38411-.188-.57617-.564-.57617-.2962 0-.4989.12614-.6079.37842v1.92871h-.4517v-2.6416zm5.0561 2.69043c-.358 0-.6494-.11719-.874-.35156-.2246-.23601-.3369-.55095-.3369-.94483v-.08301c0-.26204.0496-.4956.1489-.70068.1009-.20671.2409-.36784.4199-.4834.1807-.11719.376-.17578.586-.17578.3434 0 .6103.11312.8008.33936.1904.22623.2856.55013.2856.97168v.18798h-1.7896c.0066.26042.0822.4712.2271.63233.1465.1595.332.23926.5566.23926.1595 0 .2946-.03256.4053-.09766s.2075-.15137.2905-.25879l.2759.21484c-.2213.34017-.5534.51026-.9961.51026zm-.0561-2.36817c-.1823 0-.3353.06674-.459.2002-.1237.13184-.2002.31738-.2295.55664h1.3232v-.03418c-.013-.22949-.0748-.4069-.1855-.53223-.1107-.12695-.2604-.19043-.4492-.19043zm3.2788-.32226.0146.33203c.2019-.25391.4655-.38086.791-.38086.5583 0 .8399.31494.8448.94482v1.74561h-.4517v-1.74805c-.0016-.19043-.0456-.33121-.1318-.42236-.0847-.09115-.2173-.13672-.398-.13672-.1465 0-.275.03906-.3857.11719-.1107.07812-.197.18066-.2588.30762v1.88232h-.4517v-2.6416zm3.9624 2.6416c-.0261-.05208-.0472-.14486-.0635-.27832-.21.2181-.4606.32715-.7519.32715-.2605 0-.4745-.07324-.6421-.21973-.1661-.14811-.2491-.33528-.2491-.56152 0-.27507.1042-.48828.3125-.63965.21-.153.5046-.22949.8838-.22949h.4395v-.20752c0-.15788-.0472-.28321-.1416-.37598-.0944-.0944-.2336-.1416-.4175-.1416-.1611 0-.2962.04069-.4053.12207-.109.08138-.1635.17985-.1635.29541h-.4541c0-.13184.0463-.25879.1391-.38086.0944-.1237.2214-.22135.3809-.29297.1611-.07161.3377-.10742.5298-.10742.3043 0 .5428.0765.7153.22949.1725.15137.262.36052.2685.62744v1.21582c0 .24252.031.43539.0928.57862v.03906zm-.7495-.34424c.1416 0 .2759-.03662.4028-.10986.127-.07324.2189-.16846.2759-.28565v-.54199h-.354c-.5534 0-.8301.16195-.8301.48584 0 .1416.0472.25228.1416.33203.0944.07976.2157.11963.3638.11963zm2.2632-2.29736.0122.29297c.1936-.22787.4549-.3418.7837-.3418.3694 0 .6209.1416.7543.42481.0879-.12696.2019-.2295.3418-.30762.1416-.07813.3085-.11719.5005-.11719.5795 0 .8741.3068.8838.92041v1.77002h-.4516v-1.74316c0-.18881-.0432-.32959-.1294-.42237-.0863-.0944-.2312-.1416-.4346-.1416-.1676 0-.3068.05046-.4175.15137-.1107.09928-.1749.23356-.1929.40283v1.75293h-.4541v-1.73096c0-.38411-.1879-.57617-.5639-.57617-.2962 0-.4989.12614-.6079.37842v1.92871h-.4517v-2.6416zm5.0561 2.69043c-.3581 0-.6494-.11719-.874-.35156-.2246-.23601-.3369-.55095-.3369-.94483v-.08301c0-.26204.0496-.4956.1489-.70068.1009-.20671.2409-.36784.4199-.4834.1807-.11719.376-.17578.586-.17578.3434 0 .6103.11312.8007.33936.1905.22623.2857.55013.2857.97168v.18798h-1.7896c.0065.26042.0822.4712.2271.63233.1465.1595.332.23926.5566.23926.1595 0 .2946-.03256.4053-.09766s.2075-.15137.2905-.25879l.2759.21484c-.2214.34017-.5534.51026-.9961.51026zm-.0561-2.36817c-.1823 0-.3353.06674-.459.2002-.1237.13184-.2002.31738-.2295.55664h1.3232v-.03418c-.013-.22949-.0748-.4069-.1855-.53223-.1107-.12695-.2604-.19043-.4492-.19043z" fill="#000"/><path d="m53.9077 16v-7.82031h2.2075c.6804 0 1.2819.15039 1.8047.45117s.9256.72868 1.2085 1.28369c.2865.55505.4315 1.19235.4351 1.91215v.4995c0 .7376-.1433 1.3839-.4297 1.9389-.2829.555-.6893.9812-1.2192 1.2784-.5264.2972-1.1405.4493-1.8423.4565zm1.0313-6.97168v6.12838h1.0849c.7949 0 1.4126-.247 1.8531-.7412.444-.4941.666-1.1977.666-2.1108v-.4566c0-.888-.2095-1.5773-.6284-2.06783-.4154-.49414-1.0062-.74479-1.7725-.75195zm9.6196 6.97168c-.0573-.1146-.1038-.3187-.1397-.6123-.4619.4798-1.0133.7197-1.6543.7197-.5729 0-1.0437-.1611-1.4125-.4834-.3653-.3258-.5479-.7376-.5479-1.2353 0-.6052.2292-1.0742.6875-1.4073.4619-.3365 1.11-.5048 1.9443-.5048h.9668v-.4566c0-.3473-.1038-.623-.3115-.8271-.2077-.2077-.5138-.3116-.9184-.3116-.3545 0-.6517.0896-.8917.2686-.2399.179-.3598.3957-.3598.6499h-.999c0-.29.102-.5693.3061-.8379.2077-.2721.487-.487.8379-.6445.3545-.1576.743-.2363 1.1655-.2363.6696 0 1.1942.1682 1.5738.5048.3795.333.5765.7932.5908 1.3804v2.6748c0 .5335.068.9579.2041 1.273v.0859zm-1.6489-.7573c.3115 0 .6069-.0806.8862-.2417.2793-.1612.4816-.3706.6069-.6284v-1.1924h-.7788c-1.2174 0-1.8261.3563-1.8261 1.0688 0 .3115.1038.555.3115.7305.2077.1754.4744.2632.8003.2632zm6.8535-4.1626c-.1504-.0251-.3133-.0376-.4888-.0376-.6517 0-1.0939.2775-1.3266.8325v4.125h-.9937v-5.8115h.9668l.0161.6714c.3259-.5192.7878-.7788 1.3858-.7788.1933 0 .3401.025.4404.0751zm2.5405 2.229-.623.6499v2.041h-.9937v-8.25h.9937v4.9897l.5317-.6391 1.8101-1.9121h1.2085l-2.2613 2.4277 2.5244 3.3838h-1.1655z" fill="#000"/><rect fill="#6629c4" height="13" rx="1.5" stroke="#000" width="48" x="53.5" y="23.5"/><rect fill="#1e7075" height="13" rx="1.5" stroke="#000" width="48" x="53.5" y="41.5"/><rect fill="#fff" height="13" rx="1.5" stroke="#000" width="48" x="53.5" y="59.5"/><path d="m48.5 19.5h62v58h-62z" stroke="#000"/><g fill="#000"><path d="m47 18h4v4h-4z"/><path d="m47 75h4v4h-4z"/><path d="m108 75h4v4h-4z"/><path d="m108 18h4v4h-4z"/></g><g filter="url(#a)"><path d="m110 33.5758v-13.5758l9.697 9.697h-3.879l1.94 5.2363-2.91 1.0667-1.939-5.2364z" fill="#000"/><path d="m110 33.5758v-13.5758l9.697 9.697h-3.879l1.94 5.2363-2.91 1.0667-1.939-5.2364z" stroke="#fff" stroke-width="1.5"/></g><path d="m0-1h320v35h-320z" fill="url(#b)"/></g></svg>