<svg fill="none" height="110" viewBox="0 0 320 110" width="320" xmlns="http://www.w3.org/2000/svg" xmlns:xlink="http://www.w3.org/1999/xlink"><linearGradient id="a" gradientUnits="userSpaceOnUse" x1="160" x2="160" y1="-1" y2="34"><stop offset="0" stop-color="#4992ff"/><stop offset="1" stop-color="#4992ff" stop-opacity="0"/></linearGradient><clipPath id="b"><path d="m0 0h320v110h-320z"/></clipPath><g clip-path="url(#b)"><path d="m0 0h320v110h-320z" fill="#4992ff"/><circle cx="101" cy="62" fill="#f4d150" r="11" stroke="#000" stroke-width="2"/><rect height="23" rx="1.5" stroke="#fff" width="109" x="121.5" y="50.5"/><path d="m132.363 65.2324c.387 0 .725-.1172 1.014-.3515.289-.2344.449-.5274.48-.8789h1.026c-.02.3632-.145.7089-.375 1.0371-.231.3281-.539.5898-.926.7851-.383.1953-.789.293-1.219.293-.863 0-1.551-.2871-2.062-.8613-.508-.5782-.762-1.3672-.762-2.3672v-.1817c0-.6172.113-1.166.34-1.6465.226-.4804.551-.8535.973-1.1191.425-.2656.927-.3984 1.505-.3984.711 0 1.301.2129 1.77.6386.473.4258.725.9786.756 1.6582h-1.026c-.031-.4101-.187-.746-.468-1.0078-.278-.2656-.621-.3984-1.032-.3984-.55 0-.978.1992-1.283.5976-.301.3946-.451.9668-.451 1.7168v.2051c0 .7305.15 1.293.451 1.6875.301.3946.731.5918 1.289.5918zm3.451-2.4609c0-.6211.122-1.1797.364-1.6758.246-.4961.586-.8789 1.019-1.1484.438-.2696.936-.4043 1.494-.4043.864 0 1.561.2988 2.092.8965.535.5976.803 1.3925.803 2.3847v.0762c0 .6172-.119 1.1719-.357 1.6641-.235.4882-.573.8691-1.014 1.1425-.438.2735-.942.4102-1.512.4102-.859 0-1.557-.2988-2.092-.8965-.531-.5977-.797-1.3887-.797-2.373zm1.09.1289c0 .7031.162 1.2676.487 1.6934.328.4257.765.6386 1.312.6386.551 0 .988-.2148 1.313-.6445.324-.4336.486-1.0391.486-1.8164 0-.6953-.166-1.2578-.498-1.6875-.328-.4336-.766-.6504-1.313-.6504-.535 0-.966.2129-1.295.6387-.328.4257-.492 1.0351-.492 1.8281zm7.219 3.0996h-1.084v-9h1.084zm1.453-3.2285c0-.6211.121-1.1797.363-1.6758.247-.4961.586-.8789 1.02-1.1484.437-.2696.936-.4043 1.494-.4043.863 0 1.561.2988 2.092.8965.535.5976.803 1.3925.803 2.3847v.0762c0 .6172-.119 1.1719-.358 1.6641-.234.4882-.572.8691-1.013 1.1425-.438.2735-.942.4102-1.512.4102-.86 0-1.557-.2988-2.092-.8965-.531-.5977-.797-1.3887-.797-2.373zm1.09.1289c0 .7031.162 1.2676.486 1.6934.328.4257.766.6386 1.313.6386.551 0 .988-.2148 1.312-.6445.325-.4336.487-1.0391.487-1.8164 0-.6953-.166-1.2578-.498-1.6875-.328-.4336-.766-.6504-1.313-.6504-.535 0-.967.2129-1.295.6387-.328.4257-.492 1.0351-.492 1.8281zm9.105-2.2676c-.164-.0273-.341-.041-.533-.041-.711 0-1.193.3027-1.447.9082v4.5h-1.084v-6.3398h1.055l.017.7324c.356-.5664.86-.8496 1.512-.8496.211 0 .371.0273.48.082zm3.258 2.1856h-2.859v-.8848h2.859zm4.975 3.1816c-.063-.125-.113-.3477-.152-.668-.504.5235-1.106.7852-1.805.7852-.625 0-1.139-.1758-1.541-.5274-.399-.3554-.598-.8046-.598-1.3476 0-.6602.25-1.1719.75-1.5352.504-.3672 1.211-.5508 2.121-.5508h1.055v-.498c0-.3789-.113-.6797-.34-.9023-.226-.2266-.56-.3399-1.002-.3399-.387 0-.711.0977-.972.293-.262.1953-.393.4316-.393.709h-1.09c0-.3164.111-.6211.334-.9141.227-.2969.531-.5312.914-.7031.387-.1719.811-.2578 1.272-.2578.73 0 1.302.1836 1.716.5508.415.3632.629.8652.645 1.5058v2.918c0 .582.074 1.0449.223 1.3886v.0938zm-1.799-.8262c.34 0 .662-.0879.967-.2636.305-.1758.525-.4043.662-.6856v-1.3008h-.85c-1.328 0-1.992.3887-1.992 1.166 0 .3399.113.6055.34.7969s.518.2871.873.2871zm5.59.8262h-1.084v-9h1.084zm4.371.1172c-.859 0-1.559-.2813-2.098-.8438-.539-.5664-.808-1.3222-.808-2.2675v-.1993c0-.6289.119-1.1894.357-1.6816.242-.4961.578-.8828 1.008-1.1602.434-.2812.902-.4218 1.406-.4218.824 0 1.465.2715 1.922.8144.457.543.686 1.3203.686 2.3321v.4511h-4.295c.015.625.197 1.1309.545 1.5176.351.3828.797.5742 1.336.5742.382 0 .707-.0781.972-.2344.266-.1562.498-.3632.698-.621l.662.5156c-.532.8164-1.328 1.2246-2.391 1.2246zm-.135-5.6836c-.437 0-.804.1602-1.101.4805-.297.3164-.481.7617-.551 1.3359h3.176v-.082c-.032-.5508-.18-.9766-.446-1.2774-.265-.3047-.625-.457-1.078-.457zm6.932.1992c-.164-.0273-.342-.041-.533-.041-.711 0-1.194.3027-1.448.9082v4.5h-1.084v-6.3398h1.055l.018.7324c.355-.5664.859-.8496 1.511-.8496.211 0 .372.0273.481.082zm2.766-2.5078v1.5352h1.183v.8378h-1.183v3.9317c0 .2539.052.4453.158.5742.105.125.285.1875.539.1875.125 0 .297-.0234.515-.0703v.8789c-.285.0781-.562.1172-.832.1172-.484 0-.849-.1465-1.095-.4395-.246-.2929-.369-.7089-.369-1.248v-3.9317h-1.155v-.8378h1.155v-1.5352z" fill="#f7f7f7"/><path d="m186 54h1v16h-1z" fill="#fff" opacity=".4"/><circle cx="101" cy="34" fill="#0fa958" r="11" stroke="#000" stroke-width="2"/><path d="m132.363 37.2324c.387 0 .725-.1172 1.014-.3515.289-.2344.449-.5274.48-.8789h1.026c-.02.3632-.145.7089-.375 1.0371-.231.3281-.539.5898-.926.7851-.383.1953-.789.293-1.219.293-.863 0-1.551-.2871-2.062-.8613-.508-.5782-.762-1.3672-.762-2.3672v-.1817c0-.6172.113-1.166.34-1.6465.226-.4804.551-.8535.973-1.1191.425-.2656.927-.3984 1.505-.3984.711 0 1.301.2129 1.77.6386.473.4258.725.9786.756 1.6582h-1.026c-.031-.4101-.187-.746-.468-1.0078-.278-.2656-.621-.3984-1.032-.3984-.55 0-.978.1992-1.283.5976-.301.3946-.451.9668-.451 1.7168v.2051c0 .7305.15 1.293.451 1.6875.301.3946.731.5918 1.289.5918zm3.451-2.4609c0-.6211.122-1.1797.364-1.6758.246-.4961.586-.8789 1.019-1.1484.438-.2696.936-.4043 1.494-.4043.864 0 1.561.2988 2.092.8965.535.5976.803 1.3925.803 2.3847v.0762c0 .6172-.119 1.1719-.357 1.6641-.235.4882-.573.8691-1.014 1.1425-.438.2735-.942.4102-1.512.4102-.859 0-1.557-.2988-2.092-.8965-.531-.5977-.797-1.3887-.797-2.373zm1.09.1289c0 .7031.162 1.2676.487 1.6934.328.4257.765.6386 1.312.6386.551 0 .988-.2148 1.313-.6445.324-.4336.486-1.0391.486-1.8164 0-.6953-.166-1.2578-.498-1.6875-.328-.4336-.766-.6504-1.313-.6504-.535 0-.966.2129-1.295.6387-.328.4257-.492 1.0351-.492 1.8281zm7.219 3.0996h-1.084v-9h1.084zm1.453-3.2285c0-.6211.121-1.1797.363-1.6758.247-.4961.586-.8789 1.02-1.1484.437-.2696.936-.4043 1.494-.4043.863 0 1.561.2988 2.092.8965.535.5976.803 1.3925.803 2.3847v.0762c0 .6172-.119 1.1719-.358 1.6641-.234.4882-.572.8691-1.013 1.1425-.438.2735-.942.4102-1.512.4102-.86 0-1.557-.2988-2.092-.8965-.531-.5977-.797-1.3887-.797-2.373zm1.09.1289c0 .7031.162 1.2676.486 1.6934.328.4257.766.6386 1.313.6386.551 0 .988-.2148 1.312-.6445.325-.4336.487-1.0391.487-1.8164 0-.6953-.166-1.2578-.498-1.6875-.328-.4336-.766-.6504-1.313-.6504-.535 0-.967.2129-1.295.6387-.328.4257-.492 1.0351-.492 1.8281zm9.105-2.2676c-.164-.0273-.341-.041-.533-.041-.711 0-1.193.3027-1.447.9082v4.5h-1.084v-6.3398h1.055l.017.7324c.356-.5664.86-.8496 1.512-.8496.211 0 .371.0273.48.082zm3.258 2.1856h-2.859v-.8848h2.859zm4.752 1.5c0-.293-.111-.5196-.334-.6797-.218-.1641-.603-.3047-1.154-.4219-.547-.1172-.982-.2578-1.307-.4219-.32-.164-.558-.3594-.715-.5859-.152-.2266-.228-.4961-.228-.8086 0-.5195.219-.959.656-1.3184.442-.3593 1.004-.539 1.688-.539.718 0 1.301.1855 1.746.5566.449.3711.674.8457.674 1.4238h-1.09c0-.2968-.127-.5527-.381-.7675-.25-.2149-.566-.3223-.949-.3223-.395 0-.703.0859-.926.2578s-.334.3965-.334.6738c0 .2618.103.459.311.5918.207.1328.58.2598 1.119.3809.543.1211.982.2656 1.318.4336s.584.3711.744.6094c.164.2343.246.5214.246.8613 0 .5664-.226 1.0215-.679 1.3652-.454.3399-1.041.5098-1.764.5098-.508 0-.957-.0899-1.348-.2695-.39-.1797-.697-.4297-.92-.75-.218-.3243-.328-.6739-.328-1.0489h1.084c.02.3633.164.6524.434.8672.273.211.633.3164 1.078.3164.41 0 .738-.082.984-.2461.25-.1679.375-.3906.375-.6679zm6.41 1.0546c-.421.4961-1.041.7442-1.857.7442-.676 0-1.191-.1953-1.547-.586-.351-.3945-.529-.9765-.533-1.746v-4.125h1.084v4.0957c0 .9609.391 1.4414 1.172 1.4414.828 0 1.379-.3086 1.652-.9258v-4.6113h1.084v6.3398h-1.031zm5.25-.1406c.387 0 .725-.1172 1.014-.3515.289-.2344.449-.5274.481-.8789h1.025c-.02.3632-.145.7089-.375 1.0371-.231.3281-.539.5898-.926.7851-.383.1953-.789.293-1.219.293-.863 0-1.55-.2871-2.062-.8613-.508-.5782-.762-1.3672-.762-2.3672v-.1817c0-.6172.113-1.166.34-1.6465.227-.4804.551-.8535.973-1.1191.425-.2656.927-.3984 1.506-.3984.71 0 1.3.2129 1.769.6386.473.4258.725.9786.756 1.6582h-1.025c-.032-.4101-.188-.746-.469-1.0078-.278-.2656-.621-.3984-1.031-.3984-.551 0-.979.1992-1.284.5976-.3.3946-.451.9668-.451 1.7168v.2051c0 .7305.151 1.293.451 1.6875.301.3946.731.5918 1.289.5918zm6.282 0c.386 0 .724-.1172 1.013-.3515.289-.2344.45-.5274.481-.8789h1.025c-.019.3632-.144.7089-.375 1.0371-.23.3281-.539.5898-.926.7851-.382.1953-.789.293-1.218.293-.864 0-1.551-.2871-2.063-.8613-.508-.5782-.762-1.3672-.762-2.3672v-.1817c0-.6172.114-1.166.34-1.6465.227-.4804.551-.8535.973-1.1191.426-.2656.928-.3984 1.506-.3984.711 0 1.301.2129 1.769.6386.473.4258.725.9786.756 1.6582h-1.025c-.031-.4101-.188-.746-.469-1.0078-.277-.2656-.621-.3984-1.031-.3984-.551 0-.979.1992-1.283.5976-.301.3946-.452.9668-.452 1.7168v.2051c0 .7305.151 1.293.452 1.6875.3.3946.73.5918 1.289.5918zm6.369.8848c-.86 0-1.559-.2813-2.098-.8438-.539-.5664-.808-1.3222-.808-2.2675v-.1993c0-.6289.119-1.1894.357-1.6816.242-.4961.578-.8828 1.008-1.1602.433-.2812.902-.4218 1.406-.4218.824 0 1.465.2715 1.922.8144.457.543.685 1.3203.685 2.3321v.4511h-4.294c.015.625.197 1.1309.544 1.5176.352.3828.797.5742 1.336.5742.383 0 .707-.0781.973-.2344.266-.1562.498-.3632.697-.621l.662.5156c-.531.8164-1.328 1.2246-2.39 1.2246zm-.135-5.6836c-.437 0-.805.1602-1.102.4805-.296.3164-.48.7617-.55 1.3359h3.175v-.082c-.031-.5508-.179-.9766-.445-1.2774-.265-.3047-.625-.457-1.078-.457zm7.559 3.8848c0-.293-.112-.5196-.334-.6797-.219-.1641-.604-.3047-1.155-.4219-.547-.1172-.982-.2578-1.306-.4219-.321-.164-.559-.3594-.715-.5859-.152-.2266-.229-.4961-.229-.8086 0-.5195.219-.959.657-1.3184.441-.3593 1.004-.539 1.687-.539.719 0 1.301.1855 1.746.5566.449.3711.674.8457.674 1.4238h-1.09c0-.2968-.127-.5527-.381-.7675-.25-.2149-.566-.3223-.949-.3223-.394 0-.703.0859-.926.2578-.222.1719-.334.3965-.334.6738 0 .2618.104.459.311.5918s.58.2598 1.119.3809c.543.1211.982.2656 1.318.4336s.584.3711.745.6094c.164.2343.246.5214.246.8613 0 .5664-.227 1.0215-.68 1.3652-.453.3399-1.041.5098-1.764.5098-.508 0-.957-.0899-1.347-.2695-.391-.1797-.698-.4297-.92-.75-.219-.3243-.328-.6739-.328-1.0489h1.084c.019.3633.164.6524.433.8672.274.211.633.3164 1.078.3164.41 0 .739-.082.985-.2461.25-.1679.375-.3906.375-.6679zm6.187 0c0-.293-.111-.5196-.334-.6797-.219-.1641-.603-.3047-1.154-.4219-.547-.1172-.983-.2578-1.307-.4219-.32-.164-.558-.3594-.715-.5859-.152-.2266-.228-.4961-.228-.8086 0-.5195.219-.959.656-1.3184.441-.3593 1.004-.539 1.688-.539.718 0 1.3.1855 1.746.5566.449.3711.674.8457.674 1.4238h-1.09c0-.2968-.127-.5527-.381-.7675-.25-.2149-.567-.3223-.949-.3223-.395 0-.704.0859-.926.2578-.223.1719-.334.3965-.334.6738 0 .2618.103.459.31.5918s.58.2598 1.12.3809c.542.1211.982.2656 1.318.4336s.584.3711.744.6094c.164.2343.246.5214.246.8613 0 .5664-.226 1.0215-.68 1.3652-.453.3399-1.041.5098-1.763.5098-.508 0-.957-.0899-1.348-.2695-.391-.1797-.697-.4297-.92-.75-.219-.3243-.328-.6739-.328-1.0489h1.084c.02.3633.164.6524.434.8672.273.211.632.3164 1.078.3164.41 0 .738-.082.984-.2461.25-.1679.375-.3906.375-.6679z" fill="#000"/><circle cx="101" cy="6" fill="#d6c0f8" r="11" stroke="#000" stroke-width="2"/><path d="m132.363 9.23242c.387 0 .725-.11719 1.014-.35156.289-.23438.449-.52734.48-.87891h1.026c-.02.36328-.145.70899-.375 1.03711-.231.32813-.539.58985-.926.78516-.383.19528-.789.29298-1.219.29298-.863 0-1.551-.28712-2.062-.86134-.508-.57813-.762-1.36719-.762-2.36719v-.18164c0-.61719.113-1.16601.34-1.64648.226-.48047.551-.85352.973-1.11914.425-.26563.927-.39844 1.505-.39844.711 0 1.301.21289 1.77.63867.473.42578.725.97852.756 1.6582h-1.026c-.031-.41015-.187-.74609-.468-1.00781-.278-.26562-.621-.39844-1.032-.39844-.55 0-.978.19922-1.283.59766-.301.39453-.451.9668-.451 1.7168v.20507c0 .73047.15 1.29297.451 1.6875.301.39454.731.5918 1.289.5918zm3.451-2.46094c0-.62109.122-1.17968.364-1.67578.246-.49609.586-.8789 1.019-1.14843.438-.26954.936-.4043 1.494-.4043.864 0 1.561.29883 2.092.89648.535.59766.803 1.39258.803 2.38477v.07617c0 .61719-.119 1.17188-.357 1.66406-.235.48828-.573.86914-1.014 1.14258-.438.27344-.942.41017-1.512.41017-.859 0-1.557-.29884-2.092-.8965-.531-.59765-.797-1.38867-.797-2.37304zm1.09.12891c0 .70313.162 1.26758.487 1.69336.328.42578.765.63867 1.312.63867.551 0 .988-.21484 1.313-.64453.324-.43359.486-1.03906.486-1.81641 0-.69531-.166-1.25781-.498-1.6875-.328-.43359-.766-.65039-1.313-.65039-.535 0-.966.21289-1.295.63868-.328.42578-.492 1.03515-.492 1.82812zm7.219 3.09961h-1.084v-9h1.084zm1.453-3.22852c0-.62109.121-1.17968.363-1.67578.247-.49609.586-.8789 1.02-1.14843.437-.26954.936-.4043 1.494-.4043.863 0 1.561.29883 2.092.89648.535.59766.803 1.39258.803 2.38477v.07617c0 .61719-.119 1.17188-.358 1.66406-.234.48828-.572.86914-1.013 1.14258-.438.27344-.942.41017-1.512.41017-.86 0-1.557-.29884-2.092-.8965-.531-.59765-.797-1.38867-.797-2.37304zm1.09.12891c0 .70313.162 1.26758.486 1.69336.328.42578.766.63867 1.313.63867.551 0 .988-.21484 1.312-.64453.325-.43359.487-1.03906.487-1.81641 0-.69531-.166-1.25781-.498-1.6875-.328-.43359-.766-.65039-1.313-.65039-.535 0-.967.21289-1.295.63868-.328.42578-.492 1.03515-.492 1.82812zm9.105-2.26758c-.164-.02734-.341-.04101-.533-.04101-.711 0-1.193.30273-1.447.9082v4.5h-1.084v-6.33984h1.055l.017.73242c.356-.56641.86-.84961 1.512-.84961.211 0 .371.02734.48.08203zm3.258 2.18555h-2.859v-.88477h2.859zm4.975 3.18164c-.063-.125-.113-.34766-.152-.66797-.504.52344-1.106.78517-1.805.78517-.625 0-1.139-.17579-1.541-.52736-.399-.35546-.598-.80468-.598-1.34765 0-.66016.25-1.17188.75-1.53516.504-.36719 1.211-.55078 2.121-.55078h1.055v-.49805c0-.3789-.113-.67968-.34-.90234-.226-.22656-.56-.33984-1.002-.33984-.387 0-.711.09765-.972.29296-.262.19532-.393.43164-.393.70899h-1.09c0-.31641.111-.62109.334-.91406.227-.29688.531-.53125.914-.70313.387-.17187.811-.25781 1.272-.25781.73 0 1.302.18359 1.716.55078.415.36328.629.86523.645 1.50586v2.91797c0 .58203.074 1.04492.223 1.38867v.09375zm-1.799-.82617c.34 0 .662-.08789.967-.26367s.525-.4043.662-.68555v-1.30078h-.85c-1.328 0-1.992.38867-1.992 1.16601 0 .33985.113.60547.34.79688.227.1914.518.28711.873.28711zm6.955.05859c.387 0 .725-.11719 1.014-.35156.289-.23438.449-.52734.48-.87891h1.026c-.02.36328-.145.70899-.375 1.03711-.231.32813-.539.58985-.926.78516-.383.19528-.789.29298-1.219.29298-.863 0-1.551-.28712-2.062-.86134-.508-.57813-.762-1.36719-.762-2.36719v-.18164c0-.61719.113-1.16601.34-1.64648.226-.48047.551-.85352.972-1.11914.426-.26563.928-.39844 1.506-.39844.711 0 1.301.21289 1.77.63867.472.42578.724.97852.756 1.6582h-1.026c-.031-.41015-.187-.74609-.468-1.00781-.278-.26562-.622-.39844-1.032-.39844-.55 0-.978.19922-1.283.59766-.301.39453-.451.9668-.451 1.7168v.20507c0 .73047.15 1.29297.451 1.6875.301.39454.731.5918 1.289.5918zm6.281 0c.387 0 .725-.11719 1.014-.35156.289-.23438.449-.52734.481-.87891h1.025c-.02.36328-.145.70899-.375 1.03711-.231.32813-.539.58985-.926.78516-.383.19528-.789.29298-1.219.29298-.863 0-1.55-.28712-2.062-.86134-.508-.57813-.762-1.36719-.762-2.36719v-.18164c0-.61719.113-1.16601.34-1.64648s.551-.85352.973-1.11914c.425-.26563.927-.39844 1.506-.39844.71 0 1.3.21289 1.769.63867.473.42578.725.97852.756 1.6582h-1.025c-.032-.41015-.188-.74609-.469-1.00781-.278-.26562-.621-.39844-1.031-.39844-.551 0-.979.19922-1.284.59766-.3.39453-.451.9668-.451 1.7168v.20507c0 .73047.151 1.29297.451 1.6875.301.39454.731.5918 1.289.5918zm6.37.88478c-.86 0-1.559-.28126-2.098-.84376-.539-.56641-.809-1.32227-.809-2.26758v-.19922c0-.62891.119-1.18945.358-1.68164.242-.49609.578-.88281 1.008-1.16016.433-.28125.902-.42187 1.406-.42187.824 0 1.465.27148 1.922.81445s.685 1.32031.685 2.33203v.45117h-4.295c.016.625.198 1.13086.545 1.51758.352.38282.797.57422 1.336.57422.383 0 .707-.07812.973-.23437.265-.15625.498-.36328.697-.6211l.662.51563c-.531.8164-1.328 1.22462-2.39 1.22462zm-.135-5.68361c-.438 0-.805.16016-1.102.48047-.297.31641-.48.76172-.551 1.33594h3.176v-.08203c-.031-.55078-.179-.97656-.445-1.27735-.266-.30468-.625-.45703-1.078-.45703zm4.892-.77343.036.79687c.484-.60937 1.117-.91406 1.898-.91406 1.34 0 2.016.75586 2.027 2.26758v4.18945h-1.084v-4.19531c-.004-.45703-.109-.79492-.316-1.01367-.203-.21875-.522-.32813-.955-.32813-.352 0-.66.09375-.926.28125s-.473.43359-.621.73828v4.51758h-1.084v-6.33984zm7.067-1.53516v1.53516h1.183v.83789h-1.183v3.93164c0 .2539.053.44531.158.57422.105.125.285.1875.539.1875.125 0 .297-.02344.516-.07032v.87891c-.286.0781-.563.1172-.832.1172-.485 0-.85-.1465-1.096-.43947-.246-.29296-.369-.70898-.369-1.24804v-3.93164h-1.155v-.83789h1.155v-1.53516z" fill="#000"/><path d="m0-1h320v35h-320z" fill="url(#a)"/></g></svg>