<svg fill="none" height="110" viewBox="0 0 320 110" width="320" xmlns="http://www.w3.org/2000/svg" xmlns:xlink="http://www.w3.org/1999/xlink"><filter id="a" color-interpolation-filters="sRGB" filterUnits="userSpaceOnUse" height="36" width="36" x="146" y="34"><feFlood flood-opacity="0" result="BackgroundImageFix"/><feBlend in="SourceGraphic" in2="BackgroundImageFix" mode="normal" result="shape"/><feGaussianBlur result="effect1_foregroundBlur" stdDeviation="4"/></filter><clipPath id="b"><path d="m0 0h320v110h-320z"/></clipPath><g clip-path="url(#b)"><path d="m0 0h320v110h-320z" fill="#0fa958"/><g opacity=".5"><path d="m180 13c0-1.6569 1.343-3 3-3h94c1.657 0 3 1.3431 3 3v69c0 1.6569-1.343 3-3 3h-94c-1.657 0-3-1.3431-3-3z" fill="#494949"/><g stroke="#000"><circle cx="204" cy="25" fill="#4992ff" r="7.5"/><circle cx="204" cy="47" fill="#6529c3" r="7.5"/><circle cx="230" cy="25" fill="#1e7075" r="7.5"/><circle cx="230" cy="47" fill="#000" r="7.5"/><circle cx="256" cy="25" fill="#fff" r="7.5"/><circle cx="256" cy="47" fill="#fff" r="7.5"/></g><path d="m180 65h100v17c0 1.6569-1.343 3-3 3h-94c-1.657 0-3-1.3431-3-3z" fill="#000"/><path d="m191.055 75.7441c-.088.752-.367 1.333-.835 1.7432-.466.4069-1.086.6104-1.861.6104-.839 0-1.513-.3012-2.021-.9034-.505-.6022-.757-1.4078-.757-2.417v-.6835c0-.6609.117-1.2419.352-1.7432.237-.5013.573-.8854 1.005-1.1524.433-.2701.935-.4052 1.504-.4052.756 0 1.361.2116 1.817.6347.456.42.721 1.0026.796 1.7481h-.943c-.081-.5664-.258-.9766-.532-1.2305-.27-.2539-.649-.3808-1.138-.3808-.599 0-1.069.2213-1.411.664-.338.4427-.508 1.0726-.508 1.8897v.6884c0 .7715.162 1.3851.484 1.8409.322.4557.773.6836 1.352.6836.521 0 .92-.1172 1.197-.3516.28-.2376.465-.6494.556-1.2354zm.903-.4345c0-.5176.101-.9831.303-1.3965.205-.4134.488-.7324.849-.957.365-.2247.78-.337 1.245-.337.72 0 1.301.2491 1.744.7471.446.4981.669 1.1605.669 1.9873v.0635c0 .5143-.1.9766-.298 1.3867-.196.4069-.477.7243-.845.9522-.365.2278-.785.3418-1.26.3418-.716 0-1.297-.2491-1.743-.7471-.443-.4981-.664-1.1572-.664-1.9776zm.908.1074c0 .5859.135 1.0563.405 1.4111.274.3548.639.5323 1.094.5323.459 0 .824-.1791 1.094-.5372.27-.3613.405-.8658.405-1.5136 0-.5795-.138-1.0482-.415-1.4063-.273-.3613-.638-.542-1.094-.542-.445 0-.805.1774-1.079.5323-.273.3548-.41.8626-.41 1.5234zm6.016 2.583h-.903v-7.5h.903zm1.211-2.6904c0-.5176.101-.9831.303-1.3965.205-.4134.488-.7324.849-.957.365-.2247.78-.337 1.245-.337.72 0 1.301.2491 1.743.7471.446.4981.669 1.1605.669 1.9873v.0635c0 .5143-.099.9766-.298 1.3867-.195.4069-.476.7243-.844.9522-.365.2278-.785.3418-1.26.3418-.716 0-1.297-.2491-1.743-.7471-.443-.4981-.664-1.1572-.664-1.9776zm.908.1074c0 .5859.135 1.0563.405 1.4111.274.3548.638.5323 1.094.5323.459 0 .824-.1791 1.094-.5372.27-.3613.405-.8658.405-1.5136 0-.5795-.138-1.0482-.415-1.4063-.273-.3613-.638-.542-1.094-.542-.446 0-.805.1774-1.079.5323-.273.3548-.41.8626-.41 1.5234zm7.588-1.8897c-.137-.0227-.285-.0341-.444-.0341-.593 0-.995.2522-1.207.7568v3.75h-.903v-5.2832h.879l.015.6103c.296-.472.716-.708 1.259-.708.176 0 .31.0228.401.0684zm3.496 5.0831h-.776l2.968-7.7198h.772zm6.562-.6104v-7.1094h2.007c.619 0 1.166.1367 1.641.4102.475.2734.841.6624 1.099 1.167.26.5045.392 1.084.395 1.7383v.4541c0 .6705-.13 1.2581-.391 1.7627-.257.5045-.626.8919-1.108 1.1621-.478.2701-1.037.4085-1.675.415zm.938-6.3379v5.5713h.986c.723 0 1.284-.2246 1.685-.6738.404-.4492.605-1.0889.605-1.919v-.415c0-.8073-.19-1.4339-.571-1.8799-.378-.4492-.915-.6771-1.611-.6836zm8.745 6.3379c-.052-.1042-.094-.2897-.127-.5566-.42.4362-.921.6543-1.504.6543-.521 0-.949-.1465-1.284-.4395-.332-.2962-.498-.6706-.498-1.123 0-.5502.208-.9766.625-1.2793.42-.306 1.009-.459 1.768-.459h.878v-.4151c0-.3157-.094-.5664-.283-.7519-.189-.1888-.467-.2832-.835-.2832-.322 0-.592.0814-.81.2441-.218.1628-.327.3597-.327.5908h-.909c0-.2636.093-.5175.279-.7617.189-.2474.442-.4427.761-.5859.323-.1432.676-.2149 1.06-.2149.609 0 1.086.153 1.431.459.345.3028.524.7211.537 1.2549v2.4316c0 .4851.062.8708.185 1.1573v.0781zm-1.499-.6885c.283 0 .552-.0732.806-.2197s.438-.3369.551-.5713v-1.084h-.708c-1.106 0-1.66.3239-1.66.9717 0 .2832.095.5046.284.6641.188.1595.431.2392.727.2392zm6.231-3.7842c-.137-.0227-.285-.0341-.445-.0341-.592 0-.994.2522-1.206.7568v3.75h-.903v-5.2832h.879l.014.6103c.297-.472.717-.708 1.26-.708.176 0 .309.0228.401.0684zm2.309 2.0264-.566.5908v1.8555h-.904v-7.5h.904v4.5361l.483-.581 1.646-1.7383h1.098l-2.055 2.207 2.294 3.0762h-1.059z" fill="#fff"/></g><g opacity=".1"><path d="m290 13c0-1.6569 1.343-3 3-3h94c1.657 0 3 1.3431 3 3v69c0 1.6569-1.343 3-3 3h-94c-1.657 0-3-1.3431-3-3z" fill="#fff"/><path d="m290 65h100v17c0 1.6569-1.343 3-3 3h-94c-1.657 0-3-1.3431-3-3z" fill="#000"/><path d="m300.83 70.8906v4.834c-.003.6706-.215 1.2191-.635 1.6455-.416.4264-.983.6657-1.699.7178l-.249.0098c-.778 0-1.398-.21-1.86-.6299-.463-.4199-.697-.9977-.703-1.7334v-4.8438h.927v4.8145c0 .5143.142.9147.425 1.2011.283.2833.687.4249 1.211.4249.531 0 .936-.1416 1.216-.4249.283-.2832.425-.6819.425-1.1962v-4.8194zm2.485 7.1094h-.937v-7.1094h.937zm5.533-2.4463-.567.5908v1.8555h-.903v-7.5h.903v4.5361l.484-.581 1.645-1.7383h1.099l-2.056 2.207 2.295 3.0762h-1.06zm4.575 2.4463h-.903v-5.2832h.903zm-.977-6.6846c0-.1465.044-.2702.132-.3711.091-.1009.225-.1513.401-.1513.175 0 .309.0504.4.1513s.137.2246.137.3711-.046.2686-.137.3662c-.091.0977-.225.1465-.4.1465-.176 0-.31-.0488-.401-.1465-.088-.0976-.132-.2197-.132-.3662zm3.653.1221v1.2793h.986v.6982h-.986v3.2764c0 .2116.044.3711.131.4785.088.1042.238.1563.45.1563.104 0 .247-.0196.429-.0586v.7324c-.237.0651-.468.0977-.693.0977-.404 0-.708-.1221-.913-.3663-.205-.2441-.308-.5908-.308-1.04v-3.2764h-.962v-.6982h.962v-1.2793z" fill="#fff"/></g><g opacity=".1"><path d="m-40 13c0-1.6569 1.3431-3 3-3h94c1.6569 0 3 1.3431 3 3v69c0 1.6569-1.3431 3-3 3h-94c-1.6569 0-3-1.3431-3-3z" fill="#fff"/><path d="m-40 65h100v17c0 1.6569-1.3431 3-3 3h-94c-1.6569 0-3-1.3431-3-3z" fill="#000"/><path d="m-28.9453 75.7441c-.0879.752-.3662 1.333-.835 1.7432-.4655.4069-1.0856.6104-1.8603.6104-.8399 0-1.5137-.3012-2.0215-.9034-.5046-.6022-.7568-1.4078-.7568-2.417v-.6835c0-.6609.1171-1.2419.3515-1.7432.2376-.5013.5729-.8854 1.0059-1.1524.4329-.2701.9342-.4052 1.5039-.4052.7552 0 1.3607.2116 1.8164.6347.4557.42.721 1.0026.7959 1.7481h-.9424c-.0814-.5664-.2588-.9766-.5322-1.2305-.2702-.2539-.6494-.3808-1.1377-.3808-.599 0-1.0694.2213-1.4112.664-.3385.4427-.5078 1.0726-.5078 1.8897v.6884c0 .7715.1612 1.3851.4834 1.8409.3223.4557.7731.6836 1.3526.6836.5208 0 .9196-.1172 1.1963-.3516.2799-.2376.4655-.6494.5566-1.2354zm.9033-.4345c0-.5176.1009-.9831.3027-1.3965.2051-.4134.4883-.7324.8497-.957.3645-.2247.7796-.337 1.2451-.337.7194 0 1.3004.2491 1.7431.7471.446.4981.669 1.1605.669 1.9873v.0635c0 .5143-.0993.9766-.2979 1.3867-.1953.4069-.4769.7243-.8447.9522-.3646.2278-.7845.3418-1.2598.3418-.7161 0-1.2972-.2491-1.7431-.7471-.4427-.4981-.6641-1.1572-.6641-1.9776zm.9082.1074c0 .5859.1351 1.0563.4053 1.4111.2734.3548.638.5323 1.0937.5323.459 0 .8236-.1791 1.0938-.5372.2702-.3613.4053-.8658.4053-1.5136 0-.5795-.1384-1.0482-.4151-1.4063-.2734-.3613-.638-.542-1.0937-.542-.446 0-.8057.1774-1.0791.5323-.2735.3548-.4102.8626-.4102 1.5234zm6.0156 2.583h-.9033v-7.5h.9033zm1.211-2.6904c0-.5176.1009-.9831.3027-1.3965.2051-.4134.4883-.7324.8496-.957.3646-.2247.7796-.337 1.2451-.337.7194 0 1.3005.2491 1.7432.7471.446.4981.6689 1.1605.6689 1.9873v.0635c0 .5143-.0992.9766-.2978 1.3867-.1953.4069-.4769.7243-.8447.9522-.3646.2278-.7845.3418-1.2598.3418-.7161 0-1.2972-.2491-1.7432-.7471-.4427-.4981-.664-1.1572-.664-1.9776zm.9082.1074c0 .5859.1351 1.0563.4052 1.4111.2735.3548.6381.5323 1.0938.5323.459 0 .8236-.1791 1.0938-.5372.2701-.3613.4052-.8658.4052-1.5136 0-.5795-.1383-1.0482-.415-1.4063-.2735-.3613-.638-.542-1.0938-.542-.4459 0-.8056.1774-1.0791.5323-.2734.3548-.4101.8626-.4101 1.5234zm7.5879-1.8897c-.1368-.0227-.2849-.0341-.4444-.0341-.5924 0-.9944.2522-1.206.7568v3.75h-.9033v-5.2832h.8789l.0146.6103c.2962-.472.7162-.708 1.2598-.708.1758 0 .3092.0228.4004.0684zm3.49606 5.0831h-.77637l2.96875-7.7198h.77149zm6.5625-.6104v-7.1094h2.006837c.618493 0 1.165363.1367 1.640623.4102.47526.2734.84147.6624 1.09863 1.167.26042.5045.39226 1.084.39551 1.7383v.4541c0 .6705-.13021 1.2581-.39062 1.7627-.25716.5045-.62663.8919-1.1084 1.1621-.47852.2701-1.03678.4085-1.674806.415zm.937501-6.3379v5.5713h.986328c.722661 0 1.284181-.2246 1.684571-.6738.40365-.4492.60547-1.0889.60547-1.919v-.415c0-.8073-.19043-1.4339-.57129-1.8799-.37761-.4492-.91471-.6771-1.611329-.6836zm7.675779 6.4356c-.71614 0-1.29883-.2344-1.74804-.7032-.44922-.472-.67383-1.1019-.67383-1.8896v-.166c0-.5241.09928-.9912.29785-1.4014.20182-.4134.48177-.7357.83984-.9668.36133-.2344.75196-.3516 1.17188-.3516.68685 0 1.2207.2263 1.60156.6788.38086.4524.57129 1.1002.57129 1.9433v.376h-3.5791c.01302.5208.16439.9424.4541 1.2646.29297.319.66406.4786 1.11328.4786.31901 0 .58919-.0652.81055-.1954.22135-.1302.41504-.3027.58105-.5175l.55176.4296c-.44271.6804-1.10677 1.0206-1.99219 1.0206zm-.1123-4.7364c-.36459 0-.67058.1335-.91797.4004-.2474.2637-.40039.6348-.45899 1.1133h2.64649v-.0684c-.02604-.4589-.14974-.8138-.37109-1.0644-.22136-.2539-.52084-.3809-.89844-.3809zm3.66696 4.6387v-4.585h-.83493v-.6982h.83493v-.542c0-.5664.1514-1.0042.4541-1.3135.3028-.3092.7308-.4638 1.2842-.4638.2083 0 .4151.0276.6201.083l-.0488.7324c-.153-.0293-.3158-.044-.4883-.044-.2929 0-.5192.0863-.6787.2588-.1595.1693-.2392.4134-.2392.7325v.5566h1.1279v.6982h-1.1279v4.585zm6.294 0c-.0521-.1042-.0944-.2897-.127-.5566-.4199.4362-.9212.6543-1.5039.6543-.5208 0-.9489-.1465-1.2842-.4395-.332-.2962-.498-.6706-.498-1.123 0-.5502.2083-.9766.625-1.2793.4199-.306 1.0091-.459 1.7676-.459h.8789v-.4151c0-.3157-.0944-.5664-.2832-.7519-.1888-.1888-.4672-.2832-.835-.2832-.3223 0-.5924.0814-.8105.2441-.2181.1628-.3272.3597-.3272.5908h-.9082c0-.2636.0928-.5175.2783-.7617.1888-.2474.4427-.4427.7618-.5859.3222-.1432.6754-.2149 1.0595-.2149.6087 0 1.0856.153 1.4307.459.345.3028.5241.7211.5371 1.2549v2.4316c0 .4851.0618.8708.1855 1.1573v.0781zm-1.499-.6885c.2832 0 .5517-.0732.8056-.2197s.4378-.3369.5518-.5713v-1.084h-.708c-1.1068 0-1.6602.3239-1.6602.9717 0 .2832.0944.5046.2832.6641s.4313.2392.7276.2392zm6.9384.166c-.3515.4135-.8675.6202-1.5478.6202-.5632 0-.9929-.1628-1.2891-.4883-.293-.3288-.4411-.8138-.4443-1.4551v-3.4375h.9033v3.4131c0 .8008.3255 1.2012.9766 1.2012.6901 0 1.149-.2572 1.3769-.7715v-3.8428h.9033v5.2832h-.8593zm3.2373.5225h-.9033v-7.5h.9033zm2.6758-6.5625v1.2793h.9863v.6982h-.9863v3.2764c0 .2116.044.3711.1319.4785.0878.1042.2376.1563.4492.1563.1041 0 .2474-.0196.4297-.0586v.7324c-.2377.0651-.4688.0977-.6934.0977-.4036 0-.708-.1221-.9131-.3663-.2051-.2441-.3076-.5908-.3076-1.04v-3.2764h-.9619v-.6982h.9619v-1.2793z" fill="#fff"/></g><path d="m73 11h94c1.105 0 2 .8954 2 2v69c0 1.1046-.895 2-2 2h-94c-1.1046 0-2-.8954-2-2v-69c0-1.1046.8954-2 2-2z" fill="#fff" stroke="#000" stroke-width="2"/><path d="m70 65h100v17c0 1.6569-1.343 3-3 3h-94c-1.6569 0-3-1.3431-3-3z" fill="#000"/><path d="m81.0547 75.7441c-.0879.752-.3662 1.333-.835 1.7432-.4655.4069-1.0856.6104-1.8603.6104-.8399 0-1.5137-.3012-2.0215-.9034-.5046-.6022-.7568-1.4078-.7568-2.417v-.6835c0-.6609.1171-1.2419.3515-1.7432.2376-.5013.5729-.8854 1.0059-1.1524.4329-.2701.9342-.4052 1.5039-.4052.7552 0 1.3607.2116 1.8164.6347.4557.42.721 1.0026.7959 1.7481h-.9424c-.0814-.5664-.2588-.9766-.5322-1.2305-.2702-.2539-.6494-.3808-1.1377-.3808-.599 0-1.0694.2213-1.4112.664-.3385.4427-.5078 1.0726-.5078 1.8897v.6884c0 .7715.1612 1.3851.4834 1.8409.3223.4557.7731.6836 1.3526.6836.5208 0 .9196-.1172 1.1963-.3516.2799-.2376.4655-.6494.5566-1.2354zm.9033-.4345c0-.5176.1009-.9831.3027-1.3965.2051-.4134.4883-.7324.8497-.957.3645-.2247.7796-.337 1.2451-.337.7194 0 1.3004.2491 1.7431.7471.446.4981.669 1.1605.669 1.9873v.0635c0 .5143-.0993.9766-.2979 1.3867-.1953.4069-.4769.7243-.8447.9522-.3646.2278-.7845.3418-1.2598.3418-.7161 0-1.2972-.2491-1.7431-.7471-.4427-.4981-.6641-1.1572-.6641-1.9776zm.9082.1074c0 .5859.1351 1.0563.4053 1.4111.2734.3548.638.5323 1.0937.5323.459 0 .8236-.1791 1.0938-.5372.2702-.3613.4053-.8658.4053-1.5136 0-.5795-.1384-1.0482-.4151-1.4063-.2734-.3613-.638-.542-1.0937-.542-.446 0-.8057.1774-1.0791.5323-.2735.3548-.4102.8626-.4102 1.5234zm6.0156 2.583h-.9033v-7.5h.9033zm1.211-2.6904c0-.5176.1009-.9831.3027-1.3965.2051-.4134.4883-.7324.8496-.957.3646-.2247.7796-.337 1.2451-.337.7194 0 1.3005.2491 1.7432.7471.446.4981.6689 1.1605.6689 1.9873v.0635c0 .5143-.0992.9766-.2978 1.3867-.1953.4069-.4769.7243-.8447.9522-.3646.2278-.7845.3418-1.2598.3418-.7161 0-1.2972-.2491-1.7432-.7471-.4427-.4981-.664-1.1572-.664-1.9776zm.9082.1074c0 .5859.1351 1.0563.4052 1.4111.2735.3548.6381.5323 1.0938.5323.459 0 .8236-.1791 1.0938-.5372.2701-.3613.4052-.8658.4052-1.5136 0-.5795-.1383-1.0482-.415-1.4063-.2735-.3613-.638-.542-1.0938-.542-.4459 0-.8056.1774-1.0791.5323-.2734.3548-.4101.8626-.4101 1.5234zm7.5879-1.8897c-.1368-.0227-.2849-.0341-.4444-.0341-.5924 0-.9944.2522-1.206.7568v3.75h-.9033v-5.2832h.8789l.0146.6103c.2962-.472.7162-.708 1.2598-.708.1758 0 .3092.0228.4004.0684zm3.4961 5.0831h-.776l2.968-7.7198h.772zm6.562-.6104v-7.1094h2.007c.619 0 1.166.1367 1.641.4102.475.2734.841.6624 1.099 1.167.26.5045.392 1.084.395 1.7383v.4541c0 .6705-.13 1.2581-.391 1.7627-.257.5045-.626.8919-1.108 1.1621-.478.2701-1.037.4085-1.675.415zm.938-6.3379v5.5713h.986c.723 0 1.284-.2246 1.685-.6738.404-.4492.605-1.0889.605-1.919v-.415c0-.8073-.19-1.4339-.571-1.8799-.378-.4492-.915-.6771-1.611-.6836zm7.676 6.4356c-.716 0-1.299-.2344-1.748-.7032-.45-.472-.674-1.1019-.674-1.8896v-.166c0-.5241.099-.9912.298-1.4014.202-.4134.481-.7357.84-.9668.361-.2344.752-.3516 1.171-.3516.687 0 1.221.2263 1.602.6788.381.4524.571 1.1002.571 1.9433v.376h-3.579c.013.5208.165.9424.454 1.2646.293.319.664.4786 1.114.4786.319 0 .589-.0652.81-.1954s.415-.3027.581-.5175l.552.4296c-.443.6804-1.107 1.0206-1.992 1.0206zm-.113-4.7364c-.364 0-.67.1335-.918.4004-.247.2637-.4.6348-.459 1.1133h2.647v-.0684c-.026-.4589-.15-.8138-.371-1.0644-.221-.2539-.521-.3809-.899-.3809zm3.667 4.6387v-4.585h-.835v-.6982h.835v-.542c0-.5664.152-1.0042.455-1.3135.302-.3092.73-.4638 1.284-.4638.208 0 .415.0276.62.083l-.049.7324c-.153-.0293-.316-.044-.488-.044-.293 0-.519.0863-.679.2588-.159.1693-.239.4134-.239.7325v.5566h1.128v.6982h-1.128v4.585zm6.294 0c-.052-.1042-.094-.2897-.127-.5566-.42.4362-.921.6543-1.503.6543-.521 0-.949-.1465-1.285-.4395-.332-.2962-.498-.6706-.498-1.123 0-.5502.209-.9766.625-1.2793.42-.306 1.009-.459 1.768-.459h.879v-.4151c0-.3157-.095-.5664-.283-.7519-.189-.1888-.468-.2832-.835-.2832-.323 0-.593.0814-.811.2441-.218.1628-.327.3597-.327.5908h-.908c0-.2636.092-.5175.278-.7617.189-.2474.443-.4427.762-.5859.322-.1432.675-.2149 1.059-.2149.609 0 1.086.153 1.431.459.345.3028.524.7211.537 1.2549v2.4316c0 .4851.062.8708.186 1.1573v.0781zm-1.499-.6885c.284 0 .552-.0732.806-.2197s.438-.3369.552-.5713v-1.084h-.708c-1.107 0-1.66.3239-1.66.9717 0 .2832.094.5046.283.6641s.431.2392.727.2392zm6.939.166c-.352.4135-.868.6202-1.548.6202-.563 0-.993-.1628-1.289-.4883-.293-.3288-.441-.8138-.444-1.4551v-3.4375h.903v3.4131c0 .8008.325 1.2012.976 1.2012.691 0 1.15-.2572 1.377-.7715v-3.8428h.904v5.2832h-.86zm3.237.5225h-.903v-7.5h.903zm2.676-6.5625v1.2793h.986v.6982h-.986v3.2764c0 .2116.044.3711.132.4785.088.1042.237.1563.449.1563.104 0 .247-.0196.43-.0586v.7324c-.238.0651-.469.0977-.694.0977-.403 0-.708-.1221-.913-.3663-.205-.2441-.307-.5908-.307-1.04v-3.2764h-.962v-.6982h.962v-1.2793z" fill="#fff"/><g stroke="#000"><circle cx="94" cy="25" fill="#4992ff" r="7.5"/><circle cx="94" cy="47" fill="#d6c0f8" r="7.5"/><circle cx="120" cy="25" fill="#0fa958" r="7.5"/><circle cx="120" cy="47" fill="#fff" r="7.5"/><circle cx="146" cy="25" fill="#f4d150" r="7.5"/><circle cx="146" cy="47" fill="#000" r="7.5"/></g><g filter="url(#a)" opacity=".1"><circle cx="164" cy="52" fill="#000" r="10"/></g><path d="m160 57.5758v-13.5758l9.697 9.697h-3.879l1.94 5.2363-2.91 1.0667-1.939-5.2364z" fill="#000" stroke="#fff" stroke-width="1.5"/></g></svg>